<?xml version="1.0" encoding="UTF-8"?>
<svg id="Layer_1" data-name="Layer 1" xmlns="http://www.w3.org/2000/svg" xmlns:xlink="http://www.w3.org/1999/xlink" viewBox="0 0 270 191">
  <defs>
    <style>
      .cls-1 {
        fill: url(#linear-gradient-8);
      }

      .cls-1, .cls-2, .cls-3, .cls-4, .cls-5, .cls-6, .cls-7, .cls-8, .cls-9, .cls-10, .cls-11, .cls-12, .cls-13, .cls-14 {
        stroke-width: 0px;
      }

      .cls-1, .cls-2, .cls-3, .cls-4, .cls-5, .cls-8, .cls-9, .cls-10, .cls-11, .cls-12, .cls-13, .cls-14 {
        fill-rule: evenodd;
      }

      .cls-2 {
        fill: url(#linear-gradient-11);
      }

      .cls-3 {
        fill: url(#linear-gradient-7);
      }

      .cls-4 {
        fill: url(#linear-gradient-9);
      }

      .cls-5 {
        fill: url(#linear-gradient-3);
      }

      .cls-6 {
        fill: #1e384d;
      }

      .cls-7 {
        fill: url(#linear-gradient-13);
      }

      .cls-8 {
        fill: url(#linear-gradient);
      }

      .cls-9 {
        fill: url(#linear-gradient-2);
      }

      .cls-10 {
        fill: url(#linear-gradient-5);
      }

      .cls-11 {
        fill: url(#linear-gradient-12);
      }

      .cls-12 {
        fill: url(#linear-gradient-6);
      }

      .cls-13 {
        fill: url(#linear-gradient-4);
      }

      .cls-14 {
        fill: url(#linear-gradient-10);
      }
    </style>
    <linearGradient id="linear-gradient" x1="138.13" y1="18.95" x2="138.13" y2="59.08" gradientUnits="userSpaceOnUse">
      <stop offset="0" stop-color="#ffd04f"/>
      <stop offset=".62" stop-color="#ba4b03"/>
    </linearGradient>
    <linearGradient id="linear-gradient-2" x1="177.02" y1="58.66" x2="177.02" y2="53.54" gradientUnits="userSpaceOnUse">
      <stop offset=".29" stop-color="#fbae41"/>
      <stop offset=".81" stop-color="#df922b"/>
    </linearGradient>
    <linearGradient id="linear-gradient-3" x1="204.02" y1="61.9" x2="204.02" y2="132.66" gradientUnits="userSpaceOnUse">
      <stop offset=".28" stop-color="#fbae41"/>
      <stop offset=".62" stop-color="#df922b"/>
    </linearGradient>
    <linearGradient id="linear-gradient-4" x1="75.29" y1="56.58" x2="75.29" y2="131.77" gradientUnits="userSpaceOnUse">
      <stop offset=".28" stop-color="#fbae41"/>
      <stop offset=".66" stop-color="#df922b"/>
    </linearGradient>
    <linearGradient id="linear-gradient-5" x1="102.51" y1="59.08" x2="102.51" y2="52.49" xlink:href="#linear-gradient-2"/>
    <linearGradient id="linear-gradient-6" x1="137.9" y1="131.77" x2="137.9" y2="97.47" xlink:href="#linear-gradient-2"/>
    <linearGradient id="linear-gradient-7" x1="68.47" y1="125.24" x2="68.47" y2="74.05" gradientTransform="translate(0 200) scale(1 -1)" gradientUnits="userSpaceOnUse">
      <stop offset=".12" stop-color="#ffbd47"/>
      <stop offset=".52" stop-color="#fbac41"/>
    </linearGradient>
    <linearGradient id="linear-gradient-8" x1="137.73" y1="37.2" x2="137.73" y2="131.7" gradientUnits="userSpaceOnUse">
      <stop offset=".12" stop-color="#4681b3"/>
      <stop offset=".79" stop-color="#1e384d"/>
    </linearGradient>
    <linearGradient id="linear-gradient-9" x1="103.47" y1="111.57" x2="103.47" y2="76.05" xlink:href="#linear-gradient-7"/>
    <linearGradient id="linear-gradient-10" x1="219.47" y1="110.57" x2="219.47" y2="75.05" xlink:href="#linear-gradient-7"/>
    <linearGradient id="linear-gradient-11" x1="184.47" y1="121.7" x2="184.47" y2="72.05" gradientTransform="translate(0 200) scale(1 -1)" gradientUnits="userSpaceOnUse">
      <stop offset=".2" stop-color="#ffbd47"/>
      <stop offset=".54" stop-color="#fbac41"/>
    </linearGradient>
    <linearGradient id="linear-gradient-12" x1="136.47" y1="94.05" x2="136.47" y2="68.05" gradientTransform="translate(0 200) scale(1 -1)" gradientUnits="userSpaceOnUse">
      <stop offset=".35" stop-color="#ffd04f"/>
      <stop offset=".76" stop-color="#ffbd47"/>
    </linearGradient>
    <linearGradient id="linear-gradient-13" x1="136.5" y1="135.01" x2="136.5" y2="173.05" gradientUnits="userSpaceOnUse">
      <stop offset=".12" stop-color="#4681b3"/>
      <stop offset=".94" stop-color="#1e384d"/>
    </linearGradient>
  </defs>
  <path class="cls-8" d="M174.79,27.95h-73.33c10.99-5.75,23.45-9,36.67-9s25.68,3.25,36.67,9ZM184.48,33.95h-92.71c-1.54,1.11-4.52,4-4.52,4h27.69s4.73.34,5.59,5h34.93c.86-4.66,5.59-5,5.59-5h27.94s-2.97-2.89-4.52-4ZM184.86,54.92l-24.89-3.13s-2.52-.23-3.95-2.84h-36.23c-1.43,2.61-3.95,2.84-3.95,2.84l-24.89,3.13v3.59s23.38.89,30.18.45c1.53-.11,3.75-1.18,5.9-2.21,1.56-.75,3.08-1.49,4.28-1.83,3.75-1.06,5.97-.97,6.6-.91.62-.06,2.84-.15,6.6.91,1.2.34,2.72,1.08,4.27,1.83,2.15,1.03,4.37,2.1,5.91,2.21,6.79.44,30.17-.45,30.17-.45v-3.59Z"/>
  <path class="cls-9" d="M185.47,58.51s-8.46.3-16.89.47c1.73-2.08,3.72-3.89,5.89-5.38l11,1.32v3.59Z"/>
  <path class="cls-5" d="M249.47,111.32c0,7.68-2.2,14.76-5.9,20.47h-47.24c-3.23-4.98-5.32-11.01-5.8-17.57-.28.01-.56.01-.84.01-1.98,0-3.91-.24-5.77-.7-1.99,6.79-6.14,12.42-11.51,15.8h-1.53c.22-4.94.03-12.41-1.85-21.56-3.48-17.02-10.46-24.63-10.46-24.63,0,0,11.57-7.56,24.41-8.96,3.53-.38,8.38-.41,12.16-.44.35,0,.68,0,1.01-.01,2.33-.01,8.14-.44,10.07-1.79,1.86-1.29,2.33-5.82,2.33-8.06v-6.33c4.73,5.06,7.94,11.99,8.81,19.79.85-.09,1.72-.13,2.59-.13,16.3,0,29.52,15.27,29.52,34.11Z"/>
  <path class="cls-13" d="M106.66,107.77c-2.22,10.81-2.09,19.27-1.69,24h-7c-3.8-5.52-6.05-12.38-6.05-19.82,0-.33,0-.67.01-1-.57.04-1.15.06-1.74.06h-.27c-1.78,8.96-7.09,16.49-14.27,20.76h-27.27c-8.88-5.28-14.91-15.56-14.91-27.37,0-16.54,11.82-30.07,26.74-31.08.82-6.33,3.29-12.09,6.93-16.74v7.3c0,2.24.47,6.77,2.33,8.06,1.93,1.35,7.74,1.78,10.07,1.79.33.01.66.01,1.01.01,3.78.03,8.63.06,12.16.44,12.84,1.4,24.41,8.96,24.41,8.96,0,0-6.98,7.61-10.46,24.63Z"/>
  <path class="cls-10" d="M115.02,59.08c-9.55.01-25.02-.57-25.02-.57v-3.59l19.52-2.43c2.09,1.9,3.94,4.12,5.49,6.59Z"/>
  <path class="cls-12" d="M158.98,129.33h-9.9c-.26-.16-.51-.33-.77-.51-.55,1.02-1.16,2.01-1.81,2.95h-29.61c-.17-4.69-.21-12.34,1-17.73,1.55-6.89,6.61-16.57,6.61-16.57,0,0,2.73,3.18,5.21,4.61-.08.28-.14.57-.17.87h-.14c-3.27,0-5.92,2.64-5.92,5.9v8.2c0,3.26,2.65,5.9,5.92,5.9h.77c.95,1.78,2.84,3,5,3h4.69c1.4,0,2.7-.51,3.69-1.36.53-.46.98-1.02,1.31-1.64h.77c3.27,0,5.92-2.64,5.92-5.9v-8.2c0-3.26-2.65-5.9-5.92-5.9h-.14c-.02-.18-.05-.36-.08-.54.02-.01.03-.01.05-.02,1.6-.73,3.41-2.39,4.58-3.59.75-.76,1.24-1.33,1.24-1.33,0,0,5.05,9.68,6.61,16.57,1.02,4.53,1.15,10.66,1.07,15.29Z"/>
  <path class="cls-3" d="M79.95,125.95c7.48-4.62,12.56-13.61,12.56-23.94,0-15.05-10.76-27.25-24.04-27.25s-24.04,12.2-24.04,27.25c0,10.34,5.08,19.33,12.56,23.94h22.97Z"/>
  <path class="cls-1" d="M83.38,53.17v-5.77h3.27l3.73,4.3,23.79-2.68c1.8,0,3.27-1.68,3.27-3.76s-1.46-3.76-3.27-3.76h-30.79v-.04h-.03c-.23-2.4-2.01-4.26-4.17-4.26s-3.94,1.86-4.17,4.26h-.03v.07h-30.81c-.15-.02-.3-.04-.45-.04-1.8,0-3.27,1.68-3.27,3.76s1.46,3.76,3.27,3.76v.04l23.79,2.68,3.73-4.3h3.73v5.73h8.4ZM71.26,56.39c0-1.78,1.25-3.22,2.8-3.22h10.26c1.55,0,2.8,1.44,2.8,3.22v6c14.29.16,33.19.36,34.06.36.73,0,3.01-1.02,5.34-2.08,2.12-.95,4.28-1.93,5.39-2.18,1.04-.24,3.58-.26,6.06-.22,2.49-.05,5.02-.02,6.06.22,1.11.25,3.27,1.23,5.39,2.18,2.33,1.05,4.61,2.08,5.34,2.08.87,0,19.77-.2,34.05-.36v-6c0-1.78,1.25-3.22,2.8-3.22h10.26c1.55,0,2.8,1.44,2.8,3.22v10.62c0,1.6-1.4,2.66-2.8,2.66h-3.27s-11.2.53-15.86,1.06c-4.67.53-14.46,3.19-14.46,3.19,0,0-5.13,1.06-8.86,3.73-2.64,1.88-3.18,2.7-3.76,3.58-.24.37-.49.74-.9,1.21-.12.13-.25.31-.38.51,16.22,20.93,12.97,48.74,12.97,48.74h-5.6s2.8-24.13-11.17-40.78c-.01.03-.02.04-.02.04,0,0-1.87,5.32-4.66,6.92-2.8,1.6-7.93,1.6-7.93,1.6,0,0-5.07,0-7.88-1.57l-.05-.03c-2.8-1.6-4.67-6.92-4.67-6.92l-.02-.05c-13.97,16.64-11.18,40.79-11.18,40.79h-5.6s-3.25-27.82,12.97-48.75c-.13-.2-.26-.37-.38-.5-.41-.47-.66-.85-.9-1.21-.58-.88-1.13-1.7-3.76-3.58-3.73-2.66-8.86-3.73-8.86-3.73,0,0-9.8-2.66-14.46-3.19-4.67-.53-15.86-1.06-15.86-1.06h-3.27c-1.4,0-2.8-1.06-2.8-2.66v-10.62ZM200.95,47.4v5.77h-8.4v-5.75h-4.1l-3.73,4.3-23.79-2.68v-.04c-1.8,0-3.27-1.68-3.27-3.76s1.46-3.76,3.27-3.76c.15,0,.3.01.45.04h31.17v-.05h.03c.23-2.4,2.01-4.26,4.17-4.26s3.94,1.86,4.17,4.26h.03v.04h30.79c1.8,0,3.27,1.68,3.27,3.76s-1.46,3.76-3.27,3.76l-23.79,2.68-3.73-4.3h-3.27ZM134.94,100.62c-1.11,0-2.01.96-2.01,2.15v3.22h-5.02c-1.11,0-2.01.96-2.01,2.15v8.59c0,1.19.9,2.15,2.01,2.15h5.02v1.07c0,1.19.9,2.15,2.01,2.15h5.02c1.11,0,2.01-.96,2.01-2.15v-1.07h5.02c1.11,0,2.01-.96,2.01-2.15v-8.59c0-1.19-.9-2.15-2.01-2.15h-5.02v-3.22c0-1.19-.9-2.15-2.01-2.15h-5.02Z"/>
  <path class="cls-4" d="M111.42,123.95c5.19-3.2,8.71-9.44,8.71-16.61,0-10.44-7.46-18.9-16.67-18.9s-16.67,8.46-16.67,18.9c0,7.17,3.52,13.41,8.71,16.61h15.92Z"/>
  <path class="cls-14" d="M227.42,124.95c5.19-3.2,8.71-9.44,8.71-16.61,0-10.44-7.46-18.9-16.67-18.9s-16.67,8.46-16.67,18.9c0,7.17,3.52,13.41,8.71,16.61h15.92Z"/>
  <path class="cls-2" d="M195.59,127.95c7.25-4.48,12.17-13.2,12.17-23.22,0-14.59-10.43-26.42-23.29-26.42s-23.29,11.83-23.29,26.42c0,10.02,4.92,18.74,12.17,23.22h22.25Z"/>
  <path class="cls-11" d="M168.24,131.95h32.52s25.61,0,25.61,0h28.11c.04-.5.06-1.01.06-1.53,0-10.14-7.46-18.35-16.67-18.35-3.9,0-7.48,1.47-10.32,3.94-2.37-5.92-7.74-10.05-13.99-10.05s-11.92,4.37-14.18,10.55c-3.13-4.99-8.37-8.26-14.29-8.26-7.98,0-14.7,5.93-16.73,14-2.03-2.49-4.99-4.06-8.27-4.06-2.21,0-4.27.71-6,1.94-2.59-5.25-7.64-8.82-13.44-8.82-6.54,0-12.11,4.52-14.29,10.88-2.24-4.71-6.84-7.94-12.15-7.94-4.77,0-8.97,2.61-11.4,6.56-1.07-.42-2.23-.65-3.44-.65s-2.37.23-3.44.65c-1.4-6.39-6.8-11.15-13.25-11.15-5.32,0-9.93,3.24-12.16,7.96-2.83-3.66-7.13-6-11.95-6-6.06,0-11.3,3.7-13.84,9.09-2.72-3.54-6.87-5.81-11.51-5.81-8.19,0-14.84,7.05-14.84,15.74,0,.44.02.88.05,1.31h88.97s18.37,0,18.37,0h0s29.76,0,29.76,0h0s12.7,0,12.7,0h0Z"/>
  <g>
    <path class="cls-7" d="M152.52,173.05c-.35,0-.67-.18-.85-.48l-11.74-19.04.07.6s0,.08,0,.11v17.16c0,.55-.45,1-1,1h-4.2c-.55,0-1-.45-1-1v-35.39c0-.55.45-1,1-1h.13c.35,0,.67.18.85.47l10.95,17.74.85,1.52-.08-.83v-16.85c0-.55.44-1,1-1h4.16c.55,0,1,.45,1,1v34.98c0,.55-.45,1-1,1h-.13ZM97.37,173.05c-.35,0-.67-.18-.85-.48l-11.74-19.04.07.6s0,.08,0,.11v17.16c0,.55-.45,1-1,1h-4.2c-.55,0-1-.45-1-1v-35.39c0-.55.45-1,1-1h.13c.35,0,.67.18.85.47l10.95,17.74.85,1.52-.08-.83v-16.85c0-.55.44-1,1-1h4.16c.55,0,1,.45,1,1v34.98c0,.55-.45,1-1,1h-.13ZM246.2,172.81c-1.42,0-2.8-.2-4.09-.61-1.29-.4-2.42-.92-3.36-1.54-.43-.29-.57-.85-.33-1.31l1.92-3.58c.13-.23.34-.41.6-.49.09-.03.19-.04.29-.04.17,0,.33.04.48.12.7.38,1.45.74,2.23,1.07.68.28,1.45.43,2.27.43.97,0,1.8-.25,2.52-.78.62-.45.92-1.19.92-2.27,0-.79-.24-1.68-.72-2.65-.52-1.04-1.46-2.39-2.8-4.02l-2.9-3.51c-1.5-1.82-2.58-3.51-3.22-5.02-.65-1.55-.99-3.04-.99-4.45,0-2.42.81-4.46,2.42-6.06,1.6-1.6,3.81-2.42,6.57-2.42,1.08,0,2.17.14,3.26.41,1.09.27,2.17.71,3.21,1.3.47.27.64.87.38,1.35l-1.81,3.34c-.13.24-.35.41-.6.48-.09.03-.18.04-.27.04-.17,0-.34-.04-.49-.13-.48-.27-1-.51-1.56-.72-.49-.18-1.05-.27-1.67-.27-.98,0-1.72.25-2.28.75-.53.48-.79,1.16-.79,2.08,0,.52.14,1.13.42,1.79.3.7.92,1.66,1.86,2.85l4.22,5.3c1.12,1.42,2.08,2.81,2.86,4.14.85,1.45,1.27,3.17,1.27,5.11s-.43,3.58-1.29,4.97-2.04,2.49-3.52,3.24c-1.46.74-3.14,1.11-5,1.11ZM225.81,172.81c-2.93,0-5.27-.91-6.95-2.7-1.67-1.77-2.52-4.55-2.52-8.26v-24.79c0-.55.45-1,1-1h4.2c.55,0,1,.45,1,1v24.29c0,2.68.5,3.88.91,4.42.56.73,1.31,1.06,2.36,1.06s1.8-.34,2.36-1.06c.42-.54.91-1.75.91-4.42v-24.29c0-.55.45-1,1-1h4.18c.55,0,1,.45,1,1v24.79c0,3.71-.84,6.49-2.5,8.26-1.68,1.79-4.01,2.7-6.94,2.7ZM118.83,172.81c-3.07,0-5.87-.58-8.34-1.74-2.76-1.29-4.96-3.41-6.54-6.3-1.56-2.85-2.34-6.61-2.34-11.17,0-3.73.57-6.95,1.69-9.58,1.14-2.67,2.74-4.75,4.74-6.18,2.02-1.44,4.35-2.17,6.91-2.17.95,0,1.83.08,2.63.23.79.15,1.66.39,2.59.7.28.09.51.31.61.58.11.28.09.59-.06.85l-1.88,3.41c-.18.32-.52.52-.88.52-.09,0-.18-.01-.27-.04-.36-.1-.79-.18-1.29-.24-.5-.06-.97-.09-1.39-.09-1.21,0-2.31.42-3.37,1.28-1.1.88-2,2.22-2.69,3.98-.71,1.81-1.07,4.09-1.07,6.78,0,3.16.35,5.71,1.04,7.57.67,1.8,1.58,3.15,2.72,4.01.85.65,1.8,1.13,2.84,1.44v-8.13h-.92c-.55,0-1-.45-1-1v-3.62c0-.55.45-1,1-1h6.12c.55,0,1,.45,1,1v3.62c0,.07,0,.14-.02.21v14.04c0,.54-.43.98-.96,1-.3.01-.59.02-.88.02ZM197.46,172.79c-.55,0-1-.45-1-1v-35.13c0-.55.45-1,1-1,.37,0,.93.02,1.7.07.77.04,1.33.09,1.67.14,2.8.32,5.05,1.08,6.68,2.26,1.64,1.19,2.82,2.63,3.5,4.28.66,1.59.99,3.22.99,4.82,0,1.37-.36,2.8-1.08,4.23-.51,1.03-1.19,1.99-2.02,2.87,1.14.8,2.06,1.75,2.75,2.83.92,1.45,1.38,3.12,1.38,4.97,0,1.58-.36,3.16-1.08,4.69-.74,1.58-1.99,2.93-3.71,4.01-1.71,1.07-4.05,1.7-6.96,1.89-.23.01-.6.03-1.13.04-.51.01-1.03.03-1.55.03-.53,0-.91.01-1.14.01ZM202.51,166.63c1.05-.15,1.96-.54,2.76-1.18.98-.78,1.45-1.88,1.45-3.34,0-.88-.2-1.66-.62-2.38-.41-.71-.97-1.24-1.73-1.63-.53-.27-1.16-.42-1.87-.43v8.95ZM202.51,152.33c.34-.08.69-.23,1.04-.48.71-.49,1.3-1.19,1.77-2.08.47-.89.7-1.81.7-2.82,0-1.28-.25-2.3-.73-3.02-.51-.75-1.09-1.27-1.79-1.6-.34-.16-.67-.28-.98-.37v10.35ZM186.64,172.4c-.55,0-1-.45-1-1v-15.82l.04-.65-.43.85-3.92,6.85c-.18.31-.51.5-.87.5s-.71-.19-.89-.5l-3.94-6.83-.43-.84.04.5v15.93c0,.55-.44,1-1,1h-4.2c-.55,0-1-.45-1-1v-35.39c0-.55.45-1,1-1h.42c.37,0,.71.2.88.53l9.09,17.05,9.09-17.05c.17-.33.51-.53.88-.53h.42c.55,0,1,.45,1,1v35.39c0,.55-.45,1-1,1h-4.2ZM159.18,172.4c-.55,0-1-.45-1-1v-34.34c0-.55.45-1,1-1h4.2c.55,0,1,.45,1,1v34.34c0,.55-.45,1-1,1h-4.2ZM68.77,172.4c-.55,0-1-.45-1-1v-34.34c0-.55.45-1,1-1h4.2c.55,0,1,.45,1,1v34.34c0,.55-.45,1-1,1h-4.2ZM53.23,172.4c-.55,0-1-.45-1-1v-11.54l-7.38-22.5c-.1-.3-.05-.64.14-.9.19-.26.49-.41.81-.41h4.51c.44,0,.83.29.96.72l4.08,13.79,4.1-13.79c.13-.42.52-.71.96-.71h4.51c.32,0,.62.15.81.41s.24.59.14.9l-7.45,22.65v11.39c0,.55-.45,1-1,1h-4.2ZM34.36,172.4c-.55,0-1-.45-1-1v-34.34c0-.55.45-1,1-1h4.2c.55,0,1,.45,1,1v29.59h8.27c.55,0,1,.45,1,1v3.75c0,.55-.45,1-1,1h-13.47ZM18,172.4c-.55,0-1-.45-1-1v-34.36c0-.55.45-1,1-1h12.27c.55,0,1,.45,1,1v3.81c0,.55-.45,1-1,1h-7.07v12.53h5.94c.55,0,1,.45,1,1v3.79c0,.55-.45,1-1,1h-5.94v11.22c0,.55-.45,1-1,1h-4.2Z"/>
    <path class="cls-6" d="M190.85,136.01v35.39h-4.2v-15.82l.35-5.37h-.05l-2.59,5.11-3.89,6.81h-.02l-3.94-6.83-2.59-5.09h-.04l.38,5.32v15.86h-4.2v-35.39h.42l9.95,18.67h.04l9.95-18.67h.42M134.94,136.01l10.95,17.74,3.16,5.69-.55-5.63v-16.75h4.16v34.98h-.13l-10.97-17.8-3.12-5.04.58,5.04v17.16h-4.2v-35.39h.13M79.79,136.01l10.95,17.74,3.16,5.69-.55-5.63v-16.75h4.16v34.98h-.13l-10.97-17.8-3.12-5.04.58,5.04v17.16h-4.2v-35.39h.13M197.46,136.66c.35,0,.9.02,1.64.06.74.04,1.27.09,1.59.13,2.65.3,4.73,1,6.22,2.08,1.5,1.08,2.55,2.37,3.16,3.85.61,1.48.92,2.96.92,4.44,0,1.22-.32,2.48-.97,3.78-.65,1.3-1.56,2.46-2.74,3.48,1.53.85,2.71,1.92,3.53,3.2.82,1.29,1.23,2.76,1.23,4.43,0,1.44-.33,2.86-.98,4.27-.66,1.41-1.77,2.6-3.34,3.59-1.57.98-3.73,1.56-6.49,1.74-.22.01-.59.03-1.1.04s-1.02.02-1.54.03c-.52,0-.89.01-1.13.01v-35.13M202.03,153.38c.71,0,1.41-.24,2.08-.71.84-.59,1.53-1.4,2.08-2.42.55-1.03.82-2.12.82-3.29,0-1.49-.3-2.69-.91-3.58-.61-.89-1.33-1.54-2.19-1.94-.85-.4-1.66-.6-2.41-.6v12.5c.18.03.35.04.53.04M201.51,167.7c1.71,0,3.17-.49,4.39-1.47,1.22-.98,1.82-2.35,1.82-4.12,0-1.05-.25-2.01-.75-2.88-.5-.87-1.21-1.54-2.13-2.02-.71-.36-1.52-.55-2.45-.55-.28,0-.57.02-.87.05v10.97M247.99,136.68c1,0,2.01.13,3.02.38,1.01.25,1.99.65,2.95,1.2l-1.81,3.34c-.53-.3-1.1-.56-1.7-.79-.6-.22-1.27-.33-2.01-.33-1.22,0-2.21.34-2.95,1.01-.74.68-1.12,1.62-1.12,2.82,0,.66.17,1.39.5,2.18.33.79,1,1.82,2,3.08l4.22,5.3c1.09,1.38,2.02,2.72,2.78,4.02.76,1.3,1.14,2.83,1.14,4.6s-.38,3.21-1.14,4.45c-.76,1.24-1.8,2.2-3.12,2.87-1.32.67-2.83,1-4.54,1-1.33,0-2.59-.19-3.79-.56-1.2-.37-2.24-.85-3.11-1.42l1.92-3.58c.74.4,1.51.77,2.32,1.11.81.34,1.7.51,2.65.51,1.18,0,2.21-.32,3.11-.97.89-.65,1.34-1.67,1.34-3.08,0-.95-.28-1.98-.83-3.09-.55-1.11-1.53-2.52-2.93-4.21l-2.9-3.51c-1.44-1.75-2.47-3.34-3.07-4.77-.6-1.43-.91-2.78-.91-4.06,0-2.16.71-3.94,2.12-5.36,1.42-1.42,3.37-2.12,5.86-2.12M114.95,136.68c.88,0,1.7.07,2.44.22.74.14,1.57.37,2.47.67l-1.88,3.41c-.41-.11-.89-.2-1.44-.27-.55-.06-1.05-.1-1.5-.1-1.43,0-2.76.5-4,1.5-1.24,1-2.24,2.46-3,4.4-.76,1.93-1.14,4.31-1.14,7.15,0,3.29.37,5.93,1.11,7.92.74,1.99,1.75,3.48,3.05,4.46,1.3.98,2.78,1.62,4.45,1.91v-10.39h-1.92v-3.62h6.12v3.62h-.02v14.25c-.29.01-.57.02-.85.02-2.93,0-5.57-.55-7.92-1.64-2.57-1.2-4.6-3.16-6.08-5.87-1.48-2.72-2.22-6.28-2.22-10.69,0-3.61.54-6.67,1.61-9.18,1.08-2.51,2.54-4.43,4.4-5.75,1.86-1.32,3.97-1.98,6.33-1.98M64.93,137.05l-7.5,22.8v11.55h-4.2v-11.7l-7.43-22.65h4.51l5.02,16.94h.04l5.04-16.94h4.51M30.27,137.05v3.81h-8.07v14.53h6.94v3.79h-6.94v12.22h-4.2v-34.36h12.27M234.26,137.07v24.79c0,3.46-.75,5.99-2.23,7.58-1.49,1.59-3.56,2.38-6.21,2.38s-4.73-.79-6.22-2.38c-1.5-1.59-2.24-4.11-2.24-7.58v-24.79h4.2v24.29c0,2.39.37,4.06,1.12,5.03.74.97,1.79,1.45,3.15,1.45s2.41-.48,3.15-1.45c.74-.97,1.12-2.65,1.12-5.03v-24.29h4.18M163.38,137.07v34.34h-4.2v-34.34h4.2M72.98,137.07v34.34h-4.2v-34.34h4.2M38.57,137.07v30.59h9.27v3.75h-13.47v-34.34h4.2M190.85,134.01h-.42c-.74,0-1.42.41-1.76,1.06l-8.21,15.4-8.21-15.4c-.35-.65-1.03-1.06-1.76-1.06h-.42c-1.1,0-2,.9-2,2v35.39c0,1.1.9,2,2,2h4.2c1.1,0,2-.9,2-2v-12.54l2.46,4.27c.36.62,1.02,1,1.73,1s1.4-.38,1.76-1.01l2.43-4.26v12.53c0,1.1.9,2,2,2h4.2c1.1,0,2-.9,2-2v-35.39c0-1.1-.9-2-2-2h0ZM134.94,134.01h-.13c-1.1,0-2,.9-2,2v35.39c0,1.1.9,2,2,2h4.2c1.1,0,2-.9,2-2v-14.23l9.81,15.92c.36.59,1.01.95,1.7.95h.13c1.1,0,2-.9,2-2v-34.98c0-1.1-.9-2-2-2h-4.16c-1.1,0-2,.9-2,2v13.86l-9.85-15.97c-.36-.59-1.01-.95-1.7-.95h0ZM79.79,134.01h-.13c-1.1,0-2,.9-2,2v35.39c0,1.1.9,2,2,2h4.2c1.1,0,2-.9,2-2v-14.23l9.81,15.92c.36.59,1.01.95,1.7.95h.13c1.1,0,2-.9,2-2v-34.98c0-1.1-.9-2-2-2h-4.16c-1.1,0-2,.9-2,2v13.86l-9.85-15.97c-.36-.59-1.01-.95-1.7-.95h0ZM197.46,134.66c-.53,0-1.04.21-1.41.59s-.59.88-.59,1.41v35.13c0,1.1.9,2,2,2,.24,0,.63,0,1.15-.01.53,0,1.05-.02,1.57-.03.54-.02.93-.03,1.17-.05,3.12-.2,5.55-.86,7.43-2.04,1.89-1.19,3.27-2.68,4.09-4.44.78-1.67,1.17-3.39,1.17-5.11,0-2.04-.52-3.9-1.54-5.5-.57-.9-1.29-1.72-2.14-2.44.57-.71,1.06-1.48,1.46-2.28.78-1.57,1.18-3.14,1.18-4.67,0-1.74-.36-3.49-1.07-5.2-.75-1.82-2.04-3.4-3.84-4.7-1.77-1.28-4.18-2.11-7.17-2.45-.34-.05-.91-.09-1.7-.14-.79-.05-1.36-.07-1.75-.07h0ZM203.51,150.58v-7.07c.35.24.66.57.95,1,.37.55.56,1.37.56,2.45,0,.84-.19,1.61-.59,2.35-.27.51-.57.93-.92,1.27h0ZM203.51,165.34v-6.51c.15.05.28.1.41.17.58.3,1.01.7,1.32,1.24.33.57.49,1.18.49,1.88,0,1.52-.61,2.19-1.08,2.56-.35.28-.73.5-1.14.67h0ZM247.99,134.68c-3.03,0-5.48.91-7.27,2.71-1.8,1.8-2.71,4.08-2.71,6.77,0,1.54.36,3.17,1.06,4.84.69,1.63,1.79,3.35,3.37,5.27l2.9,3.51c1.3,1.57,2.2,2.86,2.68,3.83.41.83.62,1.57.62,2.2,0,1.09-.37,1.36-.51,1.46-.55.4-1.18.59-1.93.59-.7,0-1.32-.12-1.88-.35-.74-.31-1.46-.65-2.13-1.02-.3-.16-.63-.24-.96-.24-.19,0-.38.03-.57.08-.51.15-.94.5-1.19.97l-1.92,3.58c-.49.91-.2,2.05.66,2.62,1.02.68,2.24,1.24,3.62,1.66,1.39.43,2.86.65,4.39.65,2.02,0,3.85-.41,5.45-1.22,1.65-.84,2.97-2.05,3.92-3.61.95-1.56,1.43-3.4,1.43-5.49s-.47-4-1.41-5.61c-.8-1.37-1.79-2.8-2.93-4.25l-4.23-5.31c-1.1-1.39-1.54-2.18-1.72-2.61-.23-.54-.34-1.01-.34-1.4,0-.83.26-1.16.46-1.34.13-.12.55-.49,1.61-.49.5,0,.94.07,1.32.21.5.18.97.4,1.41.65.3.17.64.26.99.26.18,0,.37-.03.55-.08.52-.15.95-.5,1.21-.97l1.81-3.34c.52-.96.18-2.15-.77-2.69-1.11-.63-2.28-1.1-3.46-1.4-1.17-.29-2.34-.44-3.5-.44h0ZM114.95,134.68c-2.77,0-5.29.79-7.48,2.35-2.15,1.53-3.86,3.75-5.08,6.6-1.18,2.75-1.78,6.11-1.78,9.97,0,4.73.83,8.65,2.47,11.65,1.68,3.09,4.04,5.35,6.99,6.73,2.6,1.21,5.55,1.83,8.76,1.83.3,0,.61,0,.92-.02,1.08-.04,1.93-.92,1.93-2v-13.95c.01-.1.02-.19.02-.29v-3.62c0-1.1-.9-2-2-2h-6.12c-1.1,0-2,.9-2,2v3.62c0,1.08.85,1.96,1.92,2v5.66c-.43-.22-.84-.47-1.24-.77-.98-.75-1.79-1.94-2.39-3.56-.65-1.76-.98-4.19-.98-7.23,0-2.57.34-4.73,1-6.41.63-1.6,1.43-2.8,2.39-3.57.88-.71,1.78-1.05,2.75-1.05.38,0,.8.03,1.27.08.44.05.82.12,1.14.21.18.05.36.07.54.07.71,0,1.39-.38,1.75-1.03l1.88-3.41c.29-.52.33-1.14.11-1.69-.22-.55-.67-.98-1.23-1.17-.98-.33-1.89-.57-2.72-.74-.87-.17-1.82-.25-2.82-.25h0ZM64.93,135.05h-4.51c-.88,0-1.66.58-1.92,1.43l-3.14,10.56-3.13-10.56c-.25-.85-1.03-1.43-1.92-1.43h-4.51c-.64,0-1.24.31-1.62.83-.38.52-.48,1.19-.28,1.8l7.33,22.35v11.38c0,1.1.9,2,2,2h4.2c1.1,0,2-.9,2-2v-11.23l7.34-22.34v33.58c0,1.1.9,2,2,2h4.2c1.1,0,2-.9,2-2v-34.34c0-1.1-.9-2-2-2h-4.2c-.91,0-1.68.61-1.92,1.44-.06-.23-.17-.44-.31-.64-.38-.52-.98-.83-1.62-.83h0ZM30.27,135.05h-12.27c-1.1,0-2,.9-2,2v34.36c0,1.1.9,2,2,2h4.2c1.1,0,2-.9,2-2v-10.22h4.94c1.1,0,2-.9,2-2v-3.79c0-1.1-.9-2-2-2h-4.94v-10.53h6.07c1.1,0,2-.9,2-2v-3.81c0-1.1-.9-2-2-2h0ZM234.26,135.07h-4.18c-1.1,0-2,.9-2,2v24.29c0,2.62-.49,3.54-.7,3.82-.26.33-.64.67-1.56.67s-1.31-.34-1.56-.67c-.21-.28-.7-1.2-.7-3.82v-24.29c0-1.1-.9-2-2-2h-4.2c-1.1,0-2,.9-2,2v24.79c0,3.97.94,6.99,2.79,8.95,1.88,2,4.47,3.01,7.68,3.01s5.8-1.01,7.67-3.01c1.84-1.96,2.78-4.97,2.78-8.94v-24.79c0-1.1-.9-2-2-2h0ZM163.38,135.07h-4.2c-1.1,0-2,.9-2,2v34.34c0,1.1.9,2,2,2h4.2c1.1,0,2-.9,2-2v-34.34c0-1.1-.9-2-2-2h0ZM38.57,135.07h-4.2c-1.1,0-2,.9-2,2v34.34c0,1.1.9,2,2,2h13.47c1.1,0,2-.9,2-2v-3.75c0-1.1-.9-2-2-2h-7.27v-28.59c0-1.1-.9-2-2-2h0Z"/>
  </g>
</svg>