<?xml version="1.0" encoding="UTF-8"?>
<svg id="Layer_1" data-name="Layer 1" xmlns="http://www.w3.org/2000/svg" viewBox="0 0 46 47">
  <defs>
    <style>
      .cls-1 {
        isolation: isolate;
        opacity: .16;
      }

      .cls-1, .cls-2 {
        fill: #cb8b35;
        stroke-width: 0px;
      }
    </style>
  </defs>
  <path class="cls-1" d="M34.44,44.03H11.74c-1.2,0-2.36-.48-3.21-1.33-.85-.85-1.33-2.01-1.33-3.21v-20.43L23.09,3.18l15.89,15.89v20.43c0,1.2-.48,2.36-1.33,3.21s-2.01,1.33-3.21,1.33Z"/>
  <path class="cls-2" d="M41.24,19.06c0-.6-.24-1.18-.66-1.6-.43-.43-1-.66-1.6-.66s-1.18.24-1.6.66c-.43.43-.66,1-.66,1.6h4.54ZM9.47,19.06c0-.6-.24-1.18-.66-1.6s-1-.66-1.6-.66-1.18.24-1.6.66c-.43.43-.66,1-.66,1.6h4.54ZM41.91,25.21c.43.41,1,.64,1.6.64.6,0,1.16-.24,1.59-.66.42-.42.66-.99.66-1.59,0-.6-.22-1.17-.64-1.6l-3.21,3.21ZM23.09,3.18l1.6-1.6c-.43-.43-1-.66-1.6-.66s-1.18.24-1.6.66l1.6,1.6ZM1.06,22c-.22.21-.39.46-.51.74-.12.28-.18.57-.18.88,0,.3.05.6.17.88.11.28.28.53.5.75.21.21.47.38.75.5.28.11.58.17.88.17.3,0,.6-.07.88-.18.28-.12.53-.29.74-.51l-3.21-3.21ZM11.74,46.3h22.7v-4.54H11.74v4.54ZM41.24,39.49v-20.43h-4.54v20.43h4.54ZM9.47,39.49v-20.43h-4.54v20.43h4.54ZM45.12,22L24.69,1.57l-3.21,3.21,20.43,20.43,3.21-3.21ZM21.48,1.57L1.06,22l3.21,3.21L24.69,4.78l-3.21-3.21ZM34.44,46.3c1.81,0,3.54-.72,4.81-1.99,1.28-1.28,1.99-3.01,1.99-4.81h-4.54c0,.6-.24,1.18-.66,1.6-.43.43-1,.66-1.6.66v4.54ZM11.74,41.76c-.6,0-1.18-.24-1.6-.66-.43-.43-.66-1-.66-1.6h-4.54c0,1.81.72,3.54,1.99,4.81,1.28,1.28,3.01,1.99,4.81,1.99v-4.54Z"/>
</svg>