<?xml version="1.0" encoding="UTF-8"?>
<svg id="Layer_1" data-name="Layer 1" xmlns="http://www.w3.org/2000/svg" viewBox="0 0 46 47">
  <defs>
    <style>
      .cls-1 {
        stroke-width: 4.16px;
      }

      .cls-1, .cls-2 {
        fill: none;
        stroke: #cb8b35;
        stroke-linejoin: round;
      }

      .cls-2 {
        stroke-width: 4.68px;
      }

      .cls-3 {
        fill: #cb8b35;
        isolation: isolate;
        opacity: .16;
        stroke-width: 0px;
      }
    </style>
  </defs>
  <path class="cls-3" d="M4.34,38.13c0-2.48.99-4.86,2.74-6.62,1.76-1.76,4.14-2.74,6.62-2.74h18.72c2.48,0,4.86.99,6.62,2.74,1.76,1.76,2.74,4.14,2.74,6.62,0,1.24-.49,2.43-1.37,3.31-.88.88-2.07,1.37-3.31,1.37H9.02c-1.24,0-2.43-.49-3.31-1.37-.88-.88-1.37-2.07-1.37-3.31Z"/>
  <path class="cls-2" d="M4.34,38.13c0-2.48.99-4.86,2.74-6.62,1.76-1.76,4.14-2.74,6.62-2.74h18.72c2.48,0,4.86.99,6.62,2.74,1.76,1.76,2.74,4.14,2.74,6.62,0,1.24-.49,2.43-1.37,3.31-.88.88-2.07,1.37-3.31,1.37H9.02c-1.24,0-2.43-.49-3.31-1.37-.88-.88-1.37-2.07-1.37-3.31Z"/>
  <path class="cls-3" d="M23.06,20.79c4.6,0,8.32-3.73,8.32-8.32s-3.73-8.32-8.32-8.32-8.32,3.73-8.32,8.32,3.73,8.32,8.32,8.32Z"/>
  <path class="cls-1" d="M23.06,20.79c4.6,0,8.32-3.73,8.32-8.32s-3.73-8.32-8.32-8.32-8.32,3.73-8.32,8.32,3.73,8.32,8.32,8.32Z"/>
</svg>