<?xml version="1.0" encoding="UTF-8"?>
<svg id="Layer_1" data-name="Layer 1" xmlns="http://www.w3.org/2000/svg" viewBox="0 0 52 47">
  <defs>
    <style>
      .cls-1 {
        fill: none;
        stroke: #cb8b35;
        stroke-width: 4.54px;
      }

      .cls-2 {
        fill-rule: evenodd;
        isolation: isolate;
        opacity: .16;
      }

      .cls-2, .cls-3 {
        fill: #cb8b35;
        stroke-width: 0px;
      }
    </style>
  </defs>
  <path class="cls-2" d="M6.55,17.58c.9-2.93,2.45-5.62,4.54-7.87l3.63,2.1c3.03,1.75,6.81-.44,6.81-3.93V3.68c2.99-.68,6.09-.68,9.08,0v4.19c0,3.5,3.78,5.68,6.81,3.93l3.63-2.1c2.08,2.25,3.63,4.94,4.54,7.86l-3.63,2.1c-3.03,1.75-3.03,6.11,0,7.86l3.63,2.09c-.9,2.93-2.45,5.62-4.53,7.87l-3.64-2.1c-3.03-1.75-6.81.44-6.81,3.93v4.2c-2.99.68-6.09.68-9.08,0v-4.19c0-3.5-3.78-5.68-6.81-3.93l-3.63,2.1c-2.08-2.25-3.63-4.94-4.54-7.86l3.63-2.1c3.03-1.75,3.03-6.11,0-7.86l-3.63-2.09ZM26.06,28.14c1.2,0,2.36-.48,3.21-1.33.85-.85,1.33-2.01,1.33-3.21s-.48-2.36-1.33-3.21c-.85-.85-2.01-1.33-3.21-1.33s-2.36.48-3.21,1.33c-.85.85-1.33,2.01-1.33,3.21s.48,2.36,1.33,3.21c.85.85,2.01,1.33,3.21,1.33Z"/>
  <path class="cls-1" d="M26.06,28.14c2.51,0,4.54-2.03,4.54-4.54s-2.03-4.54-4.54-4.54-4.54,2.03-4.54,4.54,2.03,4.54,4.54,4.54Z"/>
  <path class="cls-3" d="M11.08,9.71l1.13-1.97c-.45-.26-.97-.36-1.47-.28-.51.08-.98.32-1.33.7l1.67,1.55ZM6.54,17.58l-2.17-.67c-.15.49-.13,1.02.06,1.5.19.48.53.88.98,1.14l1.13-1.96ZM6.54,29.63l-1.13-1.97c-.45.26-.79.66-.98,1.14-.19.48-.21,1.01-.05,1.5l2.17-.67ZM11.08,37.49l-1.67,1.54c.35.38.82.63,1.33.7.51.08,1.03-.02,1.47-.28l-1.13-1.97ZM21.52,43.52h-2.26c0,.51.17,1.01.5,1.42.32.4.77.68,1.27.8l.5-2.21ZM30.6,43.52l.51,2.21c.5-.11.95-.4,1.27-.8.32-.4.49-.9.49-1.41h-2.27ZM41.04,37.49l-1.13,1.97c.45.26.96.36,1.47.28.51-.08.98-.32,1.33-.7l-1.66-1.54ZM45.58,29.63l2.17.67c.15-.49.13-1.02-.06-1.5s-.53-.88-.98-1.14l-1.13,1.96ZM45.58,17.57l1.13,1.97c.45-.26.79-.66.98-1.14.19-.48.21-1.01.05-1.5l-2.17.67ZM41.04,9.71l1.67-1.54c-.35-.38-.82-.63-1.33-.7-.51-.08-1.03.02-1.47.28l1.13,1.97ZM30.6,3.69h2.27c0-.51-.17-1.01-.49-1.41-.32-.4-.77-.68-1.27-.8l-.51,2.21ZM21.52,3.68l-.51-2.21c-.5.11-.95.4-1.27.8-.32.4-.49.9-.49,1.41h2.27ZM8.71,18.25c.8-2.6,2.18-4.99,4.03-6.99l-3.33-3.09c-2.31,2.5-4.04,5.49-5.04,8.74l4.34,1.34ZM10.34,32.68c-.68-1.18-1.23-2.42-1.63-3.72l-4.33,1.34c.49,1.59,1.17,3.15,2.03,4.65l3.93-2.27ZM12.75,35.95c-.92-1-1.73-2.09-2.41-3.27l-3.93,2.27c.86,1.5,1.88,2.86,3.01,4.09l3.33-3.08ZM30.1,41.31c-2.66.6-5.41.6-8.07,0l-1.01,4.43c3.32.76,6.77.76,10.09,0l-1.01-4.43ZM43.41,28.96c-.8,2.6-2.18,4.99-4.03,6.99l3.33,3.09c2.31-2.5,4.04-5.48,5.04-8.74l-4.34-1.34ZM41.79,14.53c.69,1.2,1.24,2.45,1.63,3.72l4.33-1.34c-.5-1.62-1.18-3.18-2.03-4.65l-3.93,2.27ZM39.38,11.25c.9.98,1.71,2.07,2.41,3.27l3.93-2.27c-.85-1.47-1.86-2.84-3.01-4.09l-3.33,3.08ZM22.03,5.9c2.66-.6,5.42-.6,8.07,0l1.01-4.43c-3.32-.76-6.77-.76-10.09,0l1.01,4.43ZM23.79,7.88V3.68h-4.54v4.2h4.54ZM15.85,9.85l-3.63-2.1-2.27,3.93,3.63,2.1,2.27-3.93ZM9.04,25.57l-3.63,2.1,2.27,3.93,3.63-2.1-2.27-3.93ZM11.31,17.71l-3.63-2.09-2.27,3.93,3.63,2.09,2.27-3.93ZM23.79,43.52v-4.19h-4.54v4.19h4.54ZM13.58,33.43l-3.63,2.1,2.27,3.93,3.63-2.1-2.27-3.93ZM42.18,35.53l-3.63-2.1-2.27,3.93,3.63,2.1,2.27-3.93ZM32.87,43.52v-4.2h-4.54v4.2h4.54ZM44.45,15.61l-3.63,2.1,2.27,3.93,3.63-2.1-2.27-3.93ZM46.71,27.66l-3.63-2.09-2.27,3.93,3.63,2.09,2.27-3.93ZM32.87,7.88V3.69h-4.54v4.19h4.54ZM39.91,7.75l-3.63,2.1,2.27,3.93,3.63-2.1-2.27-3.93ZM28.33,7.88c0,5.24,5.67,8.52,10.21,5.9l-2.27-3.93c-.34.2-.74.3-1.13.3-.4,0-.79-.1-1.13-.3-.35-.2-.63-.49-.83-.83-.2-.35-.3-.74-.3-1.13h-4.54ZM40.82,17.71c-4.54,2.62-4.54,9.17,0,11.79l2.27-3.93c-.35-.2-.63-.49-.83-.83-.2-.35-.3-.74-.3-1.13s.1-.79.3-1.13.49-.63.83-.83l-2.27-3.93ZM38.55,33.43c-4.54-2.62-10.21.66-10.21,5.9h4.54c0-.4.1-.79.3-1.13.2-.35.49-.63.83-.83.34-.2.74-.3,1.13-.3s.79.1,1.13.3l2.27-3.93ZM23.79,39.33c0-5.24-5.67-8.52-10.21-5.9l2.27,3.93c.35-.2.74-.3,1.14-.3s.79.1,1.13.3c.35.2.63.49.83.83.2.35.3.74.3,1.13h4.54ZM11.31,29.5c4.54-2.62,4.54-9.17,0-11.79l-2.27,3.93c.34.2.63.49.83.83.2.34.3.74.3,1.13s-.1.79-.3,1.13c-.2.34-.49.63-.83.83l2.27,3.93ZM19.25,7.88c0,.4-.1.79-.3,1.13-.2.35-.49.63-.83.83-.34.2-.74.3-1.13.3-.4,0-.79-.1-1.13-.3l-2.27,3.93c4.54,2.62,10.21-.66,10.21-5.9h-4.54Z"/>
</svg>