<?xml version="1.0" encoding="UTF-8"?>
<svg id="Layer_1" data-name="Layer 1" xmlns="http://www.w3.org/2000/svg" viewBox="0 0 52 47">
  <defs>
    <style>
      .cls-1 {
        fill: #cb8b35;
        isolation: isolate;
        opacity: .16;
        stroke-width: 0px;
      }

      .cls-2 {
        fill: none;
        stroke: #cb8b35;
        stroke-linejoin: round;
        stroke-width: 4.54px;
      }
    </style>
  </defs>
  <path class="cls-1" d="M3.36,29.28c0,1.34.26,2.67.78,3.91.51,1.24,1.27,2.37,2.21,3.31,1.92,1.92,4.51,2.99,7.22,2.99h27.24c2.01,0,3.95-.76,5.42-2.12,1.47-1.37,2.37-3.25,2.52-5.25.14-2.01-.48-3.99-1.74-5.56-1.26-1.57-3.07-2.59-5.06-2.88.02-3.86-1.36-7.6-3.9-10.51-2.53-2.91-6.04-4.81-9.87-5.32-3.83-.52-7.71.38-10.92,2.52-3.21,2.14-5.54,5.38-6.54,9.1-2.12.62-3.99,1.91-5.31,3.68-1.33,1.77-2.04,3.92-2.04,6.13Z"/>
  <path class="cls-2" d="M3.36,29.28c0,1.34.26,2.67.78,3.91.51,1.24,1.27,2.37,2.21,3.31,1.92,1.92,4.51,2.99,7.22,2.99h27.24c2.01,0,3.95-.76,5.42-2.12,1.47-1.37,2.37-3.25,2.52-5.25.14-2.01-.48-3.99-1.74-5.56-1.26-1.57-3.07-2.59-5.06-2.88.02-3.86-1.36-7.6-3.9-10.51-2.53-2.91-6.04-4.81-9.87-5.32-3.83-.52-7.71.38-10.92,2.52-3.21,2.14-5.54,5.38-6.54,9.1-2.12.62-3.99,1.91-5.31,3.68-1.33,1.77-2.04,3.92-2.04,6.13Z"/>
</svg>