<?xml version="1.0" encoding="UTF-8"?>
<svg id="Layer_1" data-name="Layer 1" xmlns="http://www.w3.org/2000/svg" xmlns:xlink="http://www.w3.org/1999/xlink" viewBox="0 0 284.03 34.06">
  <defs>
    <style>
      .cls-1, .cls-2, .cls-3, .cls-4 {
        stroke-width: 0px;
      }

      .cls-2 {
        fill: #1e384d;
      }

      .cls-3 {
        fill: #fff;
      }

      .cls-4 {
        fill: #cb8b35;
      }

      .cls-5 {
        mask: url(#mask);
      }
    </style>
    <mask id="mask" x="-.65" y="-.32" width="285" height="35" maskUnits="userSpaceOnUse">
      <g id="path-1-outside-1_12_784" data-name="path-1-outside-1 12 784">
        <rect class="cls-3" x="-.65" y="-.32" width="285" height="35"/>
        <path class="cls-1" d="M10.14,30.68h-5.93L13.25,4.5h7.13l9.03,26.18h-5.93l-6.56-20.2h-.2l-6.57,20.2ZM9.77,20.39h14.01v4.32h-14.01v-4.32ZM40.41,31.06c-2.01,0-3.74-.43-5.19-1.28-1.44-.86-2.55-2.05-3.32-3.58-.77-1.53-1.15-3.28-1.15-5.27s.39-3.78,1.16-5.29c.78-1.53,1.9-2.71,3.34-3.57,1.44-.86,3.15-1.29,5.14-1.29,1.71,0,3.21.31,4.5.93s2.31,1.5,3.06,2.62,1.16,2.45,1.24,3.96h-5.14c-.14-.98-.53-1.77-1.15-2.37-.61-.61-1.42-.91-2.42-.91-.84,0-1.58.23-2.21.69-.62.45-1.11,1.11-1.46,1.98-.35.87-.52,1.92-.52,3.16s.17,2.32.51,3.2c.35.88.84,1.55,1.47,2.01.63.46,1.37.69,2.21.69.62,0,1.18-.13,1.67-.38.5-.26.92-.63,1.24-1.11.33-.49.55-1.09.65-1.78h5.14c-.09,1.5-.49,2.82-1.23,3.96-.72,1.13-1.73,2.02-3,2.66s-2.79.96-4.54.96ZM63.12,11.04v4.09h-11.83v-4.09h11.83ZM53.97,6.34h5.45v18.31c0,.5.08.89.23,1.18.15.27.37.46.64.58.28.11.61.17.97.17.26,0,.51-.02.77-.06.26-.05.45-.09.59-.12l.86,4.05c-.27.09-.66.18-1.15.29-.49.12-1.1.19-1.8.22-1.31.05-2.46-.12-3.45-.52-.98-.4-1.74-1.02-2.29-1.87-.55-.84-.81-1.91-.81-3.2V6.34ZM66.66,30.68V11.04h5.45v19.64h-5.45ZM69.4,8.51c-.81,0-1.5-.27-2.08-.81-.57-.55-.86-1.2-.86-1.96s.29-1.39.86-1.93c.58-.55,1.27-.82,2.08-.82s1.5.27,2.07.82c.58.54.87,1.18.87,1.93s-.29,1.41-.87,1.96c-.57.54-1.26.81-2.07.81ZM94.78,11.04l-6.86,19.64h-6.14l-6.87-19.64h5.75l4.08,14.05h.2l4.07-14.05h5.77ZM105.88,31.06c-2.02,0-3.76-.41-5.22-1.23-1.45-.83-2.57-1.99-3.35-3.5-.78-1.52-1.18-3.31-1.18-5.38s.39-3.79,1.18-5.32c.78-1.53,1.89-2.71,3.31-3.57,1.43-.85,3.11-1.28,5.04-1.28,1.3,0,2.5.21,3.62.63,1.12.41,2.1,1.03,2.94,1.85.84.83,1.5,1.87,1.97,3.12.47,1.24.7,2.7.7,4.37v1.5h-16.58v-3.38h11.45c0-.78-.17-1.48-.51-2.08-.34-.61-.81-1.08-1.42-1.42-.6-.35-1.29-.52-2.08-.52s-1.56.19-2.2.58c-.63.38-1.13.88-1.48,1.52-.36.63-.54,1.33-.55,2.11v3.21c0,.97.18,1.81.54,2.52.37.71.88,1.25,1.55,1.64.67.38,1.45.58,2.36.58.61,0,1.16-.09,1.66-.26s.93-.43,1.29-.77c.36-.34.63-.76.82-1.25l5.04.33c-.26,1.21-.78,2.27-1.57,3.17-.78.89-1.8,1.59-3.04,2.1-1.24.49-2.66.74-4.28.74ZM126.88,4.5h6.83l7.21,17.59h.31l7.21-17.59h6.83v26.18h-5.37V13.64h-.22l-6.78,16.91h-3.66l-6.78-16.98h-.22v17.11h-5.37V4.5ZM159.72,30.68V11.04h5.45v19.64h-5.45ZM162.46,8.51c-.81,0-1.5-.27-2.08-.81-.57-.55-.86-1.2-.86-1.96s.29-1.39.86-1.93c.58-.55,1.27-.82,2.08-.82s1.5.27,2.07.82c.58.54.87,1.18.87,1.93s-.29,1.41-.87,1.96c-.57.54-1.26.81-2.07.81ZM185.87,16.64l-4.99.31c-.09-.43-.27-.81-.55-1.15-.28-.35-.65-.63-1.11-.83-.45-.21-.99-.32-1.62-.32-.84,0-1.56.18-2.14.54-.58.35-.87.82-.87,1.41,0,.47.19.87.56,1.19.38.32,1.02.58,1.93.78l3.55.72c1.91.39,3.33,1.02,4.27,1.89.94.87,1.41,2.01,1.41,3.43,0,1.29-.38,2.42-1.14,3.39-.75.97-1.78,1.73-3.09,2.28-1.3.54-2.81.81-4.51.81-2.6,0-4.67-.54-6.21-1.62-1.53-1.09-2.43-2.57-2.7-4.45l5.36-.28c.16.79.55,1.4,1.18,1.82.62.41,1.42.61,2.39.61s1.72-.18,2.3-.55c.59-.38.89-.86.9-1.44,0-.49-.22-.9-.63-1.21-.41-.32-1.04-.57-1.89-.74l-3.4-.68c-1.92-.38-3.35-1.05-4.28-1.99-.93-.95-1.39-2.15-1.39-3.62,0-1.26.34-2.35,1.02-3.26.69-.91,1.66-1.62,2.9-2.11,1.25-.49,2.72-.74,4.4-.74,2.48,0,4.43.52,5.86,1.57,1.43,1.05,2.27,2.48,2.51,4.28ZM206.08,16.64l-4.99.31c-.09-.43-.27-.81-.55-1.15-.28-.35-.65-.63-1.11-.83-.45-.21-.99-.32-1.62-.32-.84,0-1.56.18-2.13.54-.58.35-.87.82-.87,1.41,0,.47.19.87.56,1.19.38.32,1.02.58,1.93.78l3.55.72c1.91.39,3.33,1.02,4.27,1.89.94.87,1.41,2.01,1.41,3.43,0,1.29-.38,2.42-1.14,3.39-.75.97-1.78,1.73-3.09,2.28-1.3.54-2.81.81-4.51.81-2.6,0-4.67-.54-6.21-1.62-1.53-1.09-2.43-2.57-2.7-4.45l5.36-.28c.16.79.55,1.4,1.18,1.82.62.41,1.42.61,2.39.61s1.72-.18,2.3-.55c.59-.38.89-.86.9-1.44,0-.49-.22-.9-.63-1.21-.41-.32-1.04-.57-1.89-.74l-3.4-.68c-1.92-.38-3.35-1.05-4.28-1.99-.93-.95-1.39-2.15-1.39-3.62,0-1.26.34-2.35,1.02-3.26.69-.91,1.66-1.62,2.9-2.11,1.25-.49,2.72-.74,4.4-.74,2.48,0,4.43.52,5.85,1.57,1.43,1.05,2.27,2.48,2.51,4.28ZM209.96,30.68V11.04h5.45v19.64h-5.45ZM212.7,8.51c-.81,0-1.51-.27-2.08-.81-.57-.55-.86-1.2-.86-1.96s.29-1.39.86-1.93c.58-.55,1.27-.82,2.08-.82s1.5.27,2.07.82c.58.54.87,1.18.87,1.93s-.29,1.41-.87,1.96c-.57.54-1.26.81-2.07.81ZM228.64,31.06c-1.99,0-3.7-.42-5.15-1.27-1.44-.85-2.55-2.04-3.34-3.55-.78-1.53-1.18-3.29-1.18-5.31s.39-3.8,1.18-5.32c.78-1.53,1.9-2.71,3.34-3.55,1.45-.85,3.17-1.28,5.15-1.28s3.7.43,5.14,1.28c1.45.84,2.57,2.03,3.35,3.55.78,1.52,1.18,3.29,1.18,5.32s-.39,3.78-1.18,5.31c-.78,1.52-1.9,2.7-3.35,3.55-1.44.84-3.15,1.27-5.14,1.27ZM228.67,26.84c.9,0,1.66-.26,2.26-.77.6-.52,1.06-1.23,1.37-2.12.32-.89.47-1.91.47-3.06s-.16-2.16-.47-3.06c-.31-.89-.76-1.6-1.37-2.12-.61-.52-1.36-.78-2.26-.78s-1.68.26-2.3.78c-.61.52-1.08,1.23-1.39,2.12-.31.89-.46,1.91-.46,3.06s.15,2.16.46,3.06c.32.89.78,1.6,1.39,2.12.62.51,1.39.77,2.3.77ZM247.29,19.33v11.35h-5.45V11.04h5.19v3.46h.23c.43-1.14,1.16-2.05,2.19-2.71,1.02-.67,2.26-1.01,3.72-1.01,1.36,0,2.55.3,3.57.89,1.01.6,1.8,1.45,2.37,2.56.56,1.1.84,2.41.84,3.94v12.5h-5.45v-11.53c0-1.2-.3-2.14-.92-2.81-.62-.68-1.48-1.02-2.57-1.02-.73,0-1.38.16-1.94.47-.55.32-.99.78-1.3,1.38-.31.6-.46,1.32-.47,2.16ZM280.58,16.64l-4.99.31c-.08-.43-.27-.81-.55-1.15-.28-.35-.65-.63-1.11-.83-.45-.21-.99-.32-1.62-.32-.84,0-1.55.18-2.13.54-.58.35-.87.82-.87,1.41,0,.47.19.87.56,1.19.38.32,1.02.58,1.93.78l3.55.72c1.91.39,3.33,1.02,4.27,1.89.94.87,1.41,2.01,1.41,3.43,0,1.29-.38,2.42-1.14,3.39-.75.97-1.78,1.73-3.09,2.28-1.3.54-2.81.81-4.51.81-2.6,0-4.67-.54-6.21-1.62-1.53-1.09-2.43-2.57-2.7-4.45l5.36-.28c.16.79.55,1.4,1.18,1.82.62.41,1.42.61,2.39.61s1.72-.18,2.3-.55c.59-.38.89-.86.89-1.44,0-.49-.22-.9-.63-1.21-.41-.32-1.04-.57-1.89-.74l-3.4-.68c-1.92-.38-3.35-1.05-4.28-1.99-.93-.95-1.39-2.15-1.39-3.62,0-1.26.34-2.35,1.02-3.26.69-.91,1.66-1.62,2.9-2.11,1.25-.49,2.72-.74,4.4-.74,2.48,0,4.43.52,5.86,1.57,1.43,1.05,2.27,2.48,2.51,4.28Z"/>
      </g>
    </mask>
  </defs>
  <path class="cls-4" d="M10.14,30.68h-5.93L13.25,4.5h7.13l9.03,26.18h-5.93l-6.56-20.2h-.2l-6.57,20.2ZM9.77,20.39h14.01v4.32h-14.01v-4.32ZM40.41,31.06c-2.01,0-3.74-.43-5.19-1.28-1.44-.86-2.55-2.05-3.32-3.58-.77-1.53-1.15-3.28-1.15-5.27s.39-3.78,1.16-5.29c.78-1.53,1.9-2.71,3.34-3.57,1.44-.86,3.15-1.29,5.14-1.29,1.71,0,3.21.31,4.5.93s2.31,1.5,3.06,2.62,1.16,2.45,1.24,3.96h-5.14c-.14-.98-.53-1.77-1.15-2.37-.61-.61-1.42-.91-2.42-.91-.84,0-1.58.23-2.21.69-.62.45-1.11,1.11-1.46,1.98-.35.87-.52,1.92-.52,3.16s.17,2.32.51,3.2c.35.88.84,1.55,1.47,2.01.63.46,1.37.69,2.21.69.62,0,1.18-.13,1.67-.38.5-.26.92-.63,1.24-1.11.33-.49.55-1.09.65-1.78h5.14c-.09,1.5-.49,2.82-1.23,3.96-.72,1.13-1.73,2.02-3,2.66s-2.79.96-4.54.96ZM63.12,11.04v4.09h-11.83v-4.09h11.83ZM53.97,6.34h5.45v18.31c0,.5.08.89.23,1.18.15.27.37.46.64.58.28.11.61.17.97.17.26,0,.51-.02.77-.06.26-.05.45-.09.59-.12l.86,4.05c-.27.09-.66.18-1.15.29-.49.12-1.1.19-1.8.22-1.31.05-2.46-.12-3.45-.52-.98-.4-1.74-1.02-2.29-1.87-.55-.84-.81-1.91-.81-3.2V6.34ZM66.66,30.68V11.04h5.45v19.64h-5.45ZM69.4,8.51c-.81,0-1.5-.27-2.08-.81-.57-.55-.86-1.2-.86-1.96s.29-1.39.86-1.93c.58-.55,1.27-.82,2.08-.82s1.5.27,2.07.82c.58.54.87,1.18.87,1.93s-.29,1.41-.87,1.96c-.57.54-1.26.81-2.07.81ZM94.78,11.04l-6.86,19.64h-6.14l-6.87-19.64h5.75l4.08,14.05h.2l4.07-14.05h5.77ZM105.88,31.06c-2.02,0-3.76-.41-5.22-1.23-1.45-.83-2.57-1.99-3.35-3.5-.78-1.52-1.18-3.31-1.18-5.38s.39-3.79,1.18-5.32c.78-1.53,1.89-2.71,3.31-3.57,1.43-.85,3.11-1.28,5.04-1.28,1.3,0,2.5.21,3.62.63,1.12.41,2.1,1.03,2.94,1.85.84.83,1.5,1.87,1.97,3.12.47,1.24.7,2.7.7,4.37v1.5h-16.58v-3.38h11.45c0-.78-.17-1.48-.51-2.08-.34-.61-.81-1.08-1.42-1.42-.6-.35-1.29-.52-2.08-.52s-1.56.19-2.2.58c-.63.38-1.13.88-1.48,1.52-.36.63-.54,1.33-.55,2.11v3.21c0,.97.18,1.81.54,2.52.37.71.88,1.25,1.55,1.64.67.38,1.45.58,2.36.58.61,0,1.16-.09,1.66-.26s.93-.43,1.29-.77c.36-.34.63-.76.82-1.25l5.04.33c-.26,1.21-.78,2.27-1.57,3.17-.78.89-1.8,1.59-3.04,2.1-1.24.49-2.66.74-4.28.74ZM126.88,4.5h6.83l7.21,17.59h.31l7.21-17.59h6.83v26.18h-5.37V13.64h-.22l-6.78,16.91h-3.66l-6.78-16.98h-.22v17.11h-5.37V4.5ZM159.72,30.68V11.04h5.45v19.64h-5.45ZM162.46,8.51c-.81,0-1.5-.27-2.08-.81-.57-.55-.86-1.2-.86-1.96s.29-1.39.86-1.93c.58-.55,1.27-.82,2.08-.82s1.5.27,2.07.82c.58.54.87,1.18.87,1.93s-.29,1.41-.87,1.96c-.57.54-1.26.81-2.07.81ZM185.87,16.64l-4.99.31c-.09-.43-.27-.81-.55-1.15-.28-.35-.65-.63-1.11-.83-.45-.21-.99-.32-1.62-.32-.84,0-1.56.18-2.14.54-.58.35-.87.82-.87,1.41,0,.47.19.87.56,1.19.38.32,1.02.58,1.93.78l3.55.72c1.91.39,3.33,1.02,4.27,1.89.94.87,1.41,2.01,1.41,3.43,0,1.29-.38,2.42-1.14,3.39-.75.97-1.78,1.73-3.09,2.28-1.3.54-2.81.81-4.51.81-2.6,0-4.67-.54-6.21-1.62-1.53-1.09-2.43-2.57-2.7-4.45l5.36-.28c.16.79.55,1.4,1.18,1.82.62.41,1.42.61,2.39.61s1.72-.18,2.3-.55c.59-.38.89-.86.9-1.44,0-.49-.22-.9-.63-1.21-.41-.32-1.04-.57-1.89-.74l-3.4-.68c-1.92-.38-3.35-1.05-4.28-1.99-.93-.95-1.39-2.15-1.39-3.62,0-1.26.34-2.35,1.02-3.26.69-.91,1.66-1.62,2.9-2.11,1.25-.49,2.72-.74,4.4-.74,2.48,0,4.43.52,5.86,1.57,1.43,1.05,2.27,2.48,2.51,4.28ZM206.08,16.64l-4.99.31c-.09-.43-.27-.81-.55-1.15-.28-.35-.65-.63-1.11-.83-.45-.21-.99-.32-1.62-.32-.84,0-1.56.18-2.13.54-.58.35-.87.82-.87,1.41,0,.47.19.87.56,1.19.38.32,1.02.58,1.93.78l3.55.72c1.91.39,3.33,1.02,4.27,1.89.94.87,1.41,2.01,1.41,3.43,0,1.29-.38,2.42-1.14,3.39-.75.97-1.78,1.73-3.09,2.28-1.3.54-2.81.81-4.51.81-2.6,0-4.67-.54-6.21-1.62-1.53-1.09-2.43-2.57-2.7-4.45l5.36-.28c.16.79.55,1.4,1.18,1.82.62.41,1.42.61,2.39.61s1.72-.18,2.3-.55c.59-.38.89-.86.9-1.44,0-.49-.22-.9-.63-1.21-.41-.32-1.04-.57-1.89-.74l-3.4-.68c-1.92-.38-3.35-1.05-4.28-1.99-.93-.95-1.39-2.15-1.39-3.62,0-1.26.34-2.35,1.02-3.26.69-.91,1.66-1.62,2.9-2.11,1.25-.49,2.72-.74,4.4-.74,2.48,0,4.43.52,5.85,1.57,1.43,1.05,2.27,2.48,2.51,4.28ZM209.96,30.68V11.04h5.45v19.64h-5.45ZM212.7,8.51c-.81,0-1.51-.27-2.08-.81-.57-.55-.86-1.2-.86-1.96s.29-1.39.86-1.93c.58-.55,1.27-.82,2.08-.82s1.5.27,2.07.82c.58.54.87,1.18.87,1.93s-.29,1.41-.87,1.96c-.57.54-1.26.81-2.07.81ZM228.64,31.06c-1.99,0-3.7-.42-5.15-1.27-1.44-.85-2.55-2.04-3.34-3.55-.78-1.53-1.18-3.29-1.18-5.31s.39-3.8,1.18-5.32c.78-1.53,1.9-2.71,3.34-3.55,1.45-.85,3.17-1.28,5.15-1.28s3.7.43,5.14,1.28c1.45.84,2.57,2.03,3.35,3.55.78,1.52,1.18,3.29,1.18,5.32s-.39,3.78-1.18,5.31c-.78,1.52-1.9,2.7-3.35,3.55-1.44.84-3.15,1.27-5.14,1.27ZM228.67,26.84c.9,0,1.66-.26,2.26-.77.6-.52,1.06-1.23,1.37-2.12.32-.89.47-1.91.47-3.06s-.16-2.16-.47-3.06c-.31-.89-.76-1.6-1.37-2.12-.61-.52-1.36-.78-2.26-.78s-1.68.26-2.3.78c-.61.52-1.08,1.23-1.39,2.12-.31.89-.46,1.91-.46,3.06s.15,2.16.46,3.06c.32.89.78,1.6,1.39,2.12.62.51,1.39.77,2.3.77ZM247.29,19.33v11.35h-5.45V11.04h5.19v3.46h.23c.43-1.14,1.16-2.05,2.19-2.71,1.02-.67,2.26-1.01,3.72-1.01,1.36,0,2.55.3,3.57.89,1.01.6,1.8,1.45,2.37,2.56.56,1.1.84,2.41.84,3.94v12.5h-5.45v-11.53c0-1.2-.3-2.14-.92-2.81-.62-.68-1.48-1.02-2.57-1.02-.73,0-1.38.16-1.94.47-.55.32-.99.78-1.3,1.38-.31.6-.46,1.32-.47,2.16ZM280.58,16.64l-4.99.31c-.08-.43-.27-.81-.55-1.15-.28-.35-.65-.63-1.11-.83-.45-.21-.99-.32-1.62-.32-.84,0-1.55.18-2.13.54-.58.35-.87.82-.87,1.41,0,.47.19.87.56,1.19.38.32,1.02.58,1.93.78l3.55.72c1.91.39,3.33,1.02,4.27,1.89.94.87,1.41,2.01,1.41,3.43,0,1.29-.38,2.42-1.14,3.39-.75.97-1.78,1.73-3.09,2.28-1.3.54-2.81.81-4.51.81-2.6,0-4.67-.54-6.21-1.62-1.53-1.09-2.43-2.57-2.7-4.45l5.36-.28c.16.79.55,1.4,1.18,1.82.62.41,1.42.61,2.39.61s1.72-.18,2.3-.55c.59-.38.89-.86.89-1.44,0-.49-.22-.9-.63-1.21-.41-.32-1.04-.57-1.89-.74l-3.4-.68c-1.92-.38-3.35-1.05-4.28-1.99-.93-.95-1.39-2.15-1.39-3.62,0-1.26.34-2.35,1.02-3.26.69-.91,1.66-1.62,2.9-2.11,1.25-.49,2.72-.74,4.4-.74,2.48,0,4.43.52,5.86,1.57,1.43,1.05,2.27,2.48,2.51,4.28Z"/>
  <g class="cls-5">
    <path class="cls-2" d="M10.14,30.68v3h2.18l.67-2.07-2.85-.93ZM4.21,30.68l-2.84-.98-1.37,3.98h4.21v-3ZM13.25,4.5V1.5h-2.14l-.7,2.02,2.84.98ZM20.38,4.5l2.84-.98-.7-2.02h-2.14v3ZM29.41,30.68v3h4.21l-1.37-3.98-2.84.98ZM23.48,30.68l-2.85.93.67,2.07h2.18v-3ZM16.92,10.48l2.85-.93-.67-2.07h-2.18v3ZM16.71,10.48v-3h-2.18l-.67,2.07,2.85.93ZM9.77,20.39v-3h-3v3h3ZM23.78,20.39h3v-3h-3v3ZM23.78,24.71v3h3v-3h-3ZM9.77,24.71h-3v3h3v-3ZM10.14,27.68h-5.93v6h5.93v-6ZM7.05,31.66L16.08,5.47l-5.67-1.96L1.37,29.7l5.67,1.96ZM13.25,7.5h7.13V1.5h-7.13v6ZM17.55,5.47l9.03,26.18,5.67-1.96L23.22,3.52l-5.67,1.96ZM29.41,27.68h-5.93v6h5.93v-6ZM26.33,29.75l-6.56-20.2-5.71,1.85,6.56,20.2,5.71-1.85ZM16.92,7.48h-.2v6h.2v-6ZM13.86,9.55l-6.57,20.2,5.71,1.86,6.57-20.2-5.71-1.86ZM9.77,23.39h14.01v-6h-14.01v6ZM20.78,20.39v4.32h6v-4.32h-6ZM23.78,21.71h-14.01v6h14.01v-6ZM12.77,24.71v-4.32h-6v4.32h6ZM35.22,29.78l-1.54,2.58h0s0,.01,0,.01l1.52-2.59ZM31.9,26.2l-2.68,1.35h0s2.67-1.35,2.67-1.35ZM31.91,15.64l-2.67-1.37h0s2.67,1.37,2.67,1.37ZM35.25,12.08l1.53,2.58h.01s-1.54-2.58-1.54-2.58ZM44.89,11.72l1.31-2.7h0l-1.31,2.7ZM49.18,18.3v3h3.16l-.16-3.15-3,.15ZM44.04,18.3l-2.97.44.38,2.56h2.59v-3ZM42.89,15.94l-2.11,2.14h.01s.02.03.02.03l2.08-2.17ZM38.27,15.72l1.76,2.43h0s-1.77-2.43-1.77-2.43ZM36.8,24.06l-2.8,1.09h0s0,.02,0,.02l2.79-1.11ZM38.27,26.06l1.77-2.42h0l-1.77,2.42ZM42.15,26.37l-1.36-2.67h0s0,0,0,0l1.38,2.66ZM43.39,25.26l-2.49-1.67h0s2.5,1.67,2.5,1.67ZM44.04,23.48v-3h-2.59l-.38,2.56,2.97.44ZM49.18,23.48l3,.17.18-3.17h-3.18v3ZM47.96,27.44l-2.52-1.62h0s2.53,1.62,2.53,1.62ZM44.95,30.1l-1.34-2.68h0l1.34,2.68ZM40.41,28.06c-1.58,0-2.76-.33-3.67-.86l-3.04,5.17c1.99,1.17,4.27,1.69,6.71,1.69v-6ZM36.76,27.21c-.94-.56-1.66-1.33-2.19-2.36l-5.35,2.72c1.03,2.02,2.52,3.64,4.46,4.8l3.08-5.15ZM34.58,24.86c-.53-1.04-.83-2.33-.83-3.92h-6c0,2.38.46,4.61,1.47,6.61l5.36-2.7ZM33.75,20.94c0-1.62.31-2.9.83-3.93l-5.34-2.73c-1.03,2.01-1.49,4.26-1.49,6.66h6ZM34.58,17.01c.53-1.04,1.26-1.8,2.2-2.36l-3.06-5.16c-1.94,1.15-3.44,2.76-4.48,4.78l5.34,2.74ZM36.79,14.65c.9-.54,2.06-.87,3.6-.87v-6c-2.43,0-4.69.53-6.68,1.72l3.08,5.15ZM40.39,13.79c1.35,0,2.39.24,3.19.63l2.61-5.4c-1.77-.85-3.73-1.23-5.81-1.23v6ZM43.58,14.42c.83.4,1.43.93,1.86,1.58l4.99-3.33c-1.06-1.6-2.51-2.82-4.25-3.66l-2.61,5.4ZM45.45,16c.41.62.69,1.41.74,2.45l5.99-.3c-.1-1.99-.65-3.85-1.74-5.48l-4.99,3.33ZM49.18,15.3h-5.14v6h5.14v-6ZM47.01,17.86c-.23-1.54-.87-2.97-2.04-4.09l-4.15,4.33c.07.07.2.21.26.64l5.94-.88ZM45,13.8c-1.26-1.25-2.87-1.77-4.52-1.77v6c.19,0,.28.03.3.04,0,0,0,0,0,0,0,0,0,0,0,0l4.21-4.27ZM40.48,12.03c-1.43,0-2.79.4-3.98,1.27l3.54,4.85c.08-.05.18-.11.44-.11v-6ZM36.5,13.29c-1.17.85-1.96,2.01-2.48,3.29l5.57,2.24c.19-.46.36-.62.44-.67l-3.53-4.86ZM34.03,16.58c-.53,1.32-.74,2.77-.74,4.28h6c0-.97.14-1.62.31-2.04l-5.57-2.24ZM33.28,20.86c0,1.51.2,2.96.71,4.28l5.59-2.17c-.17-.44-.31-1.11-.31-2.11h-6ZM34.01,25.16c.51,1.29,1.31,2.46,2.49,3.32l3.54-4.85c-.09-.06-.27-.23-.45-.69l-5.57,2.22ZM36.5,28.49c1.19.87,2.55,1.27,3.98,1.27v-6c-.26,0-.37-.06-.44-.11l-3.54,4.85ZM40.48,29.75c1.04,0,2.08-.22,3.05-.72l-2.76-5.33s-.1.05-.3.05v6ZM43.51,29.04c.98-.5,1.78-1.22,2.38-2.12l-4.99-3.33c-.05.07-.08.09-.1.1l2.72,5.35ZM45.88,26.93c.62-.92.97-1.95,1.13-3.01l-5.94-.88c-.05.32-.13.48-.17.54l4.98,3.35ZM44.04,26.48h5.14v-6h-5.14v6ZM46.19,23.31c-.06,1.04-.33,1.85-.76,2.51l5.05,3.24c1.04-1.62,1.59-3.45,1.7-5.41l-5.99-.34ZM45.43,25.83c-.41.65-.99,1.18-1.82,1.59l2.68,5.37c1.73-.87,3.16-2.11,4.19-3.73l-5.06-3.23ZM43.61,27.42c-.78.39-1.81.64-3.2.64v6c2.11,0,4.1-.39,5.88-1.28l-2.68-5.37ZM63.12,11.04h3v-3h-3v3ZM63.12,15.13v3h3v-3h-3ZM51.29,15.13h-3v3h3v-3ZM51.29,11.04v-3h-3v3h3ZM53.97,6.34v-3h-3v3h3ZM59.42,6.34h3v-3h-3v3ZM59.65,25.82l-2.63,1.44v.02s.02.02.02.02l2.61-1.47ZM60.29,26.39l-1.13,2.78h.01s.01.01.01.01l1.1-2.79ZM62.03,26.5l.49,2.96h.05s.05-.02.05-.02l-.59-2.94ZM62.62,26.38l2.94-.62-.61-2.87-2.88.54.55,2.95ZM63.47,30.43l.89,2.86,2.6-.81-.56-2.67-2.94.62ZM62.32,30.73l-.66-2.93h-.02s-.02.01-.02.01l.7,2.92ZM60.52,30.95l-.11-3h0s.12,3,.12,3ZM57.07,30.42l-1.13,2.78h0s1.13-2.78,1.13-2.78ZM54.78,28.56l2.52-1.63-2.52,1.63ZM53.97,25.36l3,.02h0v-.02h-3ZM60.12,11.04v4.09h6v-4.09h-6ZM63.12,12.13h-11.83v6h11.83v-6ZM54.29,15.13v-4.09h-6v4.09h6ZM51.29,14.04h11.83v-6h-11.83v6ZM53.97,9.34h5.45V3.34h-5.45v6ZM56.42,6.34v18.31h6V6.34h-6ZM56.42,24.64c0,.75.1,1.71.6,2.61l5.27-2.87c.1.19.13.32.14.36,0,.04,0,.01,0-.1h-6ZM57.04,27.29c.46.82,1.18,1.5,2.12,1.88l2.26-5.56c.18.07.35.18.51.32.16.14.26.29.33.41l-5.23,2.94ZM59.19,29.19c.7.27,1.41.37,2.07.37v-6c-.07,0,0-.01.13.04l-2.2,5.58ZM61.26,29.56c.42,0,.84-.04,1.26-.1l-.99-5.92c-.09.02-.19.02-.27.02v6ZM62.62,29.44c.25-.05.43-.09.55-.11l-1.11-5.9c-.15.03-.36.07-.62.12l1.18,5.88ZM59.68,27l.86,4.05,5.87-1.24-.86-4.05-5.87,1.24ZM62.58,27.57c-.16.05-.45.13-.91.23l1.31,5.85c.52-.12,1-.24,1.39-.36l-1.79-5.73ZM61.62,27.81c-.24.06-.63.11-1.21.14l.22,6c.84-.03,1.65-.12,2.4-.3l-1.41-5.83ZM60.4,27.95c-.98.04-1.69-.1-2.21-.31l-2.25,5.56c1.46.59,3.05.81,4.7.74l-.23-6ZM58.2,27.64c-.44-.18-.71-.42-.9-.72l-5.04,3.26c.9,1.39,2.16,2.4,3.67,3.01l2.27-5.55ZM57.3,26.93c-.15-.23-.33-.68-.32-1.55l-6-.04c-.01,1.71.34,3.39,1.29,4.84l5.04-3.26ZM56.97,25.36V6.34h-6v19.02h6ZM66.66,30.68h-3v3h3v-3ZM66.66,11.04v-3h-3v3h3ZM72.11,11.04h3v-3h-3v3ZM72.11,30.68v3h3v-3h-3ZM67.31,7.7l-2.07,2.17.02.02.02.02,2.04-2.2ZM67.31,3.82l2.06,2.19h0s-2.06-2.19-2.06-2.19ZM71.47,3.82l-2.07,2.17.02.02.02.02,2.04-2.2ZM71.47,7.7l2.06,2.19h0s-2.06-2.19-2.06-2.19ZM69.66,30.68V11.04h-6v19.64h6ZM66.66,14.04h5.45v-6h-5.45v6ZM69.11,11.04v19.64h6V11.04h-6ZM72.11,27.68h-5.45v6h5.45v-6ZM69.4,5.51s-.05,0-.06,0c0,0,0,0,.01,0,.01,0,.02,0,.02.01,0,0,0,0-.02-.02l-4.08,4.4c1.15,1.06,2.58,1.6,4.12,1.6v-6ZM69.39,5.54s0,0,.03.07c.02.03.03.07.03.1,0,.03,0,.05,0,.05h-6c0,1.62.65,3.04,1.78,4.13l4.14-4.34ZM69.46,5.75s0,.03,0,.06c0,.03-.02.07-.04.11-.04.08-.07.11-.04.08l-4.11-4.37c-1.14,1.08-1.8,2.5-1.8,4.12h6ZM69.37,6s.02-.02.02-.02c0,0,0,0,0,0,0,0-.01,0-.02,0,0,0-.01,0-.01,0,0,0,0,0,0,0,0,0,.02,0,.05,0V0c-1.56,0-2.99.55-4.14,1.63l4.11,4.37ZM69.4,6s.03,0,.04,0c0,0,.01,0,.01,0,0,0,0,0,0,0,0,0-.01,0-.02,0,0,0-.01,0-.02,0,0,0-.01,0-.01,0,0,0,0,0,0,0,0,0,0,0,.01.01l4.14-4.34c-1.14-1.09-2.58-1.65-4.14-1.65v6ZM69.43,6.02s0,0-.04-.08c-.02-.04-.03-.08-.04-.12,0-.04,0-.06,0-.07h6c0-1.63-.67-3.06-1.83-4.13l-4.08,4.4ZM69.34,5.75s0-.02,0-.05c0-.03.02-.07.03-.11.03-.08.07-.1.03-.07l4.11,4.37c1.15-1.08,1.81-2.51,1.81-4.14h-6ZM69.41,5.52s-.01,0-.01.01c0,0,0,0,0,0,0,0,0,0,.01,0,0,0,.01,0,.02,0,0,0,.01,0,.02,0,0,0,0,0,0,0,0,0-.02,0-.06,0v6c1.55,0,2.98-.54,4.13-1.62l-4.11-4.37ZM94.78,11.04l2.83.99,1.39-3.99h-4.23v3ZM87.91,30.68v3h2.13l.7-2.01-2.83-.99ZM81.78,30.68l-2.83.99.7,2.01h2.13v-3ZM74.91,11.04v-3h-4.23l1.39,3.99,2.83-.99ZM80.66,11.04l2.88-.84-.63-2.16h-2.25v3ZM84.74,25.09l-2.88.84.63,2.16h2.25v-3ZM84.95,25.09v3h2.26l.63-2.17-2.88-.83ZM89.01,11.04v-3h-2.25l-.63,2.17,2.88.83ZM91.95,10.05l-6.87,19.64,5.66,1.98,6.86-19.64-5.66-1.98ZM87.91,27.68h-6.14v6h6.14v-6ZM84.61,29.69l-6.86-19.64-5.66,1.98,6.87,19.64,5.66-1.98ZM74.91,14.04h5.75v-6h-5.75v6ZM77.78,11.88l4.08,14.05,5.76-1.67-4.08-14.05-5.76,1.67ZM84.74,28.09h.2v-6h-.2v6ZM87.83,25.92l4.07-14.05-5.76-1.67-4.07,14.05,5.76,1.67ZM89.01,14.04h5.77v-6h-5.77v6ZM100.67,29.83l-1.49,2.61h0s0,.01,0,.01l1.47-2.62ZM97.32,26.33l-2.67,1.38h0s2.66-1.38,2.66-1.38ZM97.32,15.63l-2.67-1.37,2.67,1.37ZM100.63,12.06l-1.53-2.58h0s1.54,2.58,1.54,2.58ZM109.28,11.41l-1.05,2.81h.01s.01,0,.01,0l1.03-2.82ZM112.22,13.27l-2.11,2.13h0s0,.01,0,.01l2.1-2.14ZM114.19,16.38l-2.81,1.05h0s2.81-1.05,2.81-1.05ZM114.89,22.25v3h3v-3h-3ZM98.31,22.25h-3v3h3v-3ZM98.31,18.88v-3h-3v3h3ZM109.77,18.88v3h3v-3h-3ZM109.26,16.79l-2.61,1.47h0l2.61-1.47ZM107.84,15.37l-1.52,2.59h.02s.02.03.02.03l1.47-2.61ZM103.55,15.43l1.53,2.58h.01s-1.54-2.58-1.54-2.58ZM102.07,16.95l2.61,1.48h0s0-.02,0-.02l-2.62-1.47ZM101.52,19.06l-3-.03v.02s0,.02,0,.02h3ZM102.06,24.78l-2.68,1.35h0s0,.03,0,.03l2.66-1.38ZM107.63,26.74l-.96-2.84.96,2.84ZM108.92,25.97l-2.07-2.17h0l2.07,2.17ZM109.74,24.72l.2-2.99-2.21-.15-.79,2.08,2.81,1.06ZM114.78,25.05l2.93.62.72-3.39-3.45-.23-.2,2.99ZM113.21,28.22l-2.25-1.98h0s2.26,1.98,2.26,1.98ZM110.16,30.32l1.11,2.79h0s-1.12-2.79-1.12-2.79ZM105.88,28.06c-1.61,0-2.82-.32-3.75-.84l-2.94,5.23c1.99,1.12,4.26,1.61,6.68,1.61v-6ZM102.15,27.23c-.94-.54-1.65-1.27-2.17-2.28l-5.32,2.77c1.04,2.01,2.56,3.61,4.52,4.72l2.97-5.21ZM99.98,24.95c-.52-1.01-.84-2.31-.84-4h-6c0,2.45.46,4.74,1.51,6.76l5.33-2.75ZM99.14,20.95c0-1.63.31-2.91.84-3.95l-5.34-2.74c-1.04,2.02-1.51,4.28-1.51,6.69h6ZM99.98,17c.54-1.05,1.26-1.81,2.18-2.36l-3.08-5.15c-1.92,1.15-3.41,2.76-4.44,4.77l5.34,2.74ZM102.16,14.64c.9-.54,2.03-.86,3.5-.86v-6c-2.38,0-4.61.53-6.57,1.7l3.07,5.16ZM105.66,13.79c.97,0,1.82.15,2.57.44l2.1-5.62c-1.48-.55-3.05-.82-4.67-.82v6ZM108.26,14.23c.72.26,1.33.65,1.86,1.17l4.22-4.26c-1.15-1.14-2.5-1.99-4.03-2.54l-2.05,5.64ZM110.12,15.41c.49.48.92,1.13,1.26,2.03l5.62-2.1c-.6-1.61-1.48-3.04-2.68-4.21l-4.2,4.29ZM111.38,17.44c.31.83.51,1.92.51,3.31h6c0-1.94-.27-3.77-.9-5.43l-5.61,2.12ZM111.89,20.76v1.5h6v-1.5h-6ZM114.89,19.25h-16.58v6h16.58v-6ZM101.31,22.25v-3.38h-6v3.38h6ZM98.31,21.88h11.45v-6h-11.45v6ZM112.77,18.88c0-1.23-.27-2.45-.9-3.56l-5.23,2.95c.06.1.12.28.12.61h6ZM111.87,15.32c-.61-1.08-1.48-1.95-2.56-2.56l-2.94,5.23c.13.07.21.15.28.28l5.23-2.95ZM109.35,12.79c-1.12-.66-2.35-.94-3.6-.94v6c.34,0,.49.07.57.11l3.03-5.18ZM105.75,11.85c-1.31,0-2.59.31-3.74,1l3.09,5.15c.12-.07.31-.15.66-.15v-6ZM102.02,12.85c-1.08.64-1.95,1.53-2.57,2.63l5.23,2.93c.1-.18.22-.3.4-.41l-3.07-5.16ZM99.46,15.47c-.63,1.1-.93,2.31-.94,3.56l6,.07c0-.3.07-.5.16-.66l-5.22-2.96ZM98.52,19.06v3.21h6v-3.21h-6ZM98.52,22.27c0,1.34.25,2.66.86,3.87l5.35-2.71c-.1-.2-.21-.56-.21-1.16h-6ZM99.4,26.16c.62,1.2,1.53,2.17,2.71,2.85l3-5.2c-.15-.09-.27-.2-.38-.42l-5.33,2.76ZM102.11,29.02c1.2.69,2.53.98,3.86.98v-6c-.48,0-.74-.1-.87-.17l-3,5.2ZM105.97,30c.89,0,1.77-.13,2.62-.41l-1.93-5.68c-.15.05-.38.1-.7.1v6ZM108.6,29.58c.89-.3,1.7-.77,2.4-1.44l-4.14-4.34s-.06.06-.18.1l1.93,5.68ZM110.99,28.15c.71-.67,1.22-1.48,1.55-2.36l-5.61-2.13c-.04.1-.07.13-.08.14l4.14,4.34ZM109.54,27.71l5.04.33.4-5.99-5.04-.33-.39,5.99ZM111.84,24.43c-.15.72-.45,1.31-.89,1.81l4.51,3.96c1.14-1.3,1.89-2.83,2.25-4.53l-5.87-1.24ZM110.95,26.25c-.44.5-1.04.94-1.91,1.29l2.25,5.56c1.62-.66,3.04-1.61,4.18-2.9l-4.51-3.95ZM109.05,27.53c-.81.33-1.85.53-3.17.53v6c1.92,0,3.74-.29,5.4-.96l-2.23-5.57ZM126.88,4.5V1.5h-3v3h3ZM133.71,4.5l2.78-1.14-.76-1.86h-2.01v3ZM140.92,22.09l-2.77,1.14.76,1.86h2.01v-3ZM141.23,22.09v3h2.01l.76-1.86-2.78-1.14ZM148.44,4.5V1.5h-2.01l-.76,1.86,2.77,1.14ZM155.26,4.5h3V1.5h-3v3ZM155.26,30.68v3h3v-3h-3ZM149.89,30.68h-3v3h3v-3ZM149.89,13.64h3v-3h-3v3ZM149.68,13.64v-3h-2.03l-.76,1.88,2.79,1.12ZM142.9,30.55v3h2.03l.75-1.88-2.78-1.12ZM139.24,30.55l-2.79,1.11.75,1.89h2.03v-3ZM132.47,13.57l2.79-1.11-.75-1.89h-2.03v3ZM132.25,13.57v-3h-3v3h3ZM132.25,30.68v3h3v-3h-3ZM126.88,30.68h-3v3h3v-3ZM126.88,7.5h6.83V1.5h-6.83v6ZM130.93,5.63l7.21,17.59,5.55-2.28-7.21-17.59-5.55,2.28ZM140.92,25.09h.31v-6h-.31v6ZM144,23.22l7.21-17.59-5.55-2.28-7.21,17.59,5.55,2.28ZM148.44,7.5h6.83V1.5h-6.83v6ZM152.26,4.5v26.18h6V4.5h-6ZM155.26,27.68h-5.37v6h5.37v-6ZM152.89,30.68V13.64h-6v17.04h6ZM149.89,10.64h-.22v6h.22v-6ZM146.89,12.52l-6.78,16.91,5.57,2.23,6.78-16.91-5.57-2.23ZM142.9,27.55h-3.66v6h3.66v-6ZM142.03,29.44l-6.78-16.98-5.57,2.22,6.77,16.98,5.57-2.22ZM132.47,10.57h-.22v6h.22v-6ZM129.25,13.57v17.11h6V13.57h-6ZM132.25,27.68h-5.37v6h5.37v-6ZM129.88,30.68V4.5h-6v26.18h6ZM159.72,30.68h-3v3h3v-3ZM159.72,11.04v-3h-3v3h3ZM165.17,11.04h3v-3h-3v3ZM165.17,30.68v3h3v-3h-3ZM160.37,7.7l-2.07,2.17.02.02.02.02,2.04-2.2ZM160.37,3.82l2.06,2.19h0s-2.06-2.19-2.06-2.19ZM164.53,3.82l-2.07,2.17.02.02.02.02,2.04-2.2ZM164.53,7.7l2.05,2.19h0s-2.06-2.19-2.06-2.19ZM162.72,30.68V11.04h-6v19.64h6ZM159.72,14.04h5.45v-6h-5.45v6ZM162.17,11.04v19.64h6V11.04h-6ZM165.17,27.68h-5.45v6h5.45v-6ZM162.46,5.51s-.05,0-.06,0c0,0,0,0,.01,0,0,0,.02,0,.02.01,0,0,0,0-.02-.02l-4.08,4.4c1.15,1.06,2.58,1.6,4.12,1.6v-6ZM162.45,5.54s0,0,.03.07c.01.03.03.07.03.1,0,.03,0,.05,0,.05h-6c0,1.62.65,3.04,1.78,4.13l4.15-4.34ZM162.52,5.75s0,.03,0,.06c0,.03-.02.07-.04.11-.04.08-.07.11-.04.08l-4.11-4.37c-1.14,1.08-1.8,2.5-1.8,4.12h6ZM162.43,6s.02-.02.02-.02c0,0,0,0-.01,0,0,0,0,0-.01,0,0,0-.01,0-.01,0,0,0,0,0,0,0,0,0,.02,0,.05,0V0c-1.56,0-2.99.55-4.14,1.63l4.11,4.37ZM162.46,6s.03,0,.04,0c0,0,.01,0,.01,0,0,0,0,0,0,0,0,0-.01,0-.02,0,0,0-.01,0-.02,0,0,0-.01,0-.01,0,0,0,0,0,0,0,0,0,0,0,.01.01l4.15-4.34c-1.15-1.09-2.58-1.65-4.14-1.65v6ZM162.49,6.02s0,0-.04-.08c-.02-.04-.03-.08-.04-.12,0-.04,0-.06,0-.07h6c0-1.63-.68-3.06-1.83-4.13l-4.08,4.4ZM162.4,5.75s0-.02,0-.05c0-.03.02-.07.03-.11.04-.08.07-.1.03-.07l4.11,4.37c1.15-1.08,1.81-2.51,1.81-4.14h-6ZM162.47,5.52s-.01,0-.01.01c0,0,0,0,0,0,0,0,0,0,.01,0,0,0,.01,0,.02,0,0,0,.01,0,.01,0,0,0,0,0,0,0,0,0-.02,0-.06,0v6c1.55,0,2.98-.54,4.13-1.62l-4.11-4.37ZM185.87,16.64l.18,2.99,3.21-.2-.42-3.19-2.97.39ZM180.88,16.95l-2.94.59.51,2.57,2.61-.16-.18-2.99ZM180.33,15.8l-2.34,1.88h.01s.01.03.01.03l2.31-1.91ZM179.22,14.97l-1.28,2.71h.03s.03.03.03.03l1.22-2.74ZM175.46,15.18l1.55,2.57h.01s.01-.02.01-.02l-1.58-2.55ZM175.15,17.78l-1.96,2.27h0l1.96-2.27ZM177.09,18.56l-.63,2.93h.02s.02,0,.02,0l.59-2.94ZM180.64,19.27l.6-2.94h-.01s-.59,2.94-.59,2.94ZM184.91,21.17l-2.04,2.2,2.04-2.2ZM185.18,27.98l-2.36-1.85h0s0,.01,0,.01l2.38,1.83ZM182.08,30.26l1.14,2.77h0s-1.15-2.77-1.15-2.77ZM171.36,29.44l-1.74,2.44h0s0,.01,0,.01l1.72-2.46ZM168.66,24.99l-.16-3-3.27.17.46,3.24,2.97-.42ZM174.02,24.71l2.94-.6-.52-2.53-2.58.14.16,3ZM175.19,26.52l-1.67,2.49h.01s.01.02.01.02l1.65-2.51ZM179.88,26.59l1.6,2.54h0s-1.61-2.54-1.61-2.54ZM180.78,25.14l3,.04v-.05s0-.05,0-.05l-3,.05ZM180.15,23.93l-1.86,2.35h.01s.01.02.01.02l1.83-2.38ZM178.26,23.19l.59-2.94h0s-.59,2.94-.59,2.94ZM174.86,22.51l-.59,2.94h0s.59-2.94.59-2.94ZM170.58,20.51l-2.14,2.1h0s2.13-2.1,2.13-2.1ZM170.21,13.64l-2.39-1.81h0s0,.01,0,.01l2.4,1.8ZM173.11,11.53l-1.1-2.79h0s1.11,2.79,1.11,2.79ZM183.36,12.36l-1.78,2.42h0s1.77-2.42,1.77-2.42ZM185.68,13.65l-4.99.31.37,5.99,4.99-.31-.37-5.99ZM183.82,16.36c-.18-.92-.59-1.76-1.18-2.47l-4.63,3.82s-.03-.04-.04-.07c-.02-.04-.03-.07-.03-.1l5.88-1.18ZM182.67,13.92c-.62-.76-1.39-1.32-2.23-1.69l-2.44,5.48s.05.03.05.02c0,0-.01,0-.02-.02,0,0-.02-.02-.03-.03l4.67-3.76ZM180.5,12.25c-.94-.44-1.94-.61-2.9-.61v6c.3,0,.38.05.34.03l2.56-5.43ZM177.6,11.65c-1.27,0-2.56.27-3.71.98l3.15,5.1s.14-.09.56-.09v-6ZM173.91,12.61c-1.32.8-2.32,2.16-2.32,3.98h6c0,.22-.06.51-.23.78-.16.25-.32.36-.35.38l-3.1-5.14ZM171.59,16.59c0,1.4.61,2.6,1.6,3.46l3.92-4.54c.09.08.22.22.33.45.11.23.15.46.15.63h-6ZM173.19,20.05c.96.83,2.22,1.22,3.26,1.44l1.26-5.87c-.34-.07-.56-.14-.67-.19-.13-.05-.07-.05.07.07l-3.92,4.54ZM176.49,21.5l3.55.72,1.18-5.88-3.55-.72-1.18,5.88ZM180.04,22.21c1.63.34,2.46.8,2.83,1.15l4.08-4.4c-1.5-1.39-3.52-2.18-5.71-2.63l-1.21,5.88ZM182.87,23.37c.26.24.45.55.45,1.23h6c0-2.15-.75-4.13-2.37-5.63l-4.08,4.4ZM183.32,24.59c0,.65-.18,1.12-.5,1.54l4.73,3.69c1.19-1.52,1.77-3.31,1.77-5.23h-6ZM182.8,26.15c-.38.5-.96.96-1.87,1.34l2.3,5.54c1.72-.71,3.2-1.77,4.32-3.21l-4.75-3.67ZM180.94,27.48c-.88.36-1.98.58-3.37.58v6c2.02,0,3.92-.32,5.65-1.03l-2.28-5.55ZM177.57,28.06c-2.21,0-3.61-.46-4.49-1.08l-3.45,4.91c2.21,1.55,4.95,2.17,7.94,2.17v-6ZM173.1,26.99c-.86-.61-1.32-1.36-1.46-2.42l-5.94.84c.38,2.69,1.72,4.9,3.93,6.48l3.48-4.89ZM168.82,27.98l5.36-.28-.32-5.99-5.36.28.31,5.99ZM171.08,25.31c.31,1.5,1.11,2.81,2.44,3.71l3.34-4.98s.02.01.03.03c.02.02.04.04.05.06.01.02.02.04.02.04,0,0,0-.02-.01-.05l-5.88,1.2ZM173.54,29.03c1.24.82,2.66,1.11,4.04,1.11v-6c-.56,0-.74-.12-.74-.12l-3.3,5.01ZM177.58,30.14c1.31,0,2.69-.25,3.9-1.01l-3.21-5.07c.05-.03-.1.09-.7.09v6ZM181.5,29.12c1.26-.8,2.26-2.13,2.28-3.93l-6-.09c0-.23.07-.49.22-.73.07-.11.13-.19.19-.24.05-.05.09-.07.09-.07l3.23,5.06ZM183.78,25.09c-.03-1.45-.7-2.7-1.79-3.54l-3.66,4.75c-.1-.07-.25-.22-.37-.46-.12-.24-.17-.48-.17-.65l6-.1ZM182.02,21.58c-.95-.75-2.12-1.12-3.17-1.33l-1.18,5.88c.3.06.49.12.61.16.12.05.1.05.01-.01l3.72-4.7ZM178.85,20.24l-3.4-.68-1.17,5.88,3.4.68,1.17-5.88ZM175.45,19.57c-1.59-.32-2.38-.8-2.74-1.16l-4.26,4.22c1.51,1.53,3.58,2.38,5.82,2.82l1.18-5.88ZM172.72,18.41c-.32-.32-.53-.75-.53-1.52h-6c0,2.16.71,4.15,2.25,5.72l4.28-4.2ZM172.18,16.9c0-.69.17-1.13.43-1.46l-4.81-3.59c-1.11,1.49-1.62,3.22-1.62,5.06h6ZM172.6,15.45c.31-.41.79-.81,1.62-1.13l-2.21-5.58c-1.67.66-3.11,1.67-4.19,3.09l4.78,3.62ZM174.21,14.32c.83-.33,1.9-.53,3.3-.53v-6c-1.97,0-3.82.29-5.5.95l2.2,5.58ZM177.51,13.79c2.09,0,3.34.45,4.08.99l3.56-4.83c-2.11-1.55-4.76-2.16-7.63-2.16v6ZM181.59,14.78c.75.55,1.17,1.23,1.3,2.25l5.95-.79c-.34-2.59-1.6-4.76-3.71-6.31l-3.54,4.84ZM206.08,16.64l.18,2.99,3.21-.2-.42-3.19-2.97.39ZM201.1,16.95l-2.94.59.51,2.57,2.61-.16-.18-2.99ZM200.55,15.8l-2.34,1.88h.01s.01.03.01.03l2.32-1.91ZM199.43,14.97l-1.28,2.71h.03s.03.03.03.03l1.22-2.74ZM195.68,15.18l1.55,2.57h.01s.01-.02.01-.02l-1.58-2.55ZM195.37,17.78l-1.96,2.27h0l1.96-2.27ZM197.3,18.56l-.63,2.93h.02s.02,0,.02,0l.59-2.94ZM200.85,19.27l.6-2.94h-.01s-.59,2.94-.59,2.94ZM205.12,21.17l-2.04,2.2,2.04-2.2ZM205.39,27.98l-2.36-1.85h0s0,.01,0,.01l2.38,1.83ZM202.3,30.26l1.14,2.77h0s-1.15-2.77-1.15-2.77ZM191.57,29.44l-1.74,2.44h0s0,.01,0,.01l1.72-2.46ZM188.88,24.99l-.16-3-3.27.17.46,3.24,2.97-.42ZM194.23,24.71l2.94-.6-.52-2.53-2.58.14.16,3ZM195.41,26.52l-1.67,2.49h.01s.01.02.01.02l1.65-2.51ZM200.1,26.59l1.6,2.54h0s-1.61-2.54-1.61-2.54ZM200.99,25.14l3,.04v-.1l-3,.05ZM200.37,23.93l-1.86,2.35h.01s.01.02.01.02l1.83-2.38ZM198.48,23.19l.59-2.94h0s-.59,2.94-.59,2.94ZM195.08,22.51l-.59,2.94h0s.59-2.94.59-2.94ZM190.79,20.51l-2.14,2.1h0s2.13-2.1,2.13-2.1ZM190.42,13.64l-2.39-1.81h0s0,.01,0,.01l2.4,1.8ZM193.32,11.53l-1.1-2.79h0s1.11,2.79,1.11,2.79ZM203.58,12.36l-1.78,2.42h0s1.77-2.42,1.77-2.42ZM205.9,13.65l-4.99.31.37,5.99,4.99-.31-.37-5.99ZM204.04,16.36c-.18-.92-.59-1.76-1.18-2.47l-4.63,3.82s-.03-.04-.04-.07c-.02-.04-.03-.07-.03-.1l5.88-1.18ZM202.88,13.92c-.62-.76-1.39-1.32-2.23-1.69l-2.44,5.48s.06.03.05.02c0,0-.01,0-.02-.02,0,0-.02-.02-.03-.03l4.67-3.76ZM200.71,12.25c-.94-.44-1.94-.61-2.9-.61v6c.3,0,.38.05.34.03l2.56-5.43ZM197.81,11.65c-1.27,0-2.56.27-3.71.98l3.15,5.1s.14-.09.56-.09v-6ZM194.13,12.61c-1.32.8-2.32,2.16-2.32,3.98h6c0,.22-.06.51-.23.78-.16.25-.32.36-.35.38l-3.1-5.14ZM191.81,16.59c0,1.4.61,2.6,1.6,3.46l3.92-4.54c.09.08.22.22.33.45.11.23.15.46.15.63h-6ZM193.41,20.05c.96.83,2.22,1.22,3.26,1.44l1.26-5.87c-.34-.07-.56-.14-.67-.19-.13-.05-.07-.05.07.07l-3.92,4.54ZM196.71,21.5l3.55.72,1.18-5.88-3.55-.72-1.18,5.88ZM200.25,22.21c1.63.34,2.46.8,2.83,1.15l4.08-4.4c-1.5-1.39-3.52-2.18-5.71-2.63l-1.21,5.88ZM203.08,23.37c.26.24.45.55.45,1.23h6c0-2.15-.75-4.13-2.37-5.63l-4.08,4.4ZM203.53,24.59c0,.65-.17,1.12-.5,1.54l4.73,3.69c1.19-1.52,1.77-3.31,1.77-5.23h-6ZM203.02,26.15c-.38.5-.96.96-1.87,1.34l2.3,5.54c1.72-.71,3.2-1.77,4.32-3.21l-4.75-3.67ZM201.16,27.48c-.88.36-1.98.58-3.37.58v6c2.02,0,3.92-.32,5.65-1.03l-2.28-5.55ZM197.79,28.06c-2.21,0-3.61-.46-4.49-1.08l-3.45,4.91c2.21,1.55,4.95,2.17,7.94,2.17v-6ZM193.31,26.99c-.86-.61-1.32-1.36-1.47-2.42l-5.94.84c.38,2.69,1.72,4.9,3.93,6.48l3.48-4.89ZM189.03,27.98l5.36-.28-.32-5.99-5.36.28.31,5.99ZM191.29,25.31c.31,1.5,1.11,2.81,2.44,3.71l3.34-4.98s.02.01.03.03c.02.02.04.04.05.06.01.02.02.04.02.04,0,0,0-.02-.01-.05l-5.88,1.2ZM193.76,29.03c1.24.82,2.66,1.11,4.04,1.11v-6c-.56,0-.74-.12-.74-.12l-3.3,5.01ZM197.8,30.14c1.31,0,2.69-.25,3.9-1.01l-3.21-5.07c.05-.03-.1.09-.7.09v6ZM201.71,29.12c1.26-.8,2.26-2.13,2.28-3.93l-6-.09c0-.23.07-.49.22-.73.07-.11.13-.19.19-.24.05-.05.09-.07.09-.07l3.23,5.06ZM203.99,25.09c-.02-1.45-.7-2.7-1.79-3.54l-3.66,4.75c-.1-.07-.25-.22-.37-.46-.12-.24-.17-.48-.17-.65l6-.1ZM202.23,21.58c-.95-.75-2.12-1.12-3.17-1.33l-1.18,5.88c.3.06.49.12.61.16.12.05.1.05.01-.01l3.72-4.7ZM199.06,20.24l-3.4-.68-1.17,5.88,3.4.68,1.17-5.88ZM195.66,19.57c-1.59-.32-2.38-.8-2.74-1.16l-4.26,4.22c1.51,1.53,3.58,2.38,5.83,2.82l1.18-5.88ZM192.93,18.41c-.32-.32-.53-.75-.53-1.52h-6c0,2.16.71,4.15,2.25,5.72l4.28-4.2ZM192.4,16.9c0-.69.17-1.13.43-1.46l-4.8-3.59c-1.11,1.49-1.62,3.22-1.62,5.06h6ZM192.81,15.45c.31-.41.79-.81,1.62-1.13l-2.21-5.58c-1.67.66-3.11,1.67-4.19,3.09l4.78,3.62ZM194.43,14.32c.83-.33,1.9-.53,3.3-.53v-6c-1.97,0-3.82.29-5.5.95l2.2,5.58ZM197.72,13.79c2.09,0,3.34.45,4.08.99l3.56-4.83c-2.11-1.55-4.76-2.16-7.63-2.16v6ZM201.8,14.78c.75.55,1.17,1.23,1.3,2.25l5.95-.79c-.34-2.59-1.6-4.76-3.71-6.31l-3.54,4.84ZM209.96,30.68h-3v3h3v-3ZM209.96,11.04v-3h-3v3h3ZM215.41,11.04h3v-3h-3v3ZM215.41,30.68v3h3v-3h-3ZM210.61,7.7l-2.07,2.17.02.02.02.02,2.04-2.2ZM210.61,3.82l2.05,2.19h0s-2.06-2.19-2.06-2.19ZM214.77,3.82l-2.07,2.17.02.02.02.02,2.04-2.2ZM214.77,7.7l2.05,2.19h0s-2.06-2.19-2.06-2.19ZM212.96,30.68V11.04h-6v19.64h6ZM209.96,14.04h5.45v-6h-5.45v6ZM212.41,11.04v19.64h6V11.04h-6ZM215.41,27.68h-5.45v6h5.45v-6ZM212.7,5.51s-.06,0-.06,0c0,0,0,0,.01,0,0,0,.02,0,.02.01,0,0,0,0-.02-.02l-4.08,4.4c1.15,1.06,2.58,1.6,4.12,1.6v-6ZM212.68,5.54s0,0,.03.07c.01.03.02.07.03.1,0,.03,0,.05,0,.05h-6c0,1.62.65,3.04,1.79,4.13l4.14-4.34ZM212.75,5.75s0,.03,0,.06c0,.03-.02.07-.04.11-.04.08-.07.11-.04.08l-4.11-4.37c-1.14,1.08-1.8,2.5-1.8,4.12h6ZM212.67,6s.02-.02.02-.02c0,0,0,0,0,0,0,0,0,0-.02,0,0,0-.01,0-.01,0,0,0,0,0,0,0,0,0,.02,0,.05,0V0c-1.56,0-2.99.55-4.14,1.63l4.11,4.37ZM212.7,6s.03,0,.04,0c0,0,.01,0,.01,0,0,0,0,0,0,0,0,0-.01,0-.02,0,0,0-.01,0-.02,0,0,0-.01,0-.01,0,0,0,0,0,0,0,0,0,0,0,.01.01l4.14-4.34c-1.14-1.09-2.58-1.65-4.14-1.65v6ZM212.73,6.02s0,0-.04-.08c-.02-.04-.03-.08-.04-.12,0-.04,0-.06,0-.07h6c0-1.63-.68-3.06-1.83-4.13l-4.08,4.4ZM212.64,5.75s0-.02,0-.05c0-.03.02-.07.03-.11.03-.08.07-.1.03-.07l4.11,4.37c1.15-1.08,1.81-2.51,1.81-4.14h-6ZM212.71,5.52s-.01,0-.01.01c0,0,0,0,0,0,0,0,0,0,.01,0,0,0,.01,0,.02,0,0,0,.01,0,.01,0,0,0,0,0,0,0,0,0-.02,0-.06,0v6c1.54,0,2.98-.54,4.13-1.62l-4.11-4.37ZM223.49,29.8l-1.53,2.58h0s0,.01,0,.01l1.51-2.59ZM220.15,26.24l-2.67,1.37h0s2.66-1.37,2.66-1.37ZM220.15,15.62l2.67,1.38h0s-2.67-1.38-2.67-1.38ZM223.49,12.06l1.52,2.59h0s-1.52-2.59-1.52-2.59ZM233.78,12.06l-1.53,2.58h0s0,.01,0,.01l1.51-2.59ZM237.13,15.62l-2.67,1.37h0s2.67-1.37,2.67-1.37ZM237.13,26.24l2.66,1.38h0s-2.67-1.38-2.67-1.38ZM233.78,29.8l1.52,2.59h0s-1.52-2.59-1.52-2.59ZM230.93,26.08l1.94,2.29h.01s0-.02,0-.02l-1.96-2.28ZM232.3,23.95l-2.83-1h0s0,.02,0,.02l2.84.97ZM232.3,17.84l-2.84.97h0s0,.02,0,.02l2.83-1ZM226.36,15.72l-1.92-2.3h0s0,.01,0,.01l1.94,2.29ZM224.97,17.84l-2.83-1h0s0,.02,0,.02l2.84.97ZM224.97,23.95l-2.84.97h0s0,.02,0,.02l2.83-1ZM226.36,26.08l-1.94,2.29h.02s.02.03.02.03l1.9-2.32ZM228.64,28.06c-1.55,0-2.73-.33-3.64-.86l-3.02,5.18c1.98,1.16,4.24,1.67,6.66,1.67v-6ZM225.02,27.21c-.94-.56-1.67-1.32-2.2-2.35l-5.33,2.75c1.04,2.01,2.54,3.61,4.47,4.76l3.05-5.16ZM222.82,24.87c-.53-1.03-.84-2.32-.84-3.93h-6c0,2.41.47,4.66,1.51,6.68l5.34-2.74ZM221.98,20.94c0-1.64.32-2.92.84-3.94l-5.33-2.75c-1.04,2.02-1.51,4.28-1.51,6.7h6ZM222.82,16.99c.53-1.03,1.25-1.79,2.18-2.34l-3.03-5.18c-1.95,1.14-3.45,2.75-4.49,4.77l5.34,2.74ZM225.01,14.65c.91-.54,2.08-.86,3.63-.86v-6c-2.42,0-4.69.52-6.67,1.69l3.04,5.17ZM228.64,13.79c1.55,0,2.71.33,3.61.86l3.06-5.16c-1.98-1.17-4.24-1.7-6.67-1.7v6ZM232.27,14.66c.94.55,1.66,1.3,2.19,2.33l5.34-2.74c-1.04-2.02-2.55-3.64-4.51-4.78l-3.02,5.18ZM234.46,17c.53,1.02.84,2.3.84,3.94h6c0-2.42-.47-4.68-1.51-6.7l-5.33,2.75ZM235.3,20.94c0,1.62-.31,2.9-.84,3.93l5.34,2.74c1.04-2.02,1.51-4.27,1.51-6.68h-6ZM234.46,24.86c-.53,1.02-1.25,1.78-2.2,2.35l3.04,5.17c1.95-1.14,3.45-2.75,4.49-4.76l-5.33-2.75ZM232.26,27.21c-.9.53-2.07.85-3.62.85v6c2.42,0,4.68-.52,6.65-1.68l-3.03-5.18ZM228.67,29.84c1.51,0,2.98-.44,4.2-1.48l-3.87-4.58s-.02.02-.05.03c-.03,0-.11.03-.28.03v6ZM232.88,28.35c1.08-.93,1.8-2.12,2.25-3.42l-5.68-1.95c-.17.48-.35.71-.49.82l3.91,4.55ZM235.13,24.95c.45-1.27.64-2.64.64-4.05h-6c0,.87-.12,1.54-.3,2.06l5.66,1.99ZM235.77,20.9c0-1.41-.2-2.78-.64-4.05l-5.66,1.99c.18.52.3,1.19.3,2.06h6ZM235.13,16.87c-.45-1.31-1.17-2.5-2.25-3.42l-3.91,4.55c.13.11.32.34.49.82l5.68-1.95ZM232.88,13.44c-1.22-1.05-2.7-1.5-4.22-1.5v6c.16,0,.24.02.27.03.02,0,.03.01.04.02l3.91-4.55ZM228.67,11.94c-1.52,0-3,.45-4.23,1.48l3.85,4.6s.07-.08.38-.08v-6ZM224.43,13.43c-1.09.92-1.82,2.11-2.28,3.41l5.66,1.99c.17-.48.36-.71.5-.83l-3.88-4.58ZM222.13,16.87c-.43,1.27-.62,2.62-.62,4.03h6c0-.88.12-1.56.3-2.08l-5.67-1.95ZM221.51,20.9c0,1.41.19,2.76.62,4.03l5.67-1.95c-.18-.52-.3-1.2-.3-2.08h-6ZM222.14,24.95c.46,1.31,1.2,2.49,2.28,3.41l3.88-4.58c-.14-.12-.33-.35-.5-.83l-5.66,1.99ZM224.46,28.39c1.23,1.01,2.7,1.45,4.21,1.45v-6c-.31,0-.38-.07-.4-.08l-3.81,4.64ZM247.29,19.33l-3-.03v.03h3ZM247.29,30.68v3h3v-3h-3ZM241.85,30.68h-3v3h3v-3ZM241.85,11.04v-3h-3v3h3ZM247.04,11.04h3v-3h-3v3ZM247.04,14.51h-3v3h3v-3ZM247.27,14.51v3h2.07l.74-1.93-2.8-1.07ZM249.45,11.8l1.63,2.52h0s0,0,0,0l-1.65-2.51ZM259.1,14.24l-2.68,1.36h0s2.67-1.36,2.67-1.36ZM259.95,30.68v3h3v-3h-3ZM254.5,30.68h-3v3h3v-3ZM254.5,19.15l-3-.02h0v.02h3ZM253.58,16.33l-2.22,2.02h0s0,.01,0,.01l2.2-2.04ZM249.07,15.78l-1.47-2.62h0s0,0,0,0l1.48,2.61ZM247.77,17.16l-2.66-1.39h0s0,.01,0,.01l2.67,1.37ZM244.29,19.33v11.35h6v-11.35h-6ZM247.29,27.68h-5.45v6h5.45v-6ZM244.85,30.68V11.04h-6v19.64h6ZM241.85,14.04h5.19v-6h-5.19v6ZM244.04,11.04v3.46h6v-3.46h-6ZM247.04,17.51h.23v-6h-.23v6ZM250.07,15.57c.21-.55.53-.94,1.02-1.26l-3.27-5.03c-1.56,1.01-2.69,2.42-3.35,4.16l5.61,2.13ZM251.1,14.3c.45-.29,1.09-.52,2.07-.52v-6c-1.93,0-3.77.45-5.37,1.5l3.3,5.01ZM253.17,13.79c.91,0,1.56.2,2.05.48l3.04-5.17c-1.54-.91-3.28-1.31-5.09-1.31v6ZM255.22,14.27c.49.29.89.7,1.21,1.33l5.35-2.72c-.81-1.59-1.98-2.88-3.52-3.78l-3.04,5.17ZM256.43,15.6c.3.59.51,1.41.51,2.57h6c0-1.89-.35-3.69-1.17-5.3l-5.34,2.73ZM256.95,18.17v12.5h6v-12.5h-6ZM259.95,27.68h-5.45v6h5.45v-6ZM257.5,30.68v-11.53h-6v11.53h6ZM257.5,19.17c.01-1.72-.43-3.48-1.72-4.87l-4.41,4.07s0,0,.01.02c0,.01.02.04.04.09.03.1.08.31.07.65l6,.04ZM255.8,14.31c-1.29-1.42-3.02-2-4.79-2v6c.23,0,.33.04.35.04,0,0,0,0,0,0,0,0,0,0,0,0l4.43-4.04ZM251.01,12.31c-1.18,0-2.34.26-3.41.86l2.93,5.23c.06-.03.18-.09.48-.09v-6ZM247.59,13.18c-1.09.62-1.92,1.52-2.48,2.6l5.32,2.77c.07-.13.11-.15.13-.16l-2.97-5.21ZM245.1,15.79c-.57,1.1-.79,2.31-.8,3.5l6,.06c0-.49.1-.73.14-.82l-5.34-2.74ZM280.58,16.64l.18,2.99,3.21-.2-.42-3.19-2.97.39ZM275.59,16.95l-2.94.59.51,2.57,2.61-.16-.18-2.99ZM275.04,15.8l-2.34,1.88h.01s.01.03.01.03l2.31-1.91ZM273.93,14.97l-1.28,2.71h.03s.03.03.03.03l1.22-2.74ZM270.17,15.18l1.55,2.57h.01s.01-.02.01-.02l-1.58-2.55ZM269.87,17.78l-1.96,2.27h0l1.96-2.27ZM271.8,18.56l-.63,2.93h.02s.02,0,.02,0l.59-2.94ZM275.35,19.27l.6-2.94h-.01s-.59,2.94-.59,2.94ZM279.62,21.17l-2.04,2.2,2.04-2.2ZM279.89,27.98l-2.37-1.85h0s0,.01,0,.01l2.38,1.83ZM276.79,30.26l1.14,2.77h0s-1.15-2.77-1.15-2.77ZM266.07,29.44l-1.74,2.44h0s0,.01,0,.01l1.72-2.46ZM263.37,24.99l-.16-3-3.27.17.46,3.24,2.97-.42ZM268.73,24.71l2.94-.6-.52-2.53-2.58.14.16,3ZM269.9,26.52l-1.67,2.49h.01s.01.02.01.02l1.65-2.51ZM274.6,26.59l1.6,2.54h0s-1.61-2.54-1.61-2.54ZM275.49,25.14l3,.04v-.05s0-.05,0-.05l-3,.05ZM274.86,23.93l-1.86,2.35h.02s.01.02.01.02l1.83-2.38ZM272.97,23.19l.59-2.94h0s-.59,2.94-.59,2.94ZM269.57,22.51l-.59,2.94h0s.59-2.94.59-2.94ZM265.29,20.51l-2.14,2.1h.01s2.13-2.1,2.13-2.1ZM264.92,13.64l-2.39-1.81h0s0,.01,0,.01l2.4,1.8ZM267.82,11.53l-1.1-2.79h0s1.11,2.79,1.11,2.79ZM278.07,12.36l-1.78,2.42h0s1.77-2.42,1.77-2.42ZM280.39,13.65l-4.99.31.37,5.99,4.99-.31-.37-5.99ZM278.53,16.36c-.18-.92-.59-1.76-1.18-2.47l-4.63,3.82s-.03-.04-.05-.07c-.02-.04-.03-.07-.03-.1l5.88-1.18ZM277.38,13.92c-.62-.76-1.39-1.32-2.23-1.69l-2.44,5.48s.06.03.05.02c0,0-.01,0-.02-.02,0,0-.02-.02-.03-.03l4.67-3.76ZM275.21,12.25c-.94-.44-1.94-.61-2.9-.61v6c.3,0,.38.05.34.03l2.56-5.43ZM272.31,11.65c-1.27,0-2.56.27-3.71.98l3.15,5.1s.14-.09.56-.09v-6ZM268.62,12.61c-1.32.8-2.32,2.16-2.32,3.98h6c0,.22-.06.51-.23.78-.16.25-.32.36-.35.38l-3.1-5.14ZM266.3,16.59c0,1.4.61,2.6,1.6,3.46l3.92-4.54c.09.08.22.22.33.45.11.23.15.46.15.63h-6ZM267.9,20.05c.96.83,2.22,1.22,3.26,1.44l1.26-5.87c-.34-.07-.55-.14-.67-.19-.13-.05-.07-.05.07.07l-3.92,4.54ZM271.2,21.5l3.55.72,1.18-5.88-3.55-.72-1.18,5.88ZM274.75,22.21c1.63.34,2.46.8,2.83,1.15l4.08-4.4c-1.5-1.39-3.52-2.18-5.71-2.63l-1.21,5.88ZM277.58,23.37c.26.24.45.55.45,1.23h6c0-2.15-.75-4.13-2.37-5.63l-4.08,4.4ZM278.03,24.59c0,.65-.18,1.12-.5,1.54l4.73,3.69c1.19-1.52,1.77-3.31,1.77-5.23h-6ZM277.51,26.15c-.38.5-.96.96-1.87,1.34l2.3,5.54c1.72-.71,3.2-1.77,4.32-3.21l-4.75-3.67ZM275.65,27.48c-.88.36-1.98.58-3.37.58v6c2.02,0,3.92-.32,5.66-1.03l-2.28-5.55ZM272.28,28.06c-2.21,0-3.61-.46-4.49-1.08l-3.45,4.91c2.21,1.55,4.95,2.17,7.94,2.17v-6ZM267.81,26.99c-.86-.61-1.32-1.36-1.47-2.42l-5.94.84c.38,2.69,1.72,4.9,3.93,6.48l3.48-4.89ZM263.53,27.98l5.36-.28-.32-5.99-5.36.28.31,5.99ZM265.79,25.31c.31,1.5,1.11,2.81,2.44,3.71l3.34-4.98s.02.01.04.03c.02.02.04.04.05.06.01.02.02.04.02.04,0,0,0-.02-.01-.05l-5.88,1.2ZM268.26,29.03c1.24.82,2.66,1.11,4.04,1.11v-6c-.56,0-.74-.12-.74-.12l-3.3,5.01ZM272.29,30.14c1.31,0,2.69-.25,3.9-1.01l-3.21-5.07c.05-.03-.1.09-.7.09v6ZM276.21,29.12c1.26-.8,2.26-2.13,2.28-3.93l-6-.09c0-.23.07-.49.22-.73.07-.11.14-.19.19-.24.05-.05.08-.07.08-.07l3.23,5.06ZM278.49,25.09c-.02-1.45-.7-2.7-1.8-3.54l-3.66,4.75c-.1-.07-.25-.22-.37-.46-.12-.24-.17-.48-.17-.65l6-.1ZM276.73,21.58c-.95-.75-2.12-1.12-3.17-1.33l-1.18,5.88c.3.06.49.12.61.16.12.05.1.05.01-.01l3.72-4.7ZM273.56,20.24l-3.4-.68-1.17,5.88,3.4.68,1.17-5.88ZM270.16,19.57c-1.59-.32-2.38-.8-2.74-1.16l-4.26,4.22c1.51,1.53,3.58,2.38,5.83,2.82l1.18-5.88ZM267.43,18.41c-.32-.32-.53-.75-.53-1.52h-6c0,2.16.71,4.15,2.25,5.72l4.28-4.2ZM266.9,16.9c0-.69.17-1.13.42-1.46l-4.8-3.59c-1.11,1.49-1.62,3.22-1.62,5.06h6ZM267.31,15.45c.31-.41.79-.81,1.62-1.13l-2.22-5.58c-1.67.66-3.11,1.67-4.19,3.09l4.78,3.62ZM268.92,14.32c.83-.33,1.9-.53,3.3-.53v-6c-1.97,0-3.82.29-5.5.95l2.2,5.58ZM272.22,13.79c2.09,0,3.34.45,4.08.99l3.56-4.83c-2.11-1.55-4.77-2.16-7.64-2.16v6ZM276.3,14.78c.75.55,1.17,1.23,1.3,2.25l5.95-.79c-.34-2.59-1.6-4.76-3.71-6.31l-3.55,4.84Z"/>
  </g>
</svg>