<?xml version="1.0" encoding="UTF-8"?>
<svg id="Layer_1" data-name="Layer 1" xmlns="http://www.w3.org/2000/svg" xmlns:xlink="http://www.w3.org/1999/xlink" viewBox="0 0 223 378">
  <defs>
    <style>
      .cls-1 {
        fill: rgba(135, 206, 235, .75);
      }

      .cls-1, .cls-2, .cls-3, .cls-4, .cls-5, .cls-6, .cls-7 {
        stroke-width: 0px;
      }

      .cls-2 {
        fill: rgba(37, 69, 96, .8);
      }

      .cls-2, .cls-4, .cls-6 {
        fill-rule: evenodd;
      }

      .cls-8 {
        mask: url(#mask-2);
      }

      .cls-4 {
        fill: rgba(89, 135, 154, .75);
      }

      .cls-5, .cls-6 {
        fill: #fff;
      }

      .cls-7 {
        fill: #cb8b35;
      }

      .cls-9 {
        mask: url(#mask-1);
      }

      .cls-10 {
        mask: url(#mask);
      }
    </style>
    <mask id="mask" x="-3.13" y="-3.16" width="229" height="87" maskUnits="userSpaceOnUse">
      <g id="path-1-inside-1_12_1065" data-name="path-1-inside-1 12 1065">
        <path class="cls-6" d="M222.87,32.4v1.19h-11.62v-.25L202.58-.16H20.17l-8.68,33.5v.25H-.13v47.25h14.54l-.03-.1,8.71-33.6v-.05h176.55v.05l8.71,33.6-.03.1h14.55v-48.44h0Z"/>
      </g>
    </mask>
    <mask id="mask-1" x="-3.13" y="296.62" width="229" height="84.22" maskUnits="userSpaceOnUse">
      <g id="path-3-inside-2_12_1065" data-name="path-3-inside-2 12 1065">
        <path class="cls-6" d="M222.87,345.28v-.03h-11.62v.24l-8.68,32.35H20.17l-8.68-32.35v-.24H-.13v-45.63h14.54l-.03.1,8.71,32.45v.05h176.55v-.05l8.71-32.45-.03-.1h14.55v45.66h0Z"/>
      </g>
    </mask>
    <mask id="mask-2" x="75.87" y="13.84" width="74" height="21" maskUnits="userSpaceOnUse">
      <g id="path-6-outside-3_12_1065" data-name="path-6-outside-3 12 1065">
        <rect class="cls-5" x="75.87" y="13.84" width="74" height="21"/>
        <path class="cls-3" d="M81.42,32.84h-3.95l6.03-17.45h4.76l6.02,17.45h-3.95l-4.37-13.47h-.14l-4.38,13.47ZM81.18,25.98h9.34v2.88h-9.34v-2.88ZM99.93,15.39v17.45h-3.63V15.39h3.63ZM108.81,33.1c-1.35,0-2.5-.27-3.48-.82-.97-.55-1.71-1.33-2.23-2.34-.52-1.01-.78-2.21-.78-3.59s.26-2.53.78-3.55c.52-1.02,1.26-1.81,2.21-2.38.96-.57,2.07-.85,3.36-.85.86,0,1.67.14,2.41.42.75.27,1.4.68,1.96,1.24.56.55,1,1.24,1.31,2.08.31.83.47,1.8.47,2.91v1h-11.05v-2.25h7.64c0-.52-.11-.99-.34-1.39-.23-.4-.54-.72-.95-.95-.4-.23-.86-.35-1.39-.35s-1.04.13-1.47.38c-.42.25-.75.59-.99,1.01-.24.42-.36.89-.37,1.41v2.14c0,.65.12,1.21.36,1.68.24.47.59.84,1.03,1.09.44.26.97.38,1.58.38.4,0,.77-.06,1.11-.17s.62-.28.86-.51c.24-.23.42-.51.54-.84l3.36.22c-.17.81-.52,1.51-1.05,2.11-.52.6-1.2,1.06-2.03,1.4-.82.33-1.78.49-2.86.49ZM117.18,32.84v-13.09h3.52v2.28h.14c.24-.81.64-1.43,1.2-1.84.56-.42,1.21-.63,1.94-.63.18,0,.38.01.59.03.21.02.4.05.55.09v3.22c-.17-.05-.41-.1-.71-.14-.3-.04-.58-.06-.83-.06-.53,0-1.01.12-1.43.35-.41.23-.74.55-.99.95-.24.41-.36.88-.36,1.41v7.41h-3.63ZM134.62,19.75v2.73h-7.88v-2.73h7.88ZM128.53,16.62h3.63v12.2c0,.34.05.6.15.78.1.18.24.31.43.38.19.07.4.11.65.11.17,0,.34-.01.51-.04.17-.03.3-.06.39-.08l.57,2.7c-.18.06-.44.12-.77.2-.33.08-.73.13-1.2.14-.88.03-1.64-.08-2.3-.35-.65-.27-1.16-.68-1.53-1.24-.36-.56-.54-1.27-.54-2.13v-12.68ZM147.72,23.49l-3.32.2c-.06-.28-.18-.54-.37-.77-.19-.23-.43-.42-.74-.55-.3-.14-.66-.21-1.08-.21-.56,0-1.04.12-1.42.36-.39.23-.58.55-.58.94,0,.31.12.58.38.79s.68.39,1.29.52l2.37.48c1.27.26,2.22.68,2.85,1.26.62.58.94,1.34.94,2.28,0,.86-.25,1.61-.76,2.26-.5.65-1.19,1.15-2.06,1.52-.87.36-1.87.54-3.01.54-1.73,0-3.11-.36-4.14-1.08-1.02-.73-1.62-1.72-1.8-2.97l3.57-.19c.11.53.37.93.78,1.21.42.27.95.41,1.59.41s1.15-.12,1.53-.37c.39-.25.59-.57.6-.96,0-.33-.15-.6-.42-.81-.27-.22-.69-.38-1.26-.49l-2.27-.45c-1.28-.26-2.23-.7-2.86-1.33-.62-.63-.93-1.43-.93-2.41,0-.84.23-1.57.68-2.17.46-.61,1.1-1.08,1.93-1.41.83-.33,1.81-.49,2.93-.49,1.65,0,2.96.35,3.9,1.05.96.7,1.51,1.65,1.67,2.86Z"/>
      </g>
    </mask>
  </defs>
  <path class="cls-4" d="M222.87,32.4v1.19h-11.62v-.25L202.58-.16H20.17l-8.68,33.5v.25H-.13v47.25h14.54l-.03-.1,8.71-33.6v-.05h176.55v.05l8.71,33.6-.03.1h14.55v-48.44h0Z"/>
  <g class="cls-10">
    <path class="cls-1" d="M222.87,33.59v3c1.66,0,3-1.34,3-3h-3ZM222.87,32.4v-3c-1.66,0-3,1.34-3,3h3ZM211.26,33.59h-3c0,1.66,1.34,3,3,3v-3ZM211.26,33.34h3c0-.25-.03-.51-.1-.75l-2.9.75ZM202.58-.16l2.9-.75c-.34-1.32-1.54-2.25-2.9-2.25V-.16ZM20.17-.16v-3c-1.37,0-2.56.92-2.9,2.25l2.9.75ZM11.49,33.34l-2.9-.75c-.06.25-.1.5-.1.75h3ZM11.49,33.59v3c1.66,0,3-1.34,3-3h-3ZM-.13,33.59v-3c-1.66,0-3,1.34-3,3H-.13ZM-.13,80.84h-3c0,1.66,1.34,3,3,3v-3ZM14.42,80.84v3c.93,0,1.8-.43,2.37-1.16.57-.73.76-1.69.53-2.59l-2.9.75ZM14.39,80.74l-2.9-.75c-.13.49-.13,1.01,0,1.5l2.9-.75ZM23.1,47.14l2.9.75c.06-.25.1-.5.1-.75h-3ZM23.1,47.09v-3c-1.66,0-3,1.34-3,3h3ZM199.65,47.09h3c0-1.66-1.34-3-3-3v3ZM199.65,47.14h-3c0,.25.03.51.1.75l2.9-.75ZM208.35,80.74l2.9.75c.13-.49.13-1.01,0-1.51l-2.9.75ZM208.33,80.84l-2.9-.75c-.23.9-.04,1.85.53,2.59.57.73,1.44,1.16,2.37,1.16v-3ZM222.88,80.84v3c1.66,0,3-1.34,3-3h-3ZM222.88,32.4h3c0-1.66-1.34-3-3-3v3ZM225.87,33.59v-1.19h-6v1.19h6ZM211.26,36.59h11.62v-6h-11.62v6ZM208.26,33.34v.25h6v-.25h-6ZM199.67.6l8.68,33.5,5.81-1.51L205.48-.91l-5.81,1.5ZM20.17,2.84h182.4V-3.16H20.17V2.84ZM14.4,34.09L23.07.6l-5.81-1.5-8.68,33.5,5.81,1.5ZM14.49,33.59v-.25h-6v.25h6ZM-.13,36.59h11.62v-6H-.13v6ZM2.87,80.84v-47.25H-3.13v47.25H2.87ZM14.42,77.84H-.13v6h14.54v-6ZM11.49,81.5l.03.1,5.81-1.51-.03-.1-5.81,1.5ZM20.19,46.39l-8.71,33.6,5.81,1.5,8.71-33.6-5.81-1.5ZM20.1,47.09v.05h6v-.05h-6ZM32.4,44.09h-9.3v6h9.3v-6ZM34.71,44.09h-2.32v6h2.32v-6ZM188.03,44.09H34.71v6h153.32v-6ZM190.94,44.09h-2.9v6h2.9v-6ZM199.65,44.09h-8.71v6h8.71v-6ZM202.65,47.14v-.05h-6v.05h6ZM211.26,79.99l-8.71-33.6-5.81,1.5,8.71,33.6,5.81-1.5ZM211.23,81.6l.03-.1-5.81-1.51-.03.1,5.81,1.51ZM222.88,77.84h-14.55v6h14.55v-6ZM219.88,32.4v48.44h6v-48.44h-6ZM222.88,29.4h0v6h0v-6Z"/>
  </g>
  <path class="cls-4" d="M222.87,345.28v-.03h-11.62v.24l-8.68,32.35H20.17l-8.68-32.35v-.24H-.13v-45.63h14.54l-.03.1,8.71,32.45v.05h176.55v-.05l8.71-32.45-.03-.1h14.55v45.66h0Z"/>
  <g class="cls-9">
    <path class="cls-1" d="M222.87,345.25v-3c1.66,0,3,1.34,3,3h-3ZM222.87,345.28v3c-1.66,0-3-1.34-3-3h3ZM211.26,345.25h-3c0-1.66,1.34-3,3-3v3ZM211.26,345.49h3c0,.26-.03.52-.1.78l-2.9-.78ZM202.58,377.84l2.9.78c-.35,1.31-1.54,2.22-2.9,2.22v-3ZM20.17,377.84v3c-1.36,0-2.55-.91-2.9-2.22l2.9-.78ZM11.49,345.5l-2.9.78c-.07-.25-.1-.51-.1-.78h3ZM11.49,345.25v-3c1.66,0,3,1.34,3,3h-3ZM-.13,345.25v3c-1.66,0-3-1.34-3-3H-.13ZM-.13,299.62h-3c0-1.66,1.34-3,3-3v3ZM14.42,299.62v-3c.93,0,1.81.43,2.38,1.17.57.74.76,1.7.52,2.6l-2.9-.78ZM14.39,299.72l-2.9.78c-.14-.51-.14-1.05,0-1.55l2.9.78ZM23.1,332.17l2.9-.78c.07.25.1.52.1.78h-3ZM23.1,332.22v3c-1.66,0-3-1.34-3-3h3ZM199.65,332.22h3c0,1.66-1.34,3-3,3v-3ZM199.65,332.17h-3c0-.26.04-.52.1-.78l2.9.78ZM208.35,299.72l2.9-.78c.14.51.14,1.05,0,1.55l-2.9-.78ZM208.33,299.62l-2.9.78c-.24-.9-.05-1.86.52-2.6.57-.74,1.45-1.17,2.38-1.17v3ZM222.88,299.62v-3c1.66,0,3,1.34,3,3h-3ZM222.88,345.28h3c0,1.66-1.34,3-3,3v-3ZM225.87,345.25v.03h-6v-.03h6ZM211.26,342.25h11.62v6h-11.62v-6ZM208.26,345.49v-.24h6v.24h-6ZM199.68,377.07l8.68-32.35,5.79,1.55-8.68,32.35-5.8-1.55ZM20.17,374.84h182.4v6H20.17v-6ZM14.39,344.72l8.68,32.35-5.8,1.55-8.68-32.35,5.8-1.55ZM14.49,345.25v.24h-6v-.24h6ZM-.13,342.25h11.62v6H-.13v-6ZM2.87,299.62v45.63H-3.13v-45.63H2.87ZM14.42,302.62H-.13v-6h14.54v6ZM11.5,298.94l.03-.1,5.79,1.56-.03.1-5.8-1.55ZM20.2,332.94l-8.71-32.45,5.8-1.55,8.71,32.45-5.8,1.56ZM20.1,332.22v-.05h6v.05h-6ZM32.4,335.22h-9.3v-6h9.3v6ZM34.71,335.22h-2.32v-6h2.32v6ZM188.03,335.22H34.71v-6h153.32v6ZM190.94,335.22h-2.9v-6h2.9v6ZM199.65,335.22h-8.71v-6h8.71v6ZM202.65,332.17v.05h-6v-.05h6ZM211.25,300.5l-8.71,32.45-5.79-1.56,8.71-32.45,5.79,1.55ZM211.22,298.85l.03.1-5.79,1.55-.03-.1,5.79-1.56ZM222.88,302.62h-14.55v-6h14.55v6ZM219.88,345.28v-45.66h6v45.66h-6ZM222.88,348.28h0v-6h0v6Z"/>
  </g>
  <path class="cls-2" d="M15.77,295.34H2.58V83.28h13.19l8.88-33.75h172.72l8.88,32.88h13.45v213.8h-13.45l-8.88,32.88H24.65l-8.88-33.75Z"/>
  <path class="cls-7" d="M81.42,32.84h-3.95l6.03-17.45h4.76l6.02,17.45h-3.95l-4.37-13.47h-.14l-4.38,13.47ZM81.18,25.98h9.34v2.88h-9.34v-2.88ZM99.93,15.39v17.45h-3.63V15.39h3.63ZM108.81,33.1c-1.35,0-2.5-.27-3.48-.82-.97-.55-1.71-1.33-2.23-2.34-.52-1.01-.78-2.21-.78-3.59s.26-2.53.78-3.55c.52-1.02,1.26-1.81,2.21-2.38.96-.57,2.07-.85,3.36-.85.86,0,1.67.14,2.41.42.75.27,1.4.68,1.96,1.24.56.55,1,1.24,1.31,2.08.31.83.47,1.8.47,2.91v1h-11.05v-2.25h7.64c0-.52-.11-.99-.34-1.39-.23-.4-.54-.72-.95-.95-.4-.23-.86-.35-1.39-.35s-1.04.13-1.47.38c-.42.25-.75.59-.99,1.01-.24.42-.36.89-.37,1.41v2.14c0,.65.12,1.21.36,1.68.24.47.59.84,1.03,1.09.44.26.97.38,1.58.38.4,0,.77-.06,1.11-.17s.62-.28.86-.51c.24-.23.42-.51.54-.84l3.36.22c-.17.81-.52,1.51-1.05,2.11-.52.6-1.2,1.06-2.03,1.4-.82.33-1.78.49-2.86.49ZM117.18,32.84v-13.09h3.52v2.28h.14c.24-.81.64-1.43,1.2-1.84.56-.42,1.21-.63,1.94-.63.18,0,.38.01.59.03.21.02.4.05.55.09v3.22c-.17-.05-.41-.1-.71-.14-.3-.04-.58-.06-.83-.06-.53,0-1.01.12-1.43.35-.41.23-.74.55-.99.95-.24.41-.36.88-.36,1.41v7.41h-3.63ZM134.62,19.75v2.73h-7.88v-2.73h7.88ZM128.53,16.62h3.63v12.2c0,.34.05.6.15.78.1.18.24.31.43.38.19.07.4.11.65.11.17,0,.34-.01.51-.04.17-.03.3-.06.39-.08l.57,2.7c-.18.06-.44.12-.77.2-.33.08-.73.13-1.2.14-.88.03-1.64-.08-2.3-.35-.65-.27-1.16-.68-1.53-1.24-.36-.56-.54-1.27-.54-2.13v-12.68ZM147.72,23.49l-3.32.2c-.06-.28-.18-.54-.37-.77-.19-.23-.43-.42-.74-.55-.3-.14-.66-.21-1.08-.21-.56,0-1.04.12-1.42.36-.39.23-.58.55-.58.94,0,.31.12.58.38.79s.68.39,1.29.52l2.37.48c1.27.26,2.22.68,2.85,1.26.62.58.94,1.34.94,2.28,0,.86-.25,1.61-.76,2.26-.5.65-1.19,1.15-2.06,1.52-.87.36-1.87.54-3.01.54-1.73,0-3.11-.36-4.14-1.08-1.02-.73-1.62-1.72-1.8-2.97l3.57-.19c.11.53.37.93.78,1.21.42.27.95.41,1.59.41s1.15-.12,1.53-.37c.39-.25.59-.57.6-.96,0-.33-.15-.6-.42-.81-.27-.22-.69-.38-1.26-.49l-2.27-.45c-1.28-.26-2.23-.7-2.86-1.33-.62-.63-.93-1.43-.93-2.41,0-.84.23-1.57.68-2.17.46-.61,1.1-1.08,1.93-1.41.83-.33,1.81-.49,2.93-.49,1.65,0,2.96.35,3.9,1.05.96.7,1.51,1.65,1.67,2.86Z"/>
  <g class="cls-8">
    <path class="cls-3" d="M81.42,32.84v1h.73l.22-.69-.95-.31ZM77.47,32.84l-.95-.33-.46,1.33h1.4v-1ZM83.5,15.39v-1h-.71l-.23.67.95.33ZM88.25,15.39l.95-.33-.23-.67h-.71v1ZM94.27,32.84v1h1.4l-.46-1.33-.95.33ZM90.31,32.84l-.95.31.22.69h.73v-1ZM85.94,19.38l.95-.31-.22-.69h-.73v1ZM85.8,19.38v-1h-.73l-.22.69.95.31ZM81.18,25.98v-1h-1v1h1ZM90.52,25.98h1v-1h-1v1ZM90.52,28.86v1h1v-1h-1ZM81.18,28.86h-1v1h1v-1ZM81.42,31.84h-3.95v2h3.95v-2ZM78.41,33.17l6.03-17.45-1.89-.65-6.03,17.45,1.89.65ZM83.5,16.39h4.76v-2h-4.76v2ZM87.31,15.72l6.02,17.45,1.89-.65-6.02-17.45-1.89.65ZM94.27,31.84h-3.95v2h3.95v-2ZM91.26,32.53l-4.37-13.47-1.9.62,4.37,13.47,1.9-.62ZM85.94,18.38h-.14v2h.14v-2ZM84.85,19.07l-4.38,13.47,1.9.62,4.38-13.47-1.9-.62ZM81.18,26.98h9.34v-2h-9.34v2ZM89.52,25.98v2.88h2v-2.88h-2ZM90.52,27.86h-9.34v2h9.34v-2ZM82.18,28.86v-2.88h-2v2.88h2ZM99.93,15.39h1v-1h-1v1ZM99.93,32.84v1h1v-1h-1ZM96.3,32.84h-1v1h1v-1ZM96.3,15.39v-1h-1v1h1ZM98.93,15.39v17.45h2V15.39h-2ZM99.93,31.84h-3.63v2h3.63v-2ZM97.3,32.84V15.39h-2v17.45h2ZM96.3,16.39h3.63v-2h-3.63v2ZM105.33,32.28l-.5.87h0s.49-.87.49-.87ZM103.1,29.95l-.89.46h0s.89-.46.89-.46ZM103.1,22.81l-.89-.46.89.46ZM105.3,20.43l-.51-.86h0s.51.86.51.86ZM111.07,20l-.35.94h0s.34-.94.34-.94ZM113.03,21.24l-.7.71h0s.7-.71.7-.71ZM114.35,23.32l-.94.35h0s.94-.35.94-.35ZM114.81,27.23v1h1v-1h-1ZM103.76,27.23h-1v1h1v-1ZM103.76,24.98v-1h-1v1h1ZM111.4,24.98v1h1v-1h-1ZM111.06,23.59l-.87.49h0l.87-.49ZM110.11,22.64l-.51.86h0s0,0,0,0l.49-.87ZM107.25,22.68l.51.86h0s-.51-.86-.51-.86ZM106.27,23.69l.87.49h0s-.87-.49-.87-.49ZM105.9,25.1h-1s0,0,0,0h1ZM106.26,28.91l-.89.45h0s.89-.45.89-.45ZM109.97,30.22l-.32-.95.32.95ZM110.83,29.71l-.69-.72h0l.69.72ZM111.38,28.87l.07-1-.74-.05-.26.69.93.35ZM114.74,29.09l.98.21.24-1.13-1.15-.08-.07,1ZM113.69,31.21l-.75-.66h0s.75.66.75.66ZM111.66,32.61l.37.93h0s-.38-.93-.38-.93ZM108.81,32.1c-1.21,0-2.19-.24-2.99-.69l-.98,1.74c1.15.65,2.48.95,3.97.95v-2ZM105.82,31.41c-.8-.45-1.41-1.09-1.84-1.93l-1.77.92c.61,1.17,1.49,2.09,2.62,2.74l.99-1.74ZM103.98,29.49c-.44-.84-.67-1.87-.67-3.13h-2c0,1.51.29,2.87.9,4.05l1.78-.92ZM103.31,26.36c0-1.22.24-2.24.67-3.09l-1.78-.91c-.61,1.18-.9,2.53-.9,4h2ZM103.99,23.27c.44-.86,1.05-1.51,1.83-1.98l-1.03-1.72c-1.11.67-1.98,1.6-2.58,2.78l1.78.91ZM105.81,21.29c.78-.46,1.71-.71,2.85-.71v-2c-1.44,0-2.74.32-3.87.99l1.02,1.72ZM108.66,20.58c.75,0,1.44.12,2.06.35l.7-1.87c-.87-.32-1.79-.48-2.76-.48v2ZM110.73,20.94c.62.22,1.15.56,1.6,1.01l1.41-1.42c-.66-.65-1.44-1.14-2.32-1.46l-.68,1.88ZM112.33,21.95c.44.44.81,1,1.08,1.72l1.87-.7c-.36-.95-.87-1.78-1.55-2.44l-1.4,1.43ZM113.41,23.67c.26.69.41,1.54.41,2.56h2c0-1.2-.17-2.3-.53-3.27l-1.87.7ZM113.81,26.23v1h2v-1h-2ZM114.81,26.23h-11.05v2h11.05v-2ZM104.76,27.23v-2.25h-2v2.25h2ZM103.76,25.98h7.64v-2h-7.64v2ZM112.4,24.98c0-.67-.15-1.31-.47-1.88l-1.74.98c.13.23.21.52.21.9h2ZM111.93,23.1c-.32-.56-.76-1.01-1.33-1.33l-.98,1.74c.25.14.43.32.57.57l1.74-.98ZM110.62,21.78c-.57-.34-1.21-.49-1.89-.49v2c.38,0,.66.08.88.21l1.01-1.73ZM108.72,21.29c-.71,0-1.38.17-1.98.53l1.03,1.72c.25-.15.56-.24.95-.24v-2ZM106.74,21.82c-.57.34-1.02.81-1.35,1.39l1.75.98c.15-.27.36-.48.63-.64l-1.02-1.72ZM105.4,23.2c-.33.58-.49,1.21-.5,1.89l2,.02c0-.36.09-.66.24-.92l-1.74-.99ZM104.9,25.1v2.14h2v-2.14h-2ZM104.9,27.24c0,.77.14,1.49.47,2.13l1.78-.9c-.15-.3-.25-.7-.25-1.23h-2ZM105.37,29.37c.33.63.8,1.14,1.42,1.5l1-1.73c-.27-.16-.48-.38-.64-.68l-1.78.92ZM106.79,30.87c.62.36,1.33.52,2.08.52v-2c-.47,0-.81-.1-1.08-.25l-1,1.73ZM108.87,31.39c.5,0,.98-.07,1.43-.22l-.64-1.89c-.22.07-.48.12-.79.12v2ZM110.29,31.17c.46-.16.88-.4,1.23-.73l-1.38-1.45c-.13.12-.28.22-.49.29l.64,1.89ZM111.52,30.43c.35-.34.62-.75.79-1.2l-1.87-.71c-.07.2-.18.35-.3.47l1.38,1.45ZM111.31,29.87l3.36.22.13-2-3.36-.22-.13,2ZM113.76,28.89c-.14.64-.41,1.19-.82,1.66l1.5,1.32c.64-.74,1.07-1.6,1.28-2.57l-1.96-.41ZM112.94,30.55c-.41.46-.95.85-1.65,1.13l.75,1.85c.96-.39,1.77-.94,2.41-1.67l-1.5-1.32ZM111.29,31.68c-.68.27-1.51.42-2.48.42v2c1.18,0,2.26-.18,3.23-.57l-.74-1.86ZM117.18,32.84h-1v1h1v-1ZM117.18,19.75v-1h-1v1h1ZM120.7,19.75h1v-1h-1v1ZM120.7,22.04h-1v1h1v-1ZM120.84,22.04v1h.75l.21-.72-.96-.28ZM122.04,20.2l.59.8h0s-.6-.8-.6-.8ZM124.57,19.6l.11-.99h0l-.11.99ZM125.13,19.69h1v-.78l-.76-.19-.24.97ZM125.13,22.91l-.29.96,1.29.39v-1.34h-1ZM122.16,23.07l.48.88h0s-.48-.88-.48-.88ZM121.17,24.02l-.86-.51h0s.86.51.86.51ZM120.81,32.84v1h1v-1h-1ZM118.18,32.84v-13.09h-2v13.09h2ZM117.18,20.75h3.52v-2h-3.52v2ZM119.7,19.75v2.28h2v-2.28h-2ZM120.7,23.04h.14v-2h-.14v2ZM121.8,22.32c.19-.65.48-1.06.84-1.32l-1.19-1.61c-.77.57-1.28,1.39-1.57,2.36l1.92.56ZM122.64,21c.38-.29.82-.43,1.34-.43v-2c-.94,0-1.8.27-2.54.83l1.2,1.6ZM123.98,20.57c.14,0,.3,0,.48.03l.22-1.99c-.24-.03-.47-.04-.7-.04v2ZM124.47,20.59c.18.02.32.04.42.07l.49-1.94c-.21-.05-.45-.09-.69-.12l-.22,1.99ZM124.13,19.69v3.22h2v-3.22h-2ZM125.41,21.96c-.25-.07-.54-.13-.86-.17l-.26,1.98c.28.04.45.07.55.1l.58-1.92ZM124.55,21.79c-.34-.04-.66-.07-.96-.07v2c.2,0,.43.02.7.05l.26-1.98ZM123.59,21.72c-.68,0-1.33.15-1.92.47l.97,1.75c.26-.14.56-.22.95-.22v-2ZM121.68,22.19c-.57.31-1.03.76-1.37,1.32l1.72,1.03c.15-.26.35-.45.61-.59l-.96-1.75ZM120.31,23.52c-.34.58-.49,1.23-.49,1.92h2c0-.38.08-.67.22-.91l-1.73-1.01ZM119.81,25.44v7.41h2v-7.41h-2ZM120.81,31.84h-3.63v2h3.63v-2ZM134.62,19.75h1v-1h-1v1ZM134.62,22.48v1h1v-1h-1ZM126.74,22.48h-1v1h1v-1ZM126.74,19.75v-1h-1v1h1ZM128.53,16.62v-1h-1v1h1ZM132.16,16.62h1v-1h-1v1ZM132.31,29.61l-.88.48h0s.87-.48.87-.48ZM132.74,29.99l-.38.93h0s.37-.93.37-.93ZM133.9,30.06l.17.99h.02s.01,0,.01,0l-.2-.98ZM134.29,29.98l.98-.21-.2-.96-.96.18.18.98ZM134.86,32.68l.3.95.87-.27-.19-.89-.98.21ZM134.09,32.88l-.22-.98h0s0,0,0,0l.23.97ZM132.89,33.02l-.04-1h0s.04,1,.04,1ZM130.59,32.67l-.38.93h0s.38-.93.38-.93ZM129.07,31.43l.84-.54-.84.54ZM128.53,29.3h1s0,0,0,0h-1ZM133.62,19.75v2.73h2v-2.73h-2ZM134.62,21.48h-7.88v2h7.88v-2ZM127.74,22.48v-2.73h-2v2.73h2ZM126.74,20.75h7.88v-2h-7.88v2ZM128.53,17.62h3.63v-2h-3.63v2ZM131.16,16.62v12.2h2v-12.2h-2ZM131.16,28.82c0,.42.06.87.27,1.26l1.76-.96s0,0-.01-.05c0-.05-.02-.14-.02-.26h-2ZM131.44,30.1c.21.37.52.66.92.82l.75-1.85s.03.02.05.03c.02.02.02.03.02.02l-1.74.98ZM132.37,30.92c.33.13.67.18,1.01.18v-2c-.14,0-.23-.02-.28-.04l-.73,1.86ZM133.39,31.1c.23,0,.45-.02.68-.06l-.33-1.97c-.12.02-.23.03-.35.03v2ZM134.09,31.04c.17-.03.3-.06.38-.07l-.37-1.97c-.1.02-.23.04-.4.08l.39,1.96ZM133.31,30.19l.57,2.7,1.96-.41-.57-2.7-1.96.41ZM134.56,31.73c-.14.04-.37.1-.69.17l.44,1.95c.34-.08.63-.15.85-.22l-.6-1.91ZM133.86,31.91c-.24.06-.57.1-1,.12l.07,2c.51-.02.99-.07,1.4-.17l-.47-1.94ZM132.85,32.02c-.76.03-1.39-.07-1.89-.28l-.75,1.85c.82.33,1.73.46,2.72.42l-.08-2ZM130.97,31.75c-.48-.19-.82-.48-1.06-.86l-1.68,1.09c.48.74,1.15,1.29,1.99,1.63l.76-1.85ZM129.91,30.89c-.23-.36-.38-.86-.38-1.58h-2c0,.99.2,1.9.7,2.67l1.68-1.09ZM129.53,29.3v-12.68h-2v12.68h2ZM147.72,23.49l.06,1,1.07-.07-.14-1.06-.99.13ZM144.39,23.69l-.98.2.17.86.87-.05-.06-1ZM144.03,22.92l-.78.63h0s.77-.63.77-.63ZM143.28,22.37l-.43.9h.01s.01,0,.01,0l.41-.91ZM140.78,22.51l.52.86h0s-.53-.86-.53-.86ZM140.57,24.24l-.65.76h0l.65-.76ZM141.86,24.76l-.21.98h.01s.2-.98.2-.98ZM144.23,25.24l.2-.98h0s-.2.98-.2.98ZM147.08,26.5l-.68.73.68-.73ZM147.26,31.05l-.79-.62h0s.79.62.79.62ZM145.19,32.56l.38.92h0s-.38-.92-.38-.92ZM138.04,32.02l-.58.81h0s.57-.81.57-.81ZM136.24,29.05l-.05-1-1.09.06.15,1.08.99-.14ZM139.82,28.86l.98-.2-.17-.84-.86.05.05,1ZM140.6,30.07l-.56.83h0s.55-.83.55-.83ZM143.73,30.12l.53.85h0s-.54-.85-.54-.85ZM144.32,29.15h1s0,0,0,0v-.02l-1,.02ZM143.91,28.34l-.62.78h.01s.61-.78.61-.78ZM142.65,27.85l.2-.98h0s-.19.98-.19.98ZM140.38,27.4l-.2.98h0s.2-.98.2-.98ZM137.52,26.07l-.71.7h0s.71-.7.71-.7ZM137.28,21.48l-.8-.6h0s.8.6.8.6ZM139.21,20.08l-.37-.93h0s.37.93.37.93ZM146.05,20.63l-.59.81h0s.59-.81.59-.81ZM147.65,22.49l-3.32.2.12,2,3.32-.2-.12-2ZM145.37,23.49c-.09-.45-.29-.86-.58-1.21l-1.54,1.27c.09.1.13.21.16.33l1.96-.39ZM144.81,22.3c-.3-.37-.68-.65-1.11-.84l-.81,1.83c.18.08.29.17.37.27l1.56-1.25ZM143.71,21.46c-.46-.22-.98-.31-1.51-.31v2c.31,0,.52.05.65.12l.85-1.81ZM142.2,21.16c-.7,0-1.37.15-1.95.51l1.05,1.7c.19-.12.48-.21.9-.21v-2ZM140.26,21.66c-.63.38-1.06.99-1.06,1.79h2s0-.02,0-.01c0,0,0,0,0,.01,0,0,.01-.03.1-.08l-1.03-1.71ZM139.2,23.45c0,.62.27,1.16.72,1.55l1.31-1.51s-.03-.03-.03-.03c0,0,0,0,0,0,0,0,0,0,0,0,0,0,0,0,0-.01h-2ZM139.92,25c.45.39,1.08.6,1.73.74l.42-1.96c-.57-.12-.79-.25-.84-.3l-1.31,1.51ZM141.66,25.74l2.37.48.39-1.96-2.37-.48-.4,1.96ZM144.03,26.22c1.18.24,1.93.61,2.37,1.02l1.36-1.47c-.81-.75-1.96-1.23-3.33-1.51l-.4,1.96ZM146.4,27.24c.4.37.62.85.62,1.55h2c0-1.19-.41-2.23-1.26-3.02l-1.36,1.47ZM147.01,28.79c0,.65-.19,1.18-.55,1.64l1.58,1.23c.65-.83.97-1.8.97-2.87h-2ZM146.46,30.43c-.38.49-.92.9-1.65,1.2l.77,1.85c1.01-.42,1.85-1.02,2.47-1.83l-1.58-1.22ZM144.81,31.64c-.73.3-1.6.46-2.63.46v2c1.24,0,2.38-.2,3.39-.61l-.76-1.85ZM142.19,32.1c-1.6,0-2.76-.33-3.57-.9l-1.15,1.64c1.25.88,2.85,1.26,4.72,1.26v-2ZM138.62,31.2c-.8-.57-1.25-1.31-1.39-2.29l-1.98.28c.21,1.52.96,2.75,2.21,3.64l1.16-1.63ZM136.3,30.05l3.57-.19-.1-2-3.57.19.1,2ZM138.84,29.06c.15.76.56,1.4,1.21,1.84l1.11-1.66c-.18-.12-.3-.29-.36-.58l-1.96.4ZM140.05,30.91c.62.41,1.36.57,2.14.57v-2c-.51,0-.84-.11-1.04-.24l-1.1,1.67ZM142.19,31.48c.75,0,1.47-.14,2.07-.52l-1.07-1.69c-.18.11-.48.21-1,.21v2ZM144.27,30.96c.62-.39,1.05-1,1.06-1.79l-2-.03s0,.01,0,.02c0,0,0,0,0,0,0,0,0,0,0,0,0,0,0,0,0,0,0,0-.03.05-.13.11l1.07,1.69ZM145.32,29.14c-.01-.65-.31-1.2-.81-1.58l-1.22,1.58s.03.02.03.03c0,0,0,0,0,0,0,0,0,0,0,0,0,0,0,0,0,.02l2-.03ZM144.53,27.56c-.45-.36-1.05-.56-1.69-.69l-.39,1.96c.5.1.74.22.84.3l1.24-1.57ZM142.84,26.87l-2.27-.45-.39,1.96,2.27.45.39-1.96ZM140.57,26.42c-1.17-.23-1.91-.62-2.34-1.05l-1.42,1.41c.82.82,1.98,1.33,3.37,1.61l.39-1.96ZM138.24,25.37c-.41-.42-.64-.97-.64-1.71h-2c0,1.21.39,2.27,1.22,3.11l1.43-1.4ZM137.59,23.66c0-.65.17-1.16.48-1.57l-1.6-1.2c-.6.8-.88,1.74-.88,2.77h2ZM138.07,22.09c.33-.44.82-.81,1.51-1.08l-.74-1.86c-.97.39-1.78.96-2.36,1.73l1.6,1.21ZM139.58,21.01c.69-.27,1.54-.42,2.57-.42v-2c-1.21,0-2.32.18-3.3.56l.73,1.86ZM142.14,20.58c1.52,0,2.59.32,3.31.85l1.19-1.61c-1.18-.87-2.71-1.24-4.5-1.24v2ZM145.46,21.44c.73.53,1.15,1.24,1.27,2.18l1.98-.26c-.19-1.47-.89-2.67-2.07-3.53l-1.18,1.61Z"/>
  </g>
</svg>