<?xml version="1.0" encoding="UTF-8"?>
<svg id="Layer_1" data-name="Layer 1" xmlns="http://www.w3.org/2000/svg" xmlns:xlink="http://www.w3.org/1999/xlink" viewBox="0 0 203 51">
  <defs>
    <style>
      .cls-1 {
        fill: #1e384d;
      }

      .cls-1, .cls-2, .cls-3, .cls-4 {
        stroke-width: 0px;
      }

      .cls-2 {
        fill: #fff;
      }

      .cls-2, .cls-4 {
        fill-rule: evenodd;
      }

      .cls-3 {
        fill: #87ceeb;
      }

      .cls-4 {
        fill: #cb8b35;
      }

      .cls-5 {
        mask: url(#mask);
      }
    </style>
    <mask id="mask" x="-3.65" y="-3.36" width="210.36" height="58" maskUnits="userSpaceOnUse">
      <g id="path-1-inside-1_21_312" data-name="path-1-inside-1 21 312">
        <path class="cls-2" d="M137.35.64H.35v50h202.36v-17.36L137.35.64Z"/>
      </g>
    </mask>
  </defs>
  <path class="cls-4" d="M137.35.64H.35v50h202.36v-17.36L137.35.64Z"/>
  <g class="cls-5">
    <path class="cls-3" d="M.35.64V-3.36H-3.65V.64H.35ZM137.35.64l1.79-3.58-.84-.42h-.94V.64ZM.35,50.64H-3.65v4H.35v-4ZM202.71,50.64v4h4v-4h-4ZM202.71,33.28h4v-2.47l-2.21-1.11-1.79,3.58ZM.35,4.64h137V-3.36H.35V4.64ZM4.35,50.64V.64H-3.65v50H4.35ZM202.71,46.64H.35v8h202.36v-8ZM198.71,33.28v17.36h8v-17.36h-8ZM204.5,29.7L139.13-2.94l-3.57,7.16,65.37,32.64,3.57-7.16Z"/>
  </g>
  <path class="cls-1" d="M45.27,22.8h-3.73c-.07-.48-.21-.91-.42-1.29-.21-.38-.48-.7-.81-.97-.33-.27-.71-.47-1.14-.61-.43-.14-.89-.21-1.39-.21-.9,0-1.69.22-2.36.67-.67.44-1.19,1.09-1.56,1.94-.37.85-.55,1.88-.55,3.09s.18,2.29.55,3.14c.38.85.9,1.49,1.57,1.92.67.43,1.45.65,2.33.65.49,0,.95-.07,1.37-.2.43-.13.8-.32,1.13-.57.33-.26.6-.57.82-.93.22-.36.38-.78.46-1.24l3.73.02c-.1.8-.34,1.57-.72,2.32-.38.74-.89,1.4-1.54,1.99-.64.58-1.41,1.04-2.3,1.38-.89.34-1.89.5-3.01.5-1.56,0-2.95-.35-4.18-1.06-1.22-.7-2.19-1.72-2.9-3.06-.7-1.34-1.06-2.95-1.06-4.85s.36-3.52,1.07-4.86c.72-1.34,1.69-2.35,2.91-3.05,1.23-.7,2.61-1.06,4.14-1.06,1.01,0,1.95.14,2.81.43.87.28,1.64.7,2.31,1.24.67.54,1.22,1.2,1.64,1.99.43.78.7,1.68.82,2.69ZM51.58,34.39c-.84,0-1.58-.14-2.23-.43-.65-.3-1.17-.73-1.55-1.3-.38-.58-.56-1.3-.56-2.16,0-.73.13-1.34.4-1.83.27-.49.63-.89,1.09-1.19.46-.3.98-.53,1.57-.68.59-.15,1.21-.26,1.86-.32.76-.08,1.38-.15,1.84-.22.47-.07.8-.18,1.01-.32.21-.14.32-.35.32-.63v-.05c0-.54-.17-.96-.51-1.25-.34-.3-.81-.44-1.43-.44-.65,0-1.17.14-1.56.43-.39.28-.64.64-.77,1.07l-3.36-.27c.17-.8.51-1.48,1.01-2.06.5-.59,1.14-1.03,1.93-1.35.8-.32,1.72-.48,2.76-.48.73,0,1.42.09,2.09.26.67.17,1.26.43,1.78.79.52.36.93.82,1.24,1.38.3.56.45,1.22.45,2v8.83h-3.44v-1.82h-.1c-.21.41-.49.77-.84,1.08-.35.31-.78.55-1.27.72-.49.17-1.07.26-1.71.26ZM52.62,31.88c.53,0,1.01-.11,1.41-.32.41-.22.73-.51.96-.87.23-.36.35-.78.35-1.24v-1.39c-.11.07-.27.14-.47.2-.19.06-.41.11-.66.16-.24.05-.49.09-.73.13-.24.03-.47.07-.66.09-.43.06-.8.16-1.12.3-.32.14-.57.32-.74.55-.18.23-.26.51-.26.85,0,.49.18.87.54,1.13.36.26.82.38,1.38.38ZM65.4,16.69v17.45h-3.63v-17.45h3.63ZM71.94,16.69v17.45h-3.63v-17.45h3.63ZM80.47,34.14v-17.45h6.99c1.28,0,2.36.19,3.21.57.86.38,1.5.91,1.93,1.59.43.67.65,1.44.65,2.32,0,.68-.14,1.28-.41,1.8-.27.51-.65.93-1.12,1.26-.47.32-1.01.55-1.62.69v.17c.66.03,1.29.22,1.87.56.59.35,1.06.83,1.42,1.46.36.62.55,1.36.55,2.22,0,.93-.23,1.75-.69,2.48-.45.72-1.13,1.29-2.02,1.71-.89.42-1.99.63-3.3.63h-7.46ZM84.16,31.12h3.01c1.03,0,1.78-.2,2.25-.59.47-.4.71-.93.71-1.59,0-.48-.12-.91-.35-1.28-.23-.37-.57-.66-1-.87-.43-.21-.93-.32-1.53-.32h-3.09v4.64ZM84.16,23.99h2.74c.51,0,.95-.09,1.35-.26.4-.18.71-.44.94-.77.23-.33.35-.72.35-1.18,0-.63-.22-1.14-.67-1.53-.44-.39-1.07-.58-1.89-.58h-2.8v4.32ZM100,34.39c-.84,0-1.58-.14-2.23-.43-.65-.3-1.17-.73-1.55-1.3-.38-.58-.56-1.3-.56-2.16,0-.73.13-1.34.4-1.83.27-.49.63-.89,1.09-1.19.46-.3.98-.53,1.57-.68.59-.15,1.21-.26,1.86-.32.76-.08,1.38-.15,1.84-.22.47-.07.8-.18,1.01-.32.21-.14.32-.35.32-.63v-.05c0-.54-.17-.96-.51-1.25-.33-.3-.81-.44-1.43-.44-.65,0-1.17.14-1.56.43-.39.28-.64.64-.77,1.07l-3.36-.27c.17-.8.51-1.48,1.01-2.06.5-.59,1.14-1.03,1.93-1.35.8-.32,1.72-.48,2.76-.48.73,0,1.42.09,2.09.26.67.17,1.26.43,1.78.79.52.36.93.82,1.24,1.38.3.56.45,1.22.45,2v8.83h-3.44v-1.82h-.1c-.21.41-.49.77-.84,1.08-.35.31-.78.55-1.27.72-.49.17-1.06.26-1.71.26ZM101.04,31.88c.53,0,1.01-.11,1.42-.32.41-.22.73-.51.96-.87.23-.36.35-.78.35-1.24v-1.39c-.11.07-.27.14-.47.2-.19.06-.41.11-.66.16-.24.05-.49.09-.73.13-.24.03-.47.07-.67.09-.43.06-.8.16-1.12.3-.32.14-.57.32-.74.55-.18.23-.26.51-.26.85,0,.49.18.87.54,1.13.36.26.82.38,1.38.38ZM116.11,34.4c-1.34,0-2.49-.28-3.46-.85-.96-.57-1.7-1.37-2.22-2.39-.51-1.02-.77-2.19-.77-3.51s.26-2.52.78-3.53c.52-1.02,1.26-1.81,2.22-2.38.96-.57,2.1-.86,3.43-.86,1.14,0,2.14.21,3,.62.86.41,1.54,1,2.04,1.75s.78,1.63.83,2.64h-3.43c-.1-.65-.35-1.18-.77-1.58-.41-.4-.95-.61-1.61-.61-.56,0-1.05.15-1.47.46-.42.3-.74.74-.97,1.32-.23.58-.35,1.28-.35,2.11s.11,1.55.34,2.13c.23.59.56,1.03.98,1.34.42.31.91.46,1.47.46.42,0,.79-.09,1.12-.26.33-.17.61-.42.83-.74.22-.33.37-.72.43-1.18h3.43c-.06,1-.33,1.88-.82,2.64-.48.76-1.15,1.35-2,1.77-.85.43-1.86.64-3.02.64ZM127.57,30.37v-4.36h.54l4.19-4.97h4.17l-5.63,6.58h-.86l-2.4,2.74ZM124.28,34.14v-17.45h3.63v17.45h-3.63ZM132.46,34.14l-3.85-5.7,2.42-2.57,5.69,8.27h-4.25Z"/>
</svg>