<?xml version="1.0" encoding="UTF-8"?>
<svg id="Layer_1" data-name="Layer 1" xmlns="http://www.w3.org/2000/svg" xmlns:xlink="http://www.w3.org/1999/xlink" viewBox="0 0 178 51">
  <defs>
    <style>
      .cls-1 {
        fill: #1e384d;
      }

      .cls-1, .cls-2, .cls-3, .cls-4 {
        stroke-width: 0px;
      }

      .cls-2 {
        fill: #fff;
      }

      .cls-2, .cls-4 {
        fill-rule: evenodd;
      }

      .cls-3 {
        fill: #87ceeb;
      }

      .cls-4 {
        fill: #cb8b35;
      }

      .cls-5 {
        mask: url(#mask);
      }
    </style>
    <mask id="mask" x="-3.02" y="-3.69" width="184.55" height="58" maskUnits="userSpaceOnUse">
      <g id="path-1-inside-1_21_313" data-name="path-1-inside-1 21 313">
        <path class="cls-2" d="M120.5.31H.98v50h176.55v-17.36L120.5.31Z"/>
      </g>
    </mask>
  </defs>
  <path class="cls-4" d="M120.5.31H.98v50h176.55v-17.36L120.5.31Z"/>
  <g class="cls-5">
    <path class="cls-3" d="M.98.31V-3.69h-4V.31H.98ZM120.5.31l1.99-3.47-.92-.53h-1.06V.31ZM.98,50.31h-4v4H.98v-4ZM177.52,50.31v4h4v-4h-4ZM177.52,32.95h4v-2.32l-2.01-1.15-1.99,3.47ZM.98,4.31h119.52V-3.69H.98V4.31ZM4.98,50.31V.31H-3.02v50h8ZM177.52,46.31H.98v8h176.55v-8ZM173.52,32.95v17.36h8v-17.36h-8ZM179.51,29.48L122.48-3.16l-3.97,6.94,57.03,32.64,3.97-6.94Z"/>
  </g>
  <path class="cls-1" d="M30.49,33.81v-17.45h3.69v14.41h7.48v3.04h-11.17ZM49.96,34.07c-1.32,0-2.47-.28-3.43-.84-.96-.57-1.7-1.36-2.22-2.37-.52-1.02-.78-2.2-.78-3.54s.26-2.53.78-3.55c.52-1.02,1.26-1.81,2.22-2.37.97-.57,2.11-.85,3.43-.85s2.47.28,3.43.85c.97.56,1.71,1.35,2.23,2.37.52,1.01.78,2.19.78,3.55s-.26,2.52-.78,3.54c-.52,1.01-1.27,1.8-2.23,2.37-.96.56-2.1.84-3.43.84ZM49.97,31.26c.6,0,1.11-.17,1.51-.51.4-.35.71-.82.91-1.41.21-.6.32-1.28.32-2.04s-.11-1.44-.32-2.04c-.2-.6-.51-1.07-.91-1.41s-.91-.52-1.51-.52-1.12.17-1.53.52c-.41.35-.72.82-.93,1.41-.2.6-.31,1.28-.31,2.04s.1,1.44.31,2.04c.21.6.52,1.07.93,1.41.41.34.93.51,1.53.51ZM64.66,38.99c-1.18,0-2.18-.16-3.03-.49-.84-.32-1.5-.75-1.99-1.3-.49-.55-.82-1.17-.96-1.86l3.36-.45c.1.26.26.51.49.73.22.23.51.41.88.55.37.14.82.21,1.35.21.79,0,1.44-.19,1.95-.58.52-.38.78-1.02.78-1.92v-2.39h-.15c-.16.36-.4.71-.72,1.03-.32.32-.73.59-1.23.79-.5.2-1.1.31-1.79.31-.98,0-1.88-.23-2.68-.68-.8-.46-1.44-1.16-1.92-2.11-.47-.95-.71-2.15-.71-3.6s.24-2.72.72-3.72c.48-.99,1.12-1.74,1.93-2.23.81-.49,1.69-.74,2.65-.74.73,0,1.35.12,1.84.38.49.24.89.55,1.19.92.31.36.54.72.71,1.07h.14v-2.2h3.61v13.22c0,1.11-.27,2.05-.82,2.8-.55.75-1.3,1.31-2.27,1.69-.96.38-2.07.57-3.32.57ZM64.74,30.9c.59,0,1.08-.14,1.48-.43.41-.3.72-.72.94-1.26.22-.55.33-1.21.33-1.98s-.11-1.43-.32-1.99c-.22-.57-.53-1.01-.94-1.32-.41-.31-.91-.47-1.49-.47s-1.1.16-1.51.49c-.41.32-.72.76-.93,1.33-.21.57-.32,1.22-.32,1.97s.11,1.41.32,1.96c.22.55.53.97.93,1.27.41.3.91.44,1.51.44ZM95.61,25.09c0,1.9-.36,3.52-1.08,4.86-.72,1.34-1.69,2.36-2.93,3.06-1.23.7-2.62,1.05-4.16,1.05s-2.94-.35-4.18-1.06c-1.23-.7-2.21-1.72-2.92-3.06-.72-1.34-1.07-2.95-1.07-4.85s.36-3.52,1.07-4.86c.72-1.34,1.69-2.35,2.92-3.05,1.23-.7,2.62-1.06,4.18-1.06s2.93.35,4.16,1.06c1.24.7,2.22,1.72,2.93,3.05.72,1.34,1.08,2.95,1.08,4.86ZM91.87,25.09c0-1.23-.18-2.27-.55-3.12-.36-.85-.88-1.49-1.54-1.93-.66-.44-1.44-.66-2.34-.66s-1.67.22-2.34.66c-.66.44-1.18,1.08-1.55,1.93-.36.85-.55,1.89-.55,3.12s.18,2.27.55,3.12c.37.85.89,1.49,1.55,1.93.66.44,1.44.66,2.34.66s1.67-.22,2.34-.66c.66-.44,1.18-1.08,1.54-1.93.37-.85.55-1.89.55-3.12ZM106.67,28.24v-7.52h3.63v13.09h-3.49v-2.38h-.14c-.29.77-.79,1.38-1.47,1.85-.68.47-1.51.7-2.5.7-.88,0-1.64-.2-2.31-.6-.66-.4-1.18-.96-1.56-1.7-.37-.73-.56-1.61-.56-2.63v-8.34h3.63v7.69c0,.77.21,1.38.62,1.83.41.45.96.67,1.65.67.44,0,.85-.1,1.23-.3.38-.2.69-.51.92-.9.24-.4.36-.89.35-1.47ZM120.17,20.72v2.73h-7.88v-2.73h7.88ZM114.08,17.59h3.63v12.2c0,.34.05.6.15.78.1.18.24.31.43.38.19.07.4.11.65.11.17,0,.34-.01.51-.04.17-.03.3-.06.39-.08l.57,2.7c-.18.06-.44.12-.77.2-.33.08-.73.13-1.2.14-.88.03-1.64-.08-2.3-.35-.65-.27-1.16-.68-1.53-1.24-.36-.56-.54-1.27-.54-2.13v-12.68Z"/>
</svg>