<?xml version="1.0" encoding="UTF-8"?>
<svg id="Layer_1" data-name="Layer 1" xmlns="http://www.w3.org/2000/svg" xmlns:xlink="http://www.w3.org/1999/xlink" viewBox="0 0 384 218">
  <defs>
    <style>
      .cls-1 {
        fill: rgba(135, 206, 235, .75);
      }

      .cls-1, .cls-2, .cls-3, .cls-4, .cls-5 {
        stroke-width: 0px;
      }

      .cls-2 {
        fill: rgba(37, 69, 96, .8);
      }

      .cls-2, .cls-3, .cls-4 {
        fill-rule: evenodd;
      }

      .cls-3 {
        fill: rgba(89, 135, 154, .75);
      }

      .cls-4 {
        fill: #fff;
      }

      .cls-5 {
        fill: #cb8b35;
      }

      .cls-6 {
        mask: url(#mask-1);
      }

      .cls-7 {
        mask: url(#mask);
      }
    </style>
    <mask id="mask" x="-3.12" y="-.59" width="390" height="51" maskUnits="userSpaceOnUse">
      <g id="path-1-inside-1_12_516" data-name="path-1-inside-1 12 516">
        <path class="cls-4" d="M383.87,21.14v.02h-20v-.13l-14.95-18.62H34.82l-14.95,18.62v.13H-.12v26.25h25.05l-.05-.06,14.99-18.67v-.02h304.01v.02l14.99,18.67-.05.06h25.05v-26.27h0Z"/>
      </g>
    </mask>
    <mask id="mask-1" x="-3.12" y="172.41" width="390" height="51" maskUnits="userSpaceOnUse">
      <g id="path-3-inside-2_12_516" data-name="path-3-inside-2 12 516">
        <path class="cls-4" d="M383.87,201.68v-.02h-20v.13l-14.95,18.62H34.82l-14.95-18.62v-.13H-.12v-26.25h25.05l-.05.06,14.99,18.67v.02h304.01v-.02l14.99-18.67-.05-.06h25.05v26.27h0Z"/>
      </g>
    </mask>
  </defs>
  <path class="cls-3" d="M383.87,21.14v.02h-20v-.13l-14.95-18.62H34.82l-14.95,18.62v.13H-.12v26.25h25.05l-.05-.06,14.99-18.67v-.02h304.01v.02l14.99,18.67-.05.06h25.05v-26.27h0Z"/>
  <g class="cls-7">
    <path class="cls-1" d="M383.87,21.16v3c1.66,0,3-1.34,3-3h-3ZM383.87,21.14v-3c-1.66,0-3,1.34-3,3h3ZM363.87,21.16h-3c0,1.66,1.34,3,3,3v-3ZM363.87,21.02h3c0-.68-.23-1.35-.66-1.88l-2.34,1.88ZM348.92,2.41l2.34-1.88c-.57-.71-1.43-1.12-2.34-1.12v3ZM34.82,2.41V-.59c-.91,0-1.77.41-2.34,1.12l2.34,1.88ZM19.88,21.02l-2.34-1.88c-.43.53-.66,1.2-.66,1.88h3ZM19.88,21.16v3c1.66,0,3-1.34,3-3h-3ZM-.12,21.16v-3c-1.66,0-3,1.34-3,3H-.12ZM-.12,47.41h-3c0,1.66,1.34,3,3,3v-3ZM24.92,47.41v3c1.15,0,2.21-.66,2.71-1.7.5-1.04.36-2.28-.37-3.18l-2.34,1.88ZM24.88,47.35l-2.34-1.88c-.88,1.1-.88,2.66,0,3.76l2.34-1.88ZM39.87,28.68l2.34,1.88c.43-.53.66-1.2.66-1.88h-3ZM39.87,28.66v-3c-1.66,0-3,1.34-3,3h3ZM343.88,28.66h3c0-1.66-1.34-3-3-3v3ZM343.88,28.68h-3c0,.68.23,1.35.66,1.88l2.34-1.88ZM358.87,47.35l2.34,1.88c.88-1.1.88-2.66,0-3.76l-2.34,1.88ZM358.82,47.41l-2.34-1.88c-.72.9-.87,2.13-.37,3.18.5,1.04,1.55,1.7,2.7,1.7v-3ZM383.88,47.41v3c1.66,0,3-1.34,3-3h-3ZM383.88,21.14h3c0-1.66-1.34-3-3-3v3ZM386.87,21.16v-.02h-6v.02h6ZM363.87,24.16h20v-6h-20v6ZM360.87,21.02v.13h6v-.13h-6ZM346.58,4.28l14.95,18.62,4.68-3.76-14.95-18.62-4.68,3.76ZM34.82,5.41h314.1V-.59H34.82v6ZM22.21,22.9l14.95-18.62-4.68-3.76-14.95,18.62,4.68,3.76ZM22.88,21.16v-.13h-6v.13h6ZM-.12,24.16h20v-6H-.12v6ZM2.88,47.41v-26.25H-3.12v26.25H2.88ZM24.92,44.41H-.12v6h25.05v-6ZM22.54,49.23l.05.06,4.68-3.76-.05-.06-4.68,3.76ZM37.53,26.8l-14.99,18.67,4.68,3.76,14.99-18.67-4.68-3.76ZM36.87,28.66v.02h6v-.02h-6ZM55.88,25.66h-16.01v6h16.01v-6ZM59.87,25.66h-3.99v6h3.99v-6ZM323.88,25.66H59.87v6h264.01v-6ZM328.88,25.66h-5v6h5v-6ZM343.88,25.66h-15v6h15v-6ZM346.88,28.68v-.02h-6v.02h6ZM361.21,45.47l-14.99-18.67-4.68,3.76,14.99,18.67,4.68-3.76ZM361.16,49.28l.05-.06-4.68-3.76-.05.06,4.68,3.76ZM383.88,44.41h-25.05v6h25.05v-6ZM380.88,21.14v26.27h6v-26.27h-6ZM383.88,18.14h0v6h0v-6Z"/>
  </g>
  <path class="cls-3" d="M383.87,201.68v-.02h-20v.13l-14.95,18.62H34.82l-14.95-18.62v-.13H-.12v-26.25h25.05l-.05.06,14.99,18.67v.02h304.01v-.02l14.99-18.67-.05-.06h25.05v26.27h0Z"/>
  <g class="cls-6">
    <path class="cls-1" d="M383.87,201.66v-3c1.66,0,3,1.34,3,3h-3ZM383.87,201.68v3c-1.66,0-3-1.34-3-3h3ZM363.87,201.66h-3c0-1.66,1.34-3,3-3v3ZM363.87,201.79h3c0,.68-.23,1.35-.66,1.88l-2.34-1.88ZM348.92,220.41l2.34,1.88c-.57.71-1.43,1.12-2.34,1.12v-3ZM34.82,220.41v3c-.91,0-1.77-.41-2.34-1.12l2.34-1.88ZM19.88,201.79l-2.34,1.88c-.43-.53-.66-1.2-.66-1.88h3ZM19.88,201.66v-3c1.66,0,3,1.34,3,3h-3ZM-.12,201.66v3c-1.66,0-3-1.34-3-3H-.12ZM-.12,175.41h-3c0-1.66,1.34-3,3-3v3ZM24.92,175.41v-3c1.15,0,2.21.66,2.71,1.7.5,1.04.36,2.27-.37,3.18l-2.34-1.88ZM24.88,175.46l-2.34,1.88c-.88-1.1-.88-2.66,0-3.76l2.34,1.88ZM39.87,194.13l2.34-1.88c.43.53.66,1.2.66,1.88h-3ZM39.87,194.16v3c-1.66,0-3-1.34-3-3h3ZM343.88,194.16h3c0,1.66-1.34,3-3,3v-3ZM343.88,194.13h-3c0-.68.23-1.35.66-1.88l2.34,1.88ZM358.87,175.46l2.34-1.88c.88,1.1.88,2.66,0,3.76l-2.34-1.88ZM358.82,175.41l-2.34,1.88c-.72-.9-.87-2.13-.37-3.18.5-1.04,1.55-1.7,2.7-1.7v3ZM383.88,175.41v-3c1.66,0,3,1.34,3,3h-3ZM383.88,201.68h3c0,1.66-1.34,3-3,3v-3ZM386.87,201.66v.02h-6v-.02h6ZM363.87,198.66h20v6h-20v-6ZM360.87,201.79v-.13h6v.13h-6ZM346.58,218.53l14.95-18.62,4.68,3.76-14.95,18.62-4.68-3.76ZM34.82,217.41h314.1v6H34.82v-6ZM22.21,199.91l14.95,18.62-4.68,3.76-14.95-18.62,4.68-3.76ZM22.88,201.66v.13h-6v-.13h6ZM-.12,198.66h20v6H-.12v-6ZM2.88,175.41v26.25H-3.12v-26.25H2.88ZM24.92,178.41H-.12v-6h25.05v6ZM22.54,173.58l.05-.06,4.68,3.76-.05.06-4.68-3.76ZM37.53,196.01l-14.99-18.67,4.68-3.76,14.99,18.67-4.68,3.76ZM36.87,194.16v-.02h6v.02h-6ZM55.88,197.16h-16.01v-6h16.01v6ZM59.87,197.16h-3.99v-6h3.99v6ZM323.88,197.16H59.87v-6h264.01v6ZM328.88,197.16h-5v-6h5v6ZM343.88,197.16h-15v-6h15v6ZM346.88,194.13v.02h-6v-.02h6ZM361.21,177.34l-14.99,18.67-4.68-3.76,14.99-18.67,4.68,3.76ZM361.16,173.53l.05.06-4.68,3.76-.05-.06,4.68-3.76ZM383.88,178.41h-25.05v-6h25.05v6ZM380.88,201.68v-26.27h6v26.27h-6ZM383.88,204.68h0v-6h0v6Z"/>
  </g>
  <path class="cls-2" d="M25.88,172.41H2.85V50.41h23.02l15.5-19.42h301.5l15.5,18.92h23.48v123h-23.48l-15.5,18.92H41.38l-15.5-19.42Z"/>
  <path class="cls-5" d="M9.91,148.53h13.96v2.8h-9.08l9.08,3.74v2.12l-9.08,3.76h9.08v2.8h-13.96v-3.18l10.38-4.44-10.38-4.44v-3.16ZM9.91,142.96h13.96v2.8h-13.96v-2.8ZM24.01,135.37c0,.97-.17,1.85-.5,2.64-.33.77-.81,1.39-1.44,1.84-.63.45-1.37.69-2.22.7v-3c.57-.04,1.03-.24,1.36-.6.33-.37.5-.88.5-1.52s-.15-1.17-.46-1.54c-.32-.37-.73-.56-1.24-.56-.41,0-.75.13-1.02.38-.27.25-.47.57-.62.96-.16.37-.33.89-.52,1.56-.27.91-.53,1.65-.78,2.22-.27.56-.66,1.05-1.18,1.46-.53.4-1.24.6-2.12.6-.83,0-1.55-.21-2.16-.62-.61-.41-1.08-.99-1.4-1.74-.33-.75-.5-1.6-.5-2.56,0-1.44.35-2.61,1.06-3.5.69-.91,1.67-1.41,2.92-1.5v3.08c-.48.03-.87.23-1.18.62-.32.37-.48.87-.48,1.5,0,.55.14.99.42,1.32.28.32.69.48,1.22.48.37,0,.69-.12.94-.36.24-.25.44-.56.6-.92.15-.37.32-.89.52-1.56.27-.91.53-1.65.8-2.22.27-.57.67-1.07,1.2-1.48.53-.41,1.23-.62,2.1-.62.75,0,1.44.19,2.08.58.64.39,1.15.95,1.54,1.7.37.75.56,1.63.56,2.66ZM24.01,123.18c0,.97-.17,1.85-.5,2.64-.33.77-.81,1.39-1.44,1.84-.63.45-1.37.69-2.22.7v-3c.57-.04,1.03-.24,1.36-.6.33-.37.5-.88.5-1.52s-.15-1.17-.46-1.54c-.32-.37-.73-.56-1.24-.56-.41,0-.75.13-1.02.38-.27.25-.47.57-.62.96-.16.37-.33.89-.52,1.56-.27.91-.53,1.65-.78,2.22-.27.56-.66,1.05-1.18,1.46-.53.4-1.24.6-2.12.6-.83,0-1.55-.21-2.16-.62-.61-.41-1.08-.99-1.4-1.74-.33-.75-.5-1.6-.5-2.56,0-1.44.35-2.61,1.06-3.5.69-.91,1.67-1.41,2.92-1.5v3.08c-.48.03-.87.23-1.18.62-.32.37-.48.87-.48,1.5,0,.55.14.99.42,1.32.28.32.69.48,1.22.48.37,0,.69-.12.94-.36.24-.25.44-.56.6-.92.15-.37.32-.89.52-1.56.27-.91.53-1.65.8-2.22.27-.57.67-1.07,1.2-1.48.53-.41,1.23-.62,2.1-.62.75,0,1.44.19,2.08.58.64.39,1.15.95,1.54,1.7.37.75.56,1.63.56,2.66ZM9.91,113.02h13.96v2.8h-13.96v-2.8ZM24.01,103.77c0,1.31-.31,2.51-.92,3.6-.61,1.09-1.46,1.96-2.54,2.6-1.09.64-2.33.96-3.7.96s-2.58-.32-3.66-.96c-1.09-.64-1.95-1.51-2.56-2.6-.61-1.09-.92-2.29-.92-3.6s.31-2.52.92-3.6c.61-1.09,1.47-1.95,2.56-2.58,1.08-.64,2.3-.96,3.66-.96s2.61.32,3.7.96c1.08.63,1.93,1.49,2.54,2.58.61,1.09.92,2.29.92,3.6ZM21.51,103.77c0-.84-.19-1.58-.56-2.22-.39-.64-.93-1.14-1.64-1.5-.71-.36-1.53-.54-2.46-.54s-1.75.18-2.44.54c-.71.36-1.25.86-1.62,1.5-.37.64-.56,1.38-.56,2.22s.19,1.59.56,2.24c.37.64.91,1.14,1.62,1.5.69.36,1.51.54,2.44.54s1.75-.18,2.46-.54c.71-.36,1.25-.86,1.64-1.5.37-.65.56-1.4.56-2.24ZM23.88,82.61v2.8l-9.58,6.34h9.58v2.8h-13.98v-2.8l9.6-6.34h-9.6v-2.8h13.98ZM15.56,71.32h2.36v8.48h-2.36v-8.48ZM11.72,58.7v6.48h3.42c-.35-.28-.63-.68-.84-1.2-.23-.52-.34-1.07-.34-1.66,0-1.07.23-1.94.7-2.62.47-.68,1.07-1.17,1.8-1.48.72-.31,1.49-.46,2.32-.46,1.53,0,2.77.44,3.7,1.32.93.87,1.4,2.11,1.4,3.72,0,1.52-.38,2.73-1.14,3.64-.76.91-1.75,1.42-2.98,1.54v-2.72c.53-.12.96-.39,1.28-.8.32-.43.48-.97.48-1.62,0-.79-.25-1.38-.74-1.78-.49-.4-1.15-.6-1.96-.6s-1.45.21-1.88.62c-.44.4-.66.99-.66,1.78,0,.56.14,1.03.42,1.4.28.37.65.64,1.12.8v2.68h-8.56v-9.04h2.46Z"/>
</svg>