<?xml version="1.0" encoding="UTF-8"?>
<svg id="Layer_1" data-name="Layer 1" xmlns="http://www.w3.org/2000/svg" xmlns:xlink="http://www.w3.org/1999/xlink" viewBox="0 0 384 218">
  <defs>
    <style>
      .cls-1 {
        fill: rgba(135, 206, 235, .75);
      }

      .cls-1, .cls-2, .cls-3, .cls-4, .cls-5 {
        stroke-width: 0px;
      }

      .cls-2 {
        fill: rgba(37, 69, 96, .8);
      }

      .cls-2, .cls-3, .cls-4 {
        fill-rule: evenodd;
      }

      .cls-3 {
        fill: rgba(89, 135, 154, .75);
      }

      .cls-4 {
        fill: #fff;
      }

      .cls-5 {
        fill: #cb8b35;
      }

      .cls-6 {
        mask: url(#mask-1);
      }

      .cls-7 {
        mask: url(#mask);
      }
    </style>
    <mask id="mask" x="-2.92" y="-2.58" width="390" height="51" maskUnits="userSpaceOnUse">
      <g id="path-1-inside-1_12_462" data-name="path-1-inside-1 12 462">
        <path class="cls-4" d="M384.08,19.15v.02h-20v-.13L349.13.42H35.03l-14.95,18.62v.13H.08v26.25h25.05l-.05-.06,14.99-18.67v-.02h304.01v.02l14.99,18.67-.05.06h25.05v-26.27h0Z"/>
      </g>
    </mask>
    <mask id="mask-1" x="-2.92" y="170.42" width="390" height="51" maskUnits="userSpaceOnUse">
      <g id="path-3-inside-2_12_462" data-name="path-3-inside-2 12 462">
        <path class="cls-4" d="M384.08,199.69v-.02h-20v.13l-14.95,18.62H35.03l-14.95-18.62v-.13H.08v-26.25h25.05l-.05.06,14.99,18.67v.02h304.01v-.02l14.99-18.67-.05-.06h25.05v26.27h0Z"/>
      </g>
    </mask>
  </defs>
  <path class="cls-3" d="M384.08,19.15v.02h-20v-.13L349.13.42H35.03l-14.95,18.62v.13H.08v26.25h25.05l-.05-.06,14.99-18.67v-.02h304.01v.02l14.99,18.67-.05.06h25.05v-26.27h0Z"/>
  <g class="cls-7">
    <path class="cls-1" d="M384.08,19.17v3c1.66,0,3-1.34,3-3h-3ZM384.08,19.15v-3c-1.66,0-3,1.34-3,3h3ZM364.08,19.17h-3c0,1.66,1.34,3,3,3v-3ZM364.08,19.03h3c0-.68-.23-1.35-.66-1.88l-2.34,1.88ZM349.13.42l2.34-1.88c-.57-.71-1.43-1.12-2.34-1.12V.42ZM35.03.42v-3c-.91,0-1.77.41-2.34,1.12l2.34,1.88ZM20.08,19.03l-2.34-1.88c-.43.53-.66,1.2-.66,1.88h3ZM20.08,19.17v3c1.66,0,3-1.34,3-3h-3ZM.08,19.17v-3c-1.66,0-3,1.34-3,3H.08ZM.08,45.42h-3c0,1.66,1.34,3,3,3v-3ZM25.13,45.42v3c1.15,0,2.21-.66,2.71-1.7.5-1.04.36-2.28-.37-3.18l-2.34,1.88ZM25.08,45.36l-2.34-1.88c-.88,1.1-.88,2.66,0,3.76l2.34-1.88ZM40.08,26.69l2.34,1.88c.43-.53.66-1.2.66-1.88h-3ZM40.08,26.67v-3c-1.66,0-3,1.34-3,3h3ZM344.08,26.67h3c0-1.66-1.34-3-3-3v3ZM344.08,26.69h-3c0,.68.23,1.35.66,1.88l2.34-1.88ZM359.08,45.36l2.34,1.88c.88-1.1.88-2.66,0-3.76l-2.34,1.88ZM359.03,45.42l-2.34-1.88c-.72.9-.87,2.13-.37,3.18.5,1.04,1.55,1.7,2.7,1.7v-3ZM384.08,45.42v3c1.66,0,3-1.34,3-3h-3ZM384.08,19.15h3c0-1.66-1.34-3-3-3v3ZM387.08,19.17v-.02h-6v.02h6ZM364.08,22.17h20v-6h-20v6ZM361.08,19.03v.13h6v-.13h-6ZM346.79,2.3l14.95,18.62,4.68-3.76-14.95-18.62-4.68,3.76ZM35.03,3.42h314.1V-2.58H35.03V3.42ZM22.42,20.91L37.37,2.3l-4.68-3.76-14.95,18.62,4.68,3.76ZM23.08,19.17v-.13h-6v.13h6ZM.08,22.17h20v-6H.08v6ZM3.08,45.42v-26.25H-2.92v26.25H3.08ZM25.13,42.42H.08v6h25.05v-6ZM22.74,47.24l.05.06,4.68-3.76-.05-.06-4.68,3.76ZM37.74,24.81l-14.99,18.67,4.68,3.76,14.99-18.67-4.68-3.76ZM37.08,26.67v.02h6v-.02h-6ZM56.08,23.67h-16.01v6h16.01v-6ZM60.08,23.67h-3.99v6h3.99v-6ZM324.08,23.67H60.08v6h264.01v-6ZM329.08,23.67h-5v6h5v-6ZM344.08,23.67h-15v6h15v-6ZM347.08,26.69v-.02h-6v.02h6ZM361.42,43.48l-14.99-18.67-4.68,3.76,14.99,18.67,4.68-3.76ZM361.37,47.3l.05-.06-4.68-3.76-.05.06,4.68,3.76ZM384.08,42.42h-25.05v6h25.05v-6ZM381.08,19.15v26.27h6v-26.27h-6ZM384.08,16.15h0v6h0v-6Z"/>
  </g>
  <path class="cls-3" d="M384.08,199.69v-.02h-20v.13l-14.95,18.62H35.03l-14.95-18.62v-.13H.08v-26.25h25.05l-.05.06,14.99,18.67v.02h304.01v-.02l14.99-18.67-.05-.06h25.05v26.27h0Z"/>
  <g class="cls-6">
    <path class="cls-1" d="M384.08,199.67v-3c1.66,0,3,1.34,3,3h-3ZM384.08,199.69v3c-1.66,0-3-1.34-3-3h3ZM364.08,199.67h-3c0-1.66,1.34-3,3-3v3ZM364.08,199.8h3c0,.68-.23,1.35-.66,1.88l-2.34-1.88ZM349.13,218.42l2.34,1.88c-.57.71-1.43,1.12-2.34,1.12v-3ZM35.03,218.42v3c-.91,0-1.77-.41-2.34-1.12l2.34-1.88ZM20.08,199.8l-2.34,1.88c-.43-.53-.66-1.2-.66-1.88h3ZM20.08,199.67v-3c1.66,0,3,1.34,3,3h-3ZM.08,199.67v3c-1.66,0-3-1.34-3-3H.08ZM.08,173.42h-3c0-1.66,1.34-3,3-3v3ZM25.13,173.42v-3c1.15,0,2.21.66,2.71,1.7.5,1.04.36,2.27-.37,3.18l-2.34-1.88ZM25.08,173.47l-2.34,1.88c-.88-1.1-.88-2.66,0-3.76l2.34,1.88ZM40.08,192.15l2.34-1.88c.43.53.66,1.2.66,1.88h-3ZM40.08,192.17v3c-1.66,0-3-1.34-3-3h3ZM344.08,192.17h3c0,1.66-1.34,3-3,3v-3ZM344.08,192.15h-3c0-.68.23-1.35.66-1.88l2.34,1.88ZM359.08,173.47l2.34-1.88c.88,1.1.88,2.66,0,3.76l-2.34-1.88ZM359.03,173.42l-2.34,1.88c-.72-.9-.87-2.13-.37-3.18.5-1.04,1.55-1.7,2.7-1.7v3ZM384.08,173.42v-3c1.66,0,3,1.34,3,3h-3ZM384.08,199.69h3c0,1.66-1.34,3-3,3v-3ZM387.08,199.67v.02h-6v-.02h6ZM364.08,196.67h20v6h-20v-6ZM361.08,199.8v-.13h6v.13h-6ZM346.79,216.54l14.95-18.62,4.68,3.76-14.95,18.62-4.68-3.76ZM35.03,215.42h314.1v6H35.03v-6ZM22.42,197.92l14.95,18.62-4.68,3.76-14.95-18.62,4.68-3.76ZM23.08,199.67v.13h-6v-.13h6ZM.08,196.67h20v6H.08v-6ZM3.08,173.42v26.25H-2.92v-26.25H3.08ZM25.13,176.42H.08v-6h25.05v6ZM22.74,171.6l.05-.06,4.68,3.76-.05.06-4.68-3.76ZM37.74,194.02l-14.99-18.67,4.68-3.76,14.99,18.67-4.68,3.76ZM37.08,192.17v-.02h6v.02h-6ZM56.08,195.17h-16.01v-6h16.01v6ZM60.08,195.17h-3.99v-6h3.99v6ZM324.08,195.17H60.08v-6h264.01v6ZM329.08,195.17h-5v-6h5v6ZM344.08,195.17h-15v-6h15v6ZM347.08,192.15v.02h-6v-.02h6ZM361.42,175.35l-14.99,18.67-4.68-3.76,14.99-18.67,4.68,3.76ZM361.37,171.54l.05.06-4.68,3.76-.05-.06,4.68-3.76ZM384.08,176.42h-25.05v-6h25.05v6ZM381.08,199.69v-26.27h6v26.27h-6ZM384.08,202.69h0v-6h0v6Z"/>
  </g>
  <path class="cls-2" d="M26.08,170.42H3.06V48.42h23.02l15.5-19.42h301.5l15.5,18.92h23.48v123h-23.48l-15.5,18.92H41.58l-15.5-19.42Z"/>
  <path class="cls-5" d="M10.12,143.72h13.96v2.8h-9.08l9.08,3.74v2.12l-9.08,3.76h9.08v2.8h-13.96v-3.18l10.38-4.44-10.38-4.44v-3.16ZM10.12,138.16h13.96v2.8h-13.96v-2.8ZM24.22,130.57c0,.97-.17,1.85-.5,2.64-.33.77-.81,1.39-1.44,1.84-.63.45-1.37.69-2.22.7v-3c.57-.04,1.03-.24,1.36-.6.33-.37.5-.88.5-1.52s-.15-1.17-.46-1.54c-.32-.37-.73-.56-1.24-.56-.41,0-.75.13-1.02.38-.27.25-.47.57-.62.96-.16.37-.33.89-.52,1.56-.27.91-.53,1.65-.78,2.22-.27.56-.66,1.05-1.18,1.46-.53.4-1.24.6-2.12.6-.83,0-1.55-.21-2.16-.62-.61-.41-1.08-.99-1.4-1.74-.33-.75-.5-1.6-.5-2.56,0-1.44.35-2.61,1.06-3.5.69-.91,1.67-1.41,2.92-1.5v3.08c-.48.03-.87.23-1.18.62-.32.37-.48.87-.48,1.5,0,.55.14.99.42,1.32.28.32.69.48,1.22.48.37,0,.69-.12.94-.36.24-.25.44-.56.6-.92.15-.37.32-.89.52-1.56.27-.91.53-1.65.8-2.22.27-.57.67-1.07,1.2-1.48.53-.41,1.23-.62,2.1-.62.75,0,1.44.19,2.08.58.64.39,1.15.95,1.54,1.7.37.75.56,1.63.56,2.66ZM24.22,118.38c0,.97-.17,1.85-.5,2.64-.33.77-.81,1.39-1.44,1.84-.63.45-1.37.69-2.22.7v-3c.57-.04,1.03-.24,1.36-.6.33-.37.5-.88.5-1.52s-.15-1.17-.46-1.54c-.32-.37-.73-.56-1.24-.56-.41,0-.75.13-1.02.38-.27.25-.47.57-.62.96-.16.37-.33.89-.52,1.56-.27.91-.53,1.65-.78,2.22-.27.56-.66,1.05-1.18,1.46-.53.4-1.24.6-2.12.6-.83,0-1.55-.21-2.16-.62-.61-.41-1.08-.99-1.4-1.74-.33-.75-.5-1.6-.5-2.56,0-1.44.35-2.61,1.06-3.5.69-.91,1.67-1.41,2.92-1.5v3.08c-.48.03-.87.23-1.18.62-.32.37-.48.87-.48,1.5,0,.55.14.99.42,1.32.28.32.69.48,1.22.48.37,0,.69-.12.94-.36.24-.25.44-.56.6-.92.15-.37.32-.89.52-1.56.27-.91.53-1.65.8-2.22s.67-1.07,1.2-1.48c.53-.41,1.23-.62,2.1-.62.75,0,1.44.19,2.08.58.64.39,1.15.95,1.54,1.7.37.75.56,1.63.56,2.66ZM10.12,108.22h13.96v2.8h-13.96v-2.8ZM24.22,98.97c0,1.31-.31,2.51-.92,3.6-.61,1.09-1.46,1.96-2.54,2.6-1.09.64-2.33.96-3.7.96s-2.58-.32-3.66-.96c-1.09-.64-1.95-1.51-2.56-2.6-.61-1.09-.92-2.29-.92-3.6s.31-2.52.92-3.6c.61-1.09,1.47-1.95,2.56-2.58,1.08-.64,2.3-.96,3.66-.96s2.61.32,3.7.96c1.08.63,1.93,1.49,2.54,2.58.61,1.09.92,2.29.92,3.6ZM21.72,98.97c0-.84-.19-1.58-.56-2.22-.39-.64-.93-1.14-1.64-1.5-.71-.36-1.53-.54-2.46-.54s-1.75.18-2.44.54c-.71.36-1.25.86-1.62,1.5-.37.64-.56,1.38-.56,2.22s.19,1.59.56,2.24c.37.64.91,1.14,1.62,1.5.69.36,1.51.54,2.44.54s1.75-.18,2.46-.54c.71-.36,1.25-.86,1.64-1.5.37-.65.56-1.4.56-2.24ZM24.08,77.81v2.8l-9.58,6.34h9.58v2.8h-13.98v-2.8l9.6-6.34h-9.6v-2.8h13.98ZM15.76,66.52h2.36v8.48h-2.36v-8.48ZM12.08,64.04h-2.58v-4.82s14.58,0,14.58,0v2.88h-12v1.94Z"/>
</svg>