<?xml version="1.0" encoding="UTF-8"?>
<svg id="Layer_1" data-name="Layer 1" xmlns="http://www.w3.org/2000/svg" xmlns:xlink="http://www.w3.org/1999/xlink" viewBox="0 0 384 218">
  <defs>
    <style>
      .cls-1 {
        fill: rgba(135, 206, 235, .75);
      }

      .cls-1, .cls-2, .cls-3, .cls-4, .cls-5 {
        stroke-width: 0px;
      }

      .cls-2 {
        fill: rgba(37, 69, 96, .8);
      }

      .cls-2, .cls-3, .cls-4 {
        fill-rule: evenodd;
      }

      .cls-3 {
        fill: rgba(89, 135, 154, .75);
      }

      .cls-4 {
        fill: #fff;
      }

      .cls-5 {
        fill: #cb8b35;
      }

      .cls-6 {
        mask: url(#mask-1);
      }

      .cls-7 {
        mask: url(#mask);
      }
    </style>
    <mask id="mask" x="-3.12" y="-2.59" width="390" height="51" maskUnits="userSpaceOnUse">
      <g id="path-1-inside-1_12_904" data-name="path-1-inside-1 12 904">
        <path class="cls-4" d="M383.87,19.14v.02h-20v-.13L348.92.41H34.82l-14.95,18.62v.13H-.12v26.25h25.05l-.05-.06,14.99-18.67v-.02h304.01v.02l14.99,18.67-.05.06h25.05v-26.27h0Z"/>
      </g>
    </mask>
    <mask id="mask-1" x="-3.12" y="170.41" width="390" height="51" maskUnits="userSpaceOnUse">
      <g id="path-3-inside-2_12_904" data-name="path-3-inside-2 12 904">
        <path class="cls-4" d="M383.87,199.68v-.02h-20v.13l-14.95,18.62H34.82l-14.95-18.62v-.13H-.12v-26.25h25.05l-.05.06,14.99,18.67v.02h304.01v-.02l14.99-18.67-.05-.06h25.05v26.27h0Z"/>
      </g>
    </mask>
  </defs>
  <path class="cls-3" d="M383.87,19.14v.02h-20v-.13L348.92.41H34.82l-14.95,18.62v.13H-.12v26.25h25.05l-.05-.06,14.99-18.67v-.02h304.01v.02l14.99,18.67-.05.06h25.05v-26.27h0Z"/>
  <g class="cls-7">
    <path class="cls-1" d="M383.87,19.16v3c1.66,0,3-1.34,3-3h-3ZM383.87,19.14v-3c-1.66,0-3,1.34-3,3h3ZM363.87,19.16h-3c0,1.66,1.34,3,3,3v-3ZM363.87,19.02h3c0-.68-.23-1.35-.66-1.88l-2.34,1.88ZM348.92.41l2.34-1.88c-.57-.71-1.43-1.12-2.34-1.12V.41ZM34.82.41v-3c-.91,0-1.77.41-2.34,1.12l2.34,1.88ZM19.88,19.02l-2.34-1.88c-.43.53-.66,1.2-.66,1.88h3ZM19.88,19.16v3c1.66,0,3-1.34,3-3h-3ZM-.12,19.16v-3c-1.66,0-3,1.34-3,3H-.12ZM-.12,45.41h-3c0,1.66,1.34,3,3,3v-3ZM24.92,45.41v3c1.15,0,2.21-.66,2.71-1.7.5-1.04.36-2.28-.37-3.18l-2.34,1.88ZM24.88,45.35l-2.34-1.88c-.88,1.1-.88,2.66,0,3.76l2.34-1.88ZM39.87,26.68l2.34,1.88c.43-.53.66-1.2.66-1.88h-3ZM39.87,26.66v-3c-1.66,0-3,1.34-3,3h3ZM343.88,26.66h3c0-1.66-1.34-3-3-3v3ZM343.88,26.68h-3c0,.68.23,1.35.66,1.88l2.34-1.88ZM358.87,45.35l2.34,1.88c.88-1.1.88-2.66,0-3.76l-2.34,1.88ZM358.82,45.41l-2.34-1.88c-.72.9-.87,2.13-.37,3.18.5,1.04,1.55,1.7,2.7,1.7v-3ZM383.88,45.41v3c1.66,0,3-1.34,3-3h-3ZM383.88,19.14h3c0-1.66-1.34-3-3-3v3ZM386.87,19.16v-.02h-6v.02h6ZM363.87,22.16h20v-6h-20v6ZM360.87,19.02v.13h6v-.13h-6ZM346.58,2.28l14.95,18.62,4.68-3.76-14.95-18.62-4.68,3.76ZM34.82,3.41h314.1V-2.59H34.82V3.41ZM22.21,20.9L37.16,2.28l-4.68-3.76-14.95,18.62,4.68,3.76ZM22.88,19.16v-.13h-6v.13h6ZM-.12,22.16h20v-6H-.12v6ZM2.88,45.41v-26.25H-3.12v26.25H2.88ZM24.92,42.41H-.12v6h25.05v-6ZM22.54,47.23l.05.06,4.68-3.76-.05-.06-4.68,3.76ZM37.53,24.8l-14.99,18.67,4.68,3.76,14.99-18.67-4.68-3.76ZM36.87,26.66v.02h6v-.02h-6ZM55.88,23.66h-16.01v6h16.01v-6ZM59.87,23.66h-3.99v6h3.99v-6ZM323.88,23.66H59.87v6h264.01v-6ZM328.88,23.66h-5v6h5v-6ZM343.88,23.66h-15v6h15v-6ZM346.88,26.68v-.02h-6v.02h6ZM361.21,43.47l-14.99-18.67-4.68,3.76,14.99,18.67,4.68-3.76ZM361.16,47.28l.05-.06-4.68-3.76-.05.06,4.68,3.76ZM383.88,42.41h-25.05v6h25.05v-6ZM380.88,19.14v26.27h6v-26.27h-6ZM383.88,16.14h0v6h0v-6Z"/>
  </g>
  <path class="cls-3" d="M383.87,199.68v-.02h-20v.13l-14.95,18.62H34.82l-14.95-18.62v-.13H-.12v-26.25h25.05l-.05.06,14.99,18.67v.02h304.01v-.02l14.99-18.67-.05-.06h25.05v26.27h0Z"/>
  <g class="cls-6">
    <path class="cls-1" d="M383.87,199.66v-3c1.66,0,3,1.34,3,3h-3ZM383.87,199.68v3c-1.66,0-3-1.34-3-3h3ZM363.87,199.66h-3c0-1.66,1.34-3,3-3v3ZM363.87,199.79h3c0,.68-.23,1.35-.66,1.88l-2.34-1.88ZM348.92,218.41l2.34,1.88c-.57.71-1.43,1.12-2.34,1.12v-3ZM34.82,218.41v3c-.91,0-1.77-.41-2.34-1.12l2.34-1.88ZM19.88,199.79l-2.34,1.88c-.43-.53-.66-1.2-.66-1.88h3ZM19.88,199.66v-3c1.66,0,3,1.34,3,3h-3ZM-.12,199.66v3c-1.66,0-3-1.34-3-3H-.12ZM-.12,173.41h-3c0-1.66,1.34-3,3-3v3ZM24.92,173.41v-3c1.15,0,2.21.66,2.71,1.7.5,1.04.36,2.27-.37,3.18l-2.34-1.88ZM24.88,173.46l-2.34,1.88c-.88-1.1-.88-2.66,0-3.76l2.34,1.88ZM39.87,192.13l2.34-1.88c.43.53.66,1.2.66,1.88h-3ZM39.87,192.16v3c-1.66,0-3-1.34-3-3h3ZM343.88,192.16h3c0,1.66-1.34,3-3,3v-3ZM343.88,192.13h-3c0-.68.23-1.35.66-1.88l2.34,1.88ZM358.87,173.46l2.34-1.88c.88,1.1.88,2.66,0,3.76l-2.34-1.88ZM358.82,173.41l-2.34,1.88c-.72-.9-.87-2.13-.37-3.18.5-1.04,1.55-1.7,2.7-1.7v3ZM383.88,173.41v-3c1.66,0,3,1.34,3,3h-3ZM383.88,199.68h3c0,1.66-1.34,3-3,3v-3ZM386.87,199.66v.02h-6v-.02h6ZM363.87,196.66h20v6h-20v-6ZM360.87,199.79v-.13h6v.13h-6ZM346.58,216.53l14.95-18.62,4.68,3.76-14.95,18.62-4.68-3.76ZM34.82,215.41h314.1v6H34.82v-6ZM22.21,197.91l14.95,18.62-4.68,3.76-14.95-18.62,4.68-3.76ZM22.88,199.66v.13h-6v-.13h6ZM-.12,196.66h20v6H-.12v-6ZM2.88,173.41v26.25H-3.12v-26.25H2.88ZM24.92,176.41H-.12v-6h25.05v6ZM22.54,171.58l.05-.06,4.68,3.76-.05.06-4.68-3.76ZM37.53,194.01l-14.99-18.67,4.68-3.76,14.99,18.67-4.68,3.76ZM36.87,192.16v-.02h6v.02h-6ZM55.88,195.16h-16.01v-6h16.01v6ZM59.87,195.16h-3.99v-6h3.99v6ZM323.88,195.16H59.87v-6h264.01v6ZM328.88,195.16h-5v-6h5v6ZM343.88,195.16h-15v-6h15v6ZM346.88,192.13v.02h-6v-.02h6ZM361.21,175.34l-14.99,18.67-4.68-3.76,14.99-18.67,4.68,3.76ZM361.16,171.53l.05.06-4.68,3.76-.05-.06,4.68-3.76ZM383.88,176.41h-25.05v-6h25.05v6ZM380.88,199.68v-26.27h6v26.27h-6ZM383.88,202.68h0v-6h0v6Z"/>
  </g>
  <path class="cls-2" d="M25.88,170.41H2.85V48.41h23.02l15.5-19.42h301.5l15.5,18.92h23.48v123h-23.48l-15.5,18.92H41.38l-15.5-19.42Z"/>
  <path class="cls-5" d="M9.91,146.49h13.96v2.8h-9.08l9.08,3.74v2.12l-9.08,3.76h9.08v2.8h-13.96v-3.18l10.38-4.44-10.38-4.44v-3.16ZM9.91,140.92h13.96v2.8h-13.96v-2.8ZM24.01,133.33c0,.97-.17,1.85-.5,2.64-.33.77-.81,1.39-1.44,1.84-.63.45-1.37.69-2.22.7v-3c.57-.04,1.03-.24,1.36-.6.33-.37.5-.88.5-1.52s-.15-1.17-.46-1.54c-.32-.37-.73-.56-1.24-.56-.41,0-.75.13-1.02.38-.27.25-.47.57-.62.96-.16.37-.33.89-.52,1.56-.27.91-.53,1.65-.78,2.22-.27.56-.66,1.05-1.18,1.46-.53.4-1.24.6-2.12.6-.83,0-1.55-.21-2.16-.62-.61-.41-1.08-.99-1.4-1.74-.33-.75-.5-1.6-.5-2.56,0-1.44.35-2.61,1.06-3.5.69-.91,1.67-1.41,2.92-1.5v3.08c-.48.03-.87.23-1.18.62-.32.37-.48.87-.48,1.5,0,.55.14.99.42,1.32.28.32.69.48,1.22.48.37,0,.69-.12.94-.36.24-.25.44-.56.6-.92.15-.37.32-.89.52-1.56.27-.91.53-1.65.8-2.22.27-.57.67-1.07,1.2-1.48.53-.41,1.23-.62,2.1-.62.75,0,1.44.19,2.08.58.64.39,1.15.95,1.54,1.7.37.75.56,1.63.56,2.66ZM24.01,121.14c0,.97-.17,1.85-.5,2.64-.33.77-.81,1.39-1.44,1.84-.63.45-1.37.69-2.22.7v-3c.57-.04,1.03-.24,1.36-.6.33-.37.5-.88.5-1.52s-.15-1.17-.46-1.54c-.32-.37-.73-.56-1.24-.56-.41,0-.75.13-1.02.38-.27.25-.47.57-.62.96-.16.37-.33.89-.52,1.56-.27.91-.53,1.65-.78,2.22-.27.56-.66,1.05-1.18,1.46-.53.4-1.24.6-2.12.6-.83,0-1.55-.21-2.16-.62-.61-.41-1.08-.99-1.4-1.74-.33-.75-.5-1.6-.5-2.56,0-1.44.35-2.61,1.06-3.5.69-.91,1.67-1.41,2.92-1.5v3.08c-.48.03-.87.23-1.18.62-.32.37-.48.87-.48,1.5,0,.55.14.99.42,1.32.28.32.69.48,1.22.48.37,0,.69-.12.94-.36.24-.25.44-.56.6-.92.15-.37.32-.89.52-1.56.27-.91.53-1.65.8-2.22.27-.57.67-1.07,1.2-1.48.53-.41,1.23-.62,2.1-.62.75,0,1.44.19,2.08.58.64.39,1.15.95,1.54,1.7.37.75.56,1.63.56,2.66ZM9.91,110.98h13.96v2.8h-13.96v-2.8ZM24.01,101.73c0,1.31-.31,2.51-.92,3.6-.61,1.09-1.46,1.96-2.54,2.6-1.09.64-2.33.96-3.7.96s-2.58-.32-3.66-.96c-1.09-.64-1.95-1.51-2.56-2.6-.61-1.09-.92-2.29-.92-3.6s.31-2.52.92-3.6c.61-1.09,1.47-1.95,2.56-2.58,1.08-.64,2.3-.96,3.66-.96s2.61.32,3.7.96c1.08.63,1.93,1.49,2.54,2.58.61,1.09.92,2.29.92,3.6ZM21.51,101.73c0-.84-.19-1.58-.56-2.22-.39-.64-.93-1.14-1.64-1.5-.71-.36-1.53-.54-2.46-.54s-1.75.18-2.44.54c-.71.36-1.25.86-1.62,1.5-.37.64-.56,1.38-.56,2.22s.19,1.59.56,2.24c.37.64.91,1.14,1.62,1.5.69.36,1.51.54,2.44.54s1.75-.18,2.46-.54c.71-.36,1.25-.86,1.64-1.5.37-.65.56-1.4.56-2.24ZM23.88,80.57v2.8l-9.58,6.34h9.58v2.8h-13.98v-2.8l9.6-6.34h-9.6v-2.8h13.98ZM15.56,69.28h2.36v8.48h-2.36v-8.48ZM12.94,58.9c-.56.13-.98.37-1.26.7-.28.32-.42.79-.42,1.4,0,.92.37,1.6,1.12,2.04.73.43,1.93.65,3.6.66-.53-.32-.95-.79-1.24-1.4-.31-.61-.46-1.28-.46-2,0-.87.19-1.63.56-2.3.37-.67.92-1.19,1.64-1.56.71-.37,1.56-.56,2.56-.56.95,0,1.79.19,2.54.58.73.37,1.31.93,1.72,1.66.41.73.62,1.61.62,2.62,0,1.39-.31,2.48-.92,3.28-.61.79-1.47,1.34-2.56,1.66-1.11.31-2.47.46-4.08.46-2.44,0-4.28-.42-5.52-1.26-1.25-.84-1.88-2.17-1.88-3.98,0-1.4.38-2.49,1.14-3.26.76-.77,1.71-1.22,2.84-1.34v2.6ZM16.58,60.94c0,.71.21,1.3.62,1.78s1.01.72,1.8.72,1.41-.22,1.86-.66c.45-.45.68-1.09.68-1.9,0-.72-.22-1.29-.66-1.7-.44-.43-1.03-.64-1.78-.64s-1.39.21-1.84.62c-.45.4-.68.99-.68,1.78Z"/>
</svg>