<?xml version="1.0" encoding="UTF-8"?>
<svg id="Layer_1" data-name="Layer 1" xmlns="http://www.w3.org/2000/svg" xmlns:xlink="http://www.w3.org/1999/xlink" viewBox="0 0 261 51">
  <defs>
    <style>
      .cls-1 {
        fill: #1e384d;
      }

      .cls-1, .cls-2, .cls-3, .cls-4 {
        stroke-width: 0px;
      }

      .cls-2 {
        fill: #fff;
      }

      .cls-2, .cls-4 {
        fill-rule: evenodd;
      }

      .cls-3 {
        fill: #87ceeb;
      }

      .cls-4 {
        fill: #cb8b35;
      }

      .cls-5 {
        mask: url(#mask);
      }
    </style>
    <mask id="mask" x="-3.33" y="-3.36" width="267.73" height="58" maskUnits="userSpaceOnUse">
      <g id="path-1-inside-1_21_311" data-name="path-1-inside-1 21 311">
        <path class="cls-2" d="M176.5.64H.67v50h259.73v-17.36L176.5.64Z"/>
      </g>
    </mask>
  </defs>
  <path class="cls-4" d="M176.5.64H.67v50h259.73v-17.36L176.5.64Z"/>
  <g class="cls-5">
    <path class="cls-3" d="M.67.64V-3.36H-3.33V.64H.67ZM176.5.64l1.45-3.73-.7-.27h-.75V.64ZM.67,50.64H-3.33v4H.67v-4ZM260.4,50.64v4h4v-4h-4ZM260.4,33.28h4v-2.74l-2.55-.99-1.45,3.73ZM.67,4.64h175.83V-3.36H.67V4.64ZM4.67,50.64V.64H-3.33v50H4.67ZM260.4,46.64H.67v8h259.73v-8ZM256.4,33.28v17.36h8v-17.36h-8ZM261.85,29.55L177.95-3.09l-2.9,7.46,83.89,32.64,2.9-7.46Z"/>
  </g>
  <path class="cls-1" d="M44.78,16.69v17.45h-3.19l-7.59-10.99h-.13v10.99h-3.69v-17.45h3.24l7.53,10.98h.15v-10.98h3.67ZM53.73,34.4c-1.35,0-2.51-.27-3.48-.82-.97-.55-1.71-1.33-2.23-2.34-.52-1.01-.78-2.21-.78-3.59s.26-2.53.78-3.55c.52-1.02,1.26-1.81,2.21-2.38.95-.57,2.07-.85,3.36-.85.86,0,1.67.14,2.41.42.75.27,1.4.68,1.96,1.24.56.55,1,1.24,1.31,2.08.31.83.47,1.8.47,2.91v1h-11.05v-2.25h7.64c0-.52-.11-.99-.34-1.39-.23-.4-.54-.72-.95-.95-.4-.23-.86-.35-1.39-.35s-1.04.13-1.47.38c-.42.25-.75.59-.99,1.01-.24.42-.36.89-.37,1.41v2.14c0,.65.12,1.21.36,1.68.24.47.59.84,1.03,1.09.44.26.97.38,1.58.38.4,0,.77-.06,1.11-.17.34-.11.62-.28.86-.51.24-.23.42-.51.55-.84l3.36.22c-.17.81-.52,1.51-1.05,2.11-.52.6-1.2,1.06-2.03,1.4-.82.33-1.78.49-2.86.49ZM64.6,34.14l-3.56-13.09h3.67l2.03,8.8h.12l2.11-8.8h3.61l2.15,8.74h.11l1.99-8.74h3.66l-3.55,13.09h-3.84l-2.25-8.23h-.16l-2.25,8.23h-3.84ZM88.05,16.69h4.55l4.81,11.73h.2l4.81-11.73h4.55v17.45h-3.58v-11.36h-.14l-4.52,11.28h-2.44l-4.52-11.32h-.14v11.4h-3.58v-17.45ZM109.95,34.14v-13.09h3.63v13.09h-3.63ZM111.77,19.36c-.54,0-1-.18-1.39-.54-.38-.36-.57-.8-.57-1.3s.19-.93.57-1.29c.39-.36.85-.55,1.39-.55s1,.18,1.38.55c.39.36.58.79.58,1.29s-.19.94-.58,1.3c-.38.36-.84.54-1.38.54ZM127.38,24.78l-3.32.2c-.06-.28-.18-.54-.37-.77-.19-.23-.43-.42-.74-.55-.3-.14-.66-.21-1.08-.21-.56,0-1.04.12-1.42.36-.39.23-.58.55-.58.94,0,.31.12.58.38.79s.68.39,1.29.52l2.37.48c1.27.26,2.22.68,2.85,1.26.62.58.94,1.34.94,2.28,0,.86-.25,1.61-.76,2.26-.5.65-1.19,1.15-2.06,1.52-.87.36-1.87.54-3.01.54-1.73,0-3.11-.36-4.14-1.08-1.02-.73-1.62-1.72-1.8-2.97l3.57-.19c.11.53.37.93.78,1.21.41.27.95.41,1.59.41s1.15-.12,1.53-.37c.39-.25.59-.57.6-.96,0-.33-.15-.6-.42-.81-.27-.22-.69-.38-1.26-.49l-2.27-.45c-1.28-.26-2.23-.7-2.86-1.33-.62-.63-.93-1.43-.93-2.41,0-.84.23-1.57.68-2.17.46-.61,1.11-1.08,1.93-1.41.84-.33,1.81-.49,2.93-.49,1.65,0,2.95.35,3.9,1.05.95.7,1.51,1.65,1.67,2.86ZM140.85,24.78l-3.32.2c-.06-.28-.18-.54-.37-.77-.19-.23-.43-.42-.74-.55-.3-.14-.66-.21-1.08-.21-.56,0-1.04.12-1.42.36-.39.23-.58.55-.58.94,0,.31.12.58.38.79s.68.39,1.29.52l2.37.48c1.27.26,2.22.68,2.85,1.26.62.58.94,1.34.94,2.28,0,.86-.25,1.61-.76,2.26-.5.65-1.19,1.15-2.06,1.52-.87.36-1.87.54-3.01.54-1.73,0-3.11-.36-4.14-1.08-1.02-.73-1.62-1.72-1.8-2.97l3.57-.19c.11.53.37.93.78,1.21.42.27.95.41,1.59.41s1.15-.12,1.53-.37c.39-.25.59-.57.6-.96,0-.33-.15-.6-.42-.81-.27-.22-.69-.38-1.26-.49l-2.27-.45c-1.28-.26-2.23-.7-2.86-1.33-.62-.63-.93-1.43-.93-2.41,0-.84.23-1.57.68-2.17.46-.61,1.1-1.08,1.93-1.41.84-.33,1.81-.49,2.93-.49,1.65,0,2.95.35,3.9,1.05.95.7,1.51,1.65,1.67,2.86ZM143.44,34.14v-13.09h3.63v13.09h-3.63ZM145.26,19.36c-.54,0-1-.18-1.39-.54-.38-.36-.57-.8-.57-1.3s.19-.93.57-1.29c.39-.36.85-.55,1.39-.55s1,.18,1.38.55c.39.36.58.79.58,1.29s-.19.94-.58,1.3c-.38.36-.84.54-1.38.54ZM155.89,34.4c-1.32,0-2.47-.28-3.44-.84-.96-.57-1.7-1.36-2.22-2.37-.52-1.02-.78-2.2-.78-3.54s.26-2.53.78-3.55c.52-1.02,1.26-1.81,2.22-2.37.97-.57,2.11-.85,3.44-.85s2.47.28,3.43.85c.97.56,1.71,1.35,2.23,2.37.52,1.01.78,2.19.78,3.55s-.26,2.52-.78,3.54c-.52,1.01-1.27,1.8-2.23,2.37-.96.56-2.1.84-3.43.84ZM155.91,31.58c.6,0,1.1-.17,1.51-.51.4-.35.71-.82.91-1.41.21-.6.32-1.28.32-2.04s-.1-1.44-.32-2.04c-.21-.6-.51-1.07-.91-1.41-.4-.35-.91-.52-1.51-.52s-1.12.17-1.53.52c-.41.35-.72.82-.93,1.41-.2.6-.31,1.28-.31,2.04s.1,1.44.31,2.04c.21.6.52,1.07.93,1.41.42.34.93.51,1.53.51ZM168.33,26.57v7.57h-3.63v-13.09h3.46v2.31h.15c.29-.76.77-1.36,1.46-1.81.68-.45,1.51-.67,2.48-.67.91,0,1.7.2,2.38.6.68.4,1.2.97,1.58,1.7.38.73.56,1.61.56,2.62v8.34h-3.63v-7.69c0-.8-.2-1.43-.61-1.88-.41-.45-.99-.68-1.71-.68-.49,0-.92.11-1.3.32-.37.21-.66.52-.87.92-.21.4-.31.88-.32,1.44Z"/>
</svg>