<?xml version="1.0" encoding="UTF-8"?>
<svg id="Layer_1" data-name="Layer 1" xmlns="http://www.w3.org/2000/svg" viewBox="0 0 45 45">
  <defs>
    <style>
      .cls-1 {
        fill: none;
        stroke: #1e384d;
        stroke-linecap: round;
        stroke-linejoin: round;
        stroke-width: 3px;
      }

      .cls-2 {
        fill: #294d6a;
        isolation: isolate;
        opacity: .5;
        stroke-width: 0px;
      }
    </style>
  </defs>
  <path class="cls-2" d="M36.17,20.68c0,4.17-1.7,8.16-4.73,11.11-3.03,2.95-7.14,4.6-11.42,4.6s-8.39-1.65-11.42-4.6c-3.03-2.95-4.73-6.94-4.73-11.11s1.7-8.16,4.73-11.11c3.03-2.95,7.14-4.6,11.42-4.6s8.39,1.65,11.42,4.6c3.03,2.95,4.73,6.94,4.73,11.11Z"/>
  <path class="cls-1" d="M40.21,40.31l-8.77-8.53M31.44,31.78c1.5-1.46,2.69-3.19,3.5-5.1.81-1.91,1.23-3.95,1.23-6.01s-.42-4.1-1.23-6.01c-.81-1.91-2-3.64-3.5-5.1-1.5-1.46-3.28-2.62-5.24-3.4-1.96-.79-4.06-1.2-6.18-1.2s-4.22.41-6.18,1.2c-1.96.79-3.74,1.95-5.24,3.4-3.03,2.95-4.73,6.94-4.73,11.11s1.7,8.16,4.73,11.11c3.03,2.95,7.14,4.6,11.42,4.6s8.39-1.65,11.42-4.6Z"/>
</svg>