<?xml version="1.0" encoding="UTF-8"?>
<svg id="Layer_1" data-name="Layer 1" xmlns="http://www.w3.org/2000/svg" viewBox="0 0 52 47">
  <defs>
    <style>
      .cls-1 {
        stroke-linecap: round;
        stroke-width: 4.55px;
      }

      .cls-1, .cls-2 {
        fill: none;
        stroke: #cb8b35;
        stroke-linejoin: round;
      }

      .cls-2 {
        stroke-width: 6.83px;
      }

      .cls-3 {
        fill: #cb8b35;
        isolation: isolate;
        opacity: .16;
        stroke-width: 0px;
      }
    </style>
  </defs>
  <path class="cls-3" d="M7.84,5.38h36.44v31.88c0,1.21-.48,2.37-1.33,3.22-.85.85-2.01,1.33-3.22,1.33H12.4c-1.21,0-2.37-.48-3.22-1.33-.85-.85-1.33-2.01-1.33-3.22V5.38Z"/>
  <path class="cls-1" d="M7.84,5.38h36.44v31.88c0,1.21-.48,2.37-1.33,3.22-.85.85-2.01,1.33-3.22,1.33H12.4c-1.21,0-2.37-.48-3.22-1.33-.85-.85-1.33-2.01-1.33-3.22V5.38Z"/>
  <path class="cls-2" d="M26.06,32.71h.02v.02h-.02v-.02Z"/>
  <path class="cls-1" d="M22.84,13.55c.89-.89,2.05-1.33,3.21-1.33.6,0,1.19.11,1.75.34.55.23,1.06.57,1.48.99.89.89,1.33,2.05,1.33,3.22,0,.6-.12,1.19-.35,1.74-.23.55-.57,1.05-.99,1.48-.42.42-.93.76-1.48.99-.55.23-1.15.35-1.75.34v2.28"/>
</svg>