<?xml version="1.0" encoding="UTF-8"?>
<svg id="Layer_1" data-name="Layer 1" xmlns="http://www.w3.org/2000/svg" xmlns:xlink="http://www.w3.org/1999/xlink" viewBox="0 0 148.5 60">
  <defs>
    <style>
      .cls-1, .cls-2, .cls-3, .cls-4 {
        stroke-width: 0px;
      }

      .cls-2 {
        fill: #1e384d;
      }

      .cls-3 {
        fill: #fff;
      }

      .cls-4 {
        fill: #cb8b35;
      }

      .cls-5 {
        mask: url(#mask);
      }
    </style>
    <mask id="mask" x=".48" y="37.86" width="148" height="23" maskUnits="userSpaceOnUse">
      <g id="path-1-outside-1_6_2" data-name="path-1-outside-1 6 2">
        <rect class="cls-3" x=".48" y="37.86" width="148" height="23"/>
        <path class="cls-1" d="M8.36,56.18c-1.22,0-2.27-.31-3.15-.9-.88-.6-1.55-1.46-2.02-2.59-.47-1.13-.7-2.49-.7-4.08,0-1.59.23-2.94.7-4.06.47-1.12,1.15-1.97,2.02-2.55.88-.59,1.93-.88,3.15-.88s2.26.29,3.14.88c.88.59,1.56,1.44,2.03,2.56.47,1.11.71,2.46.7,4.05,0,1.6-.24,2.96-.71,4.09-.47,1.13-1.14,2-2.02,2.59-.88.6-1.92.89-3.15.89ZM8.36,53.63c.83,0,1.5-.42,2-1.26.5-.84.74-2.1.74-3.77,0-1.1-.11-2.02-.34-2.76-.22-.73-.54-1.29-.95-1.65-.41-.37-.89-.55-1.44-.55-.83,0-1.49.41-1.99,1.24-.5.83-.75,2.07-.75,3.72,0,1.12.11,2.05.33,2.8.23.74.55,1.3.96,1.68.41.37.89.55,1.45.55ZM24.33,56.18c-1.22,0-2.27-.31-3.15-.9-.88-.6-1.55-1.46-2.02-2.59-.47-1.13-.7-2.49-.7-4.08,0-1.59.23-2.94.7-4.06.47-1.12,1.15-1.97,2.02-2.55.88-.59,1.93-.88,3.15-.88s2.26.29,3.14.88c.88.59,1.56,1.44,2.03,2.56.47,1.11.71,2.46.7,4.05,0,1.6-.24,2.96-.71,4.09-.47,1.13-1.14,2-2.02,2.59-.88.6-1.92.89-3.15.89ZM24.33,53.63c.83,0,1.5-.42,2-1.26.5-.84.74-2.1.74-3.77,0-1.1-.11-2.02-.34-2.76-.22-.73-.54-1.29-.95-1.65-.41-.37-.89-.55-1.44-.55-.83,0-1.49.41-1.99,1.24-.5.83-.75,2.07-.75,3.72,0,1.12.11,2.05.33,2.8.23.74.55,1.3.96,1.68.41.37.89.55,1.45.55ZM40.96,40.64l-4.69,17.41h-2.61l4.69-17.41h2.61ZM50.3,56.18c-1.22,0-2.27-.31-3.15-.9-.88-.6-1.55-1.46-2.02-2.59-.47-1.13-.7-2.49-.7-4.08,0-1.59.23-2.94.7-4.06.47-1.12,1.15-1.97,2.02-2.55.88-.59,1.93-.88,3.15-.88s2.26.29,3.14.88c.88.59,1.56,1.44,2.03,2.56.47,1.11.71,2.46.7,4.05,0,1.6-.24,2.96-.71,4.09-.47,1.13-1.14,2-2.02,2.59-.88.6-1.92.89-3.15.89ZM50.3,53.63c.83,0,1.5-.42,2-1.26.5-.84.74-2.1.74-3.77,0-1.1-.11-2.02-.34-2.76-.22-.73-.54-1.29-.95-1.65-.41-.37-.89-.55-1.44-.55-.83,0-1.49.41-1.99,1.24-.5.83-.75,2.07-.75,3.72,0,1.12.11,2.05.33,2.8.23.74.55,1.3.96,1.68.41.37.89.55,1.45.55ZM66.27,56.18c-1.22,0-2.27-.31-3.15-.9-.88-.6-1.55-1.46-2.02-2.59-.47-1.13-.7-2.49-.7-4.08,0-1.59.23-2.94.7-4.06.47-1.12,1.15-1.97,2.02-2.55.88-.59,1.93-.88,3.15-.88s2.26.29,3.14.88c.88.59,1.56,1.44,2.03,2.56.47,1.11.71,2.46.7,4.05,0,1.6-.24,2.96-.71,4.09-.47,1.13-1.14,2-2.02,2.59-.88.6-1.92.89-3.15.89ZM66.27,53.63c.83,0,1.5-.42,2-1.26.5-.84.74-2.1.74-3.77,0-1.1-.11-2.02-.34-2.76-.22-.73-.54-1.29-.95-1.65-.41-.37-.89-.55-1.44-.55-.83,0-1.49.41-1.99,1.24-.5.83-.75,2.07-.75,3.72,0,1.12.11,2.05.33,2.8.23.74.55,1.3.96,1.68.41.37.89.55,1.45.55ZM82.9,40.64l-4.69,17.41h-2.61l4.69-17.41h2.61ZM92.23,56.18c-1.22,0-2.27-.31-3.15-.9-.88-.6-1.55-1.46-2.02-2.59-.47-1.13-.7-2.49-.7-4.08,0-1.59.23-2.94.7-4.06.47-1.12,1.15-1.97,2.02-2.55.88-.59,1.93-.88,3.15-.88s2.26.29,3.14.88c.88.59,1.56,1.44,2.03,2.56.47,1.11.71,2.46.7,4.05,0,1.6-.24,2.96-.71,4.09-.47,1.13-1.14,2-2.02,2.59-.88.6-1.92.89-3.15.89ZM92.23,53.63c.83,0,1.5-.42,2-1.26.5-.84.74-2.1.74-3.77,0-1.1-.11-2.02-.34-2.76-.22-.73-.54-1.29-.95-1.65-.41-.37-.89-.55-1.44-.55-.83,0-1.49.41-1.99,1.24-.5.83-.75,2.07-.75,3.72,0,1.12.11,2.05.33,2.8.23.74.55,1.3.96,1.68.41.37.89.55,1.45.55ZM108.2,56.18c-1.22,0-2.27-.31-3.15-.9-.88-.6-1.55-1.46-2.02-2.59-.47-1.13-.7-2.49-.7-4.08,0-1.59.23-2.94.7-4.06.47-1.12,1.15-1.97,2.02-2.55.88-.59,1.93-.88,3.15-.88s2.26.29,3.14.88c.88.59,1.56,1.44,2.03,2.56.47,1.11.71,2.46.7,4.05,0,1.6-.24,2.96-.71,4.09-.47,1.13-1.14,2-2.02,2.59-.88.6-1.93.89-3.15.89ZM108.2,53.63c.83,0,1.5-.42,1.99-1.26.5-.84.74-2.1.74-3.77,0-1.1-.11-2.02-.34-2.76-.22-.73-.54-1.29-.95-1.65-.41-.37-.89-.55-1.44-.55-.83,0-1.49.41-1.99,1.24-.5.83-.75,2.07-.75,3.72,0,1.12.11,2.05.33,2.8.23.74.55,1.3.96,1.68.41.37.9.55,1.45.55ZM124.17,56.18c-1.22,0-2.27-.31-3.15-.9-.88-.6-1.55-1.46-2.02-2.59-.47-1.13-.7-2.49-.7-4.08,0-1.59.23-2.94.7-4.06.47-1.12,1.15-1.97,2.02-2.55.88-.59,1.93-.88,3.15-.88s2.26.29,3.14.88c.88.59,1.56,1.44,2.03,2.56.47,1.11.71,2.46.7,4.05,0,1.6-.24,2.96-.71,4.09-.47,1.13-1.14,2-2.02,2.59-.88.6-1.93.89-3.15.89ZM124.17,53.63c.83,0,1.5-.42,2-1.26.5-.84.74-2.1.74-3.77,0-1.1-.11-2.02-.34-2.76-.22-.73-.54-1.29-.95-1.65-.41-.37-.89-.55-1.44-.55-.83,0-1.49.41-1.99,1.24-.5.83-.75,2.07-.75,3.72,0,1.12.11,2.05.33,2.8.23.74.55,1.3.96,1.68.41.37.89.55,1.45.55ZM140.14,56.18c-1.22,0-2.27-.31-3.15-.9-.88-.6-1.55-1.46-2.02-2.59-.47-1.13-.7-2.49-.7-4.08,0-1.59.24-2.94.7-4.06.47-1.12,1.15-1.97,2.02-2.55.88-.59,1.93-.88,3.15-.88s2.26.29,3.14.88c.88.59,1.56,1.44,2.03,2.56.47,1.11.71,2.46.7,4.05,0,1.6-.24,2.96-.71,4.09-.47,1.13-1.14,2-2.02,2.59-.88.6-1.92.89-3.15.89ZM140.14,53.63c.83,0,1.5-.42,2-1.26.5-.84.74-2.1.74-3.77,0-1.1-.11-2.02-.34-2.76-.22-.73-.54-1.29-.95-1.65-.41-.37-.89-.55-1.44-.55-.83,0-1.49.41-1.99,1.24-.5.83-.75,2.07-.75,3.72,0,1.12.11,2.05.33,2.8.23.74.55,1.3.96,1.68.41.37.9.55,1.45.55Z"/>
      </g>
    </mask>
  </defs>
  <path class="cls-2" d="M8.36,56.18c-1.22,0-2.27-.31-3.15-.9-.88-.6-1.55-1.46-2.02-2.59-.47-1.13-.7-2.49-.7-4.08,0-1.59.23-2.94.7-4.06.47-1.12,1.15-1.97,2.02-2.55.88-.59,1.93-.88,3.15-.88s2.26.29,3.14.88c.88.59,1.56,1.44,2.03,2.56.47,1.11.71,2.46.7,4.05,0,1.6-.24,2.96-.71,4.09-.47,1.13-1.14,2-2.02,2.59-.88.6-1.92.89-3.15.89ZM8.36,53.63c.83,0,1.5-.42,2-1.26.5-.84.74-2.1.74-3.77,0-1.1-.11-2.02-.34-2.76-.22-.73-.54-1.29-.95-1.65-.41-.37-.89-.55-1.44-.55-.83,0-1.49.41-1.99,1.24-.5.83-.75,2.07-.75,3.72,0,1.12.11,2.05.33,2.8.23.74.55,1.3.96,1.68.41.37.89.55,1.45.55ZM24.33,56.18c-1.22,0-2.27-.31-3.15-.9-.88-.6-1.55-1.46-2.02-2.59-.47-1.13-.7-2.49-.7-4.08,0-1.59.23-2.94.7-4.06.47-1.12,1.15-1.97,2.02-2.55.88-.59,1.93-.88,3.15-.88s2.26.29,3.14.88c.88.59,1.56,1.44,2.03,2.56.47,1.11.71,2.46.7,4.05,0,1.6-.24,2.96-.71,4.09-.47,1.13-1.14,2-2.02,2.59-.88.6-1.92.89-3.15.89ZM24.33,53.63c.83,0,1.5-.42,2-1.26.5-.84.74-2.1.74-3.77,0-1.1-.11-2.02-.34-2.76-.22-.73-.54-1.29-.95-1.65-.41-.37-.89-.55-1.44-.55-.83,0-1.49.41-1.99,1.24-.5.83-.75,2.07-.75,3.72,0,1.12.11,2.05.33,2.8.23.74.55,1.3.96,1.68.41.37.89.55,1.45.55ZM40.96,40.64l-4.69,17.41h-2.61l4.69-17.41h2.61ZM50.3,56.18c-1.22,0-2.27-.31-3.15-.9-.88-.6-1.55-1.46-2.02-2.59-.47-1.13-.7-2.49-.7-4.08,0-1.59.23-2.94.7-4.06.47-1.12,1.15-1.97,2.02-2.55.88-.59,1.93-.88,3.15-.88s2.26.29,3.14.88c.88.59,1.56,1.44,2.03,2.56.47,1.11.71,2.46.7,4.05,0,1.6-.24,2.96-.71,4.09-.47,1.13-1.14,2-2.02,2.59-.88.6-1.92.89-3.15.89ZM50.3,53.63c.83,0,1.5-.42,2-1.26.5-.84.74-2.1.74-3.77,0-1.1-.11-2.02-.34-2.76-.22-.73-.54-1.29-.95-1.65-.41-.37-.89-.55-1.44-.55-.83,0-1.49.41-1.99,1.24-.5.83-.75,2.07-.75,3.72,0,1.12.11,2.05.33,2.8.23.74.55,1.3.96,1.68.41.37.89.55,1.45.55ZM66.27,56.18c-1.22,0-2.27-.31-3.15-.9-.88-.6-1.55-1.46-2.02-2.59-.47-1.13-.7-2.49-.7-4.08,0-1.59.23-2.94.7-4.06.47-1.12,1.15-1.97,2.02-2.55.88-.59,1.93-.88,3.15-.88s2.26.29,3.14.88c.88.59,1.56,1.44,2.03,2.56.47,1.11.71,2.46.7,4.05,0,1.6-.24,2.96-.71,4.09-.47,1.13-1.14,2-2.02,2.59-.88.6-1.92.89-3.15.89ZM66.27,53.63c.83,0,1.5-.42,2-1.26.5-.84.74-2.1.74-3.77,0-1.1-.11-2.02-.34-2.76-.22-.73-.54-1.29-.95-1.65-.41-.37-.89-.55-1.44-.55-.83,0-1.49.41-1.99,1.24-.5.83-.75,2.07-.75,3.72,0,1.12.11,2.05.33,2.8.23.74.55,1.3.96,1.68.41.37.89.55,1.45.55ZM82.9,40.64l-4.69,17.41h-2.61l4.69-17.41h2.61ZM92.23,56.18c-1.22,0-2.27-.31-3.15-.9-.88-.6-1.55-1.46-2.02-2.59-.47-1.13-.7-2.49-.7-4.08,0-1.59.23-2.94.7-4.06.47-1.12,1.15-1.97,2.02-2.55.88-.59,1.93-.88,3.15-.88s2.26.29,3.14.88c.88.59,1.56,1.44,2.03,2.56.47,1.11.71,2.46.7,4.05,0,1.6-.24,2.96-.71,4.09-.47,1.13-1.14,2-2.02,2.59-.88.6-1.92.89-3.15.89ZM92.23,53.63c.83,0,1.5-.42,2-1.26.5-.84.74-2.1.74-3.77,0-1.1-.11-2.02-.34-2.76-.22-.73-.54-1.29-.95-1.65-.41-.37-.89-.55-1.44-.55-.83,0-1.49.41-1.99,1.24-.5.83-.75,2.07-.75,3.72,0,1.12.11,2.05.33,2.8.23.74.55,1.3.96,1.68.41.37.89.55,1.45.55ZM108.2,56.18c-1.22,0-2.27-.31-3.15-.9-.88-.6-1.55-1.46-2.02-2.59-.47-1.13-.7-2.49-.7-4.08,0-1.59.23-2.94.7-4.06.47-1.12,1.15-1.97,2.02-2.55.88-.59,1.93-.88,3.15-.88s2.26.29,3.14.88c.88.59,1.56,1.44,2.03,2.56.47,1.11.71,2.46.7,4.05,0,1.6-.24,2.96-.71,4.09-.47,1.13-1.14,2-2.02,2.59-.88.6-1.93.89-3.15.89ZM108.2,53.63c.83,0,1.5-.42,1.99-1.26.5-.84.74-2.1.74-3.77,0-1.1-.11-2.02-.34-2.76-.22-.73-.54-1.29-.95-1.65-.41-.37-.89-.55-1.44-.55-.83,0-1.49.41-1.99,1.24-.5.83-.75,2.07-.75,3.72,0,1.12.11,2.05.33,2.8.23.74.55,1.3.96,1.68.41.37.9.55,1.45.55ZM124.17,56.18c-1.22,0-2.27-.31-3.15-.9-.88-.6-1.55-1.46-2.02-2.59-.47-1.13-.7-2.49-.7-4.08,0-1.59.23-2.94.7-4.06.47-1.12,1.15-1.97,2.02-2.55.88-.59,1.93-.88,3.15-.88s2.26.29,3.14.88c.88.59,1.56,1.44,2.03,2.56.47,1.11.71,2.46.7,4.05,0,1.6-.24,2.96-.71,4.09-.47,1.13-1.14,2-2.02,2.59-.88.6-1.93.89-3.15.89ZM124.17,53.63c.83,0,1.5-.42,2-1.26.5-.84.74-2.1.74-3.77,0-1.1-.11-2.02-.34-2.76-.22-.73-.54-1.29-.95-1.65-.41-.37-.89-.55-1.44-.55-.83,0-1.49.41-1.99,1.24-.5.83-.75,2.07-.75,3.72,0,1.12.11,2.05.33,2.8.23.74.55,1.3.96,1.68.41.37.89.55,1.45.55ZM140.14,56.18c-1.22,0-2.27-.31-3.15-.9-.88-.6-1.55-1.46-2.02-2.59-.47-1.13-.7-2.49-.7-4.08,0-1.59.24-2.94.7-4.06.47-1.12,1.15-1.97,2.02-2.55.88-.59,1.93-.88,3.15-.88s2.26.29,3.14.88c.88.59,1.56,1.44,2.03,2.56.47,1.11.71,2.46.7,4.05,0,1.6-.24,2.96-.71,4.09-.47,1.13-1.14,2-2.02,2.59-.88.6-1.92.89-3.15.89ZM140.14,53.63c.83,0,1.5-.42,2-1.26.5-.84.74-2.1.74-3.77,0-1.1-.11-2.02-.34-2.76-.22-.73-.54-1.29-.95-1.65-.41-.37-.89-.55-1.44-.55-.83,0-1.49.41-1.99,1.24-.5.83-.75,2.07-.75,3.72,0,1.12.11,2.05.33,2.8.23.74.55,1.3.96,1.68.41.37.9.55,1.45.55Z"/>
  <g class="cls-5">
    <path class="cls-4" d="M8.36,56.18v2s0,0,0,0v-2ZM5.21,55.28l-1.13,1.65h0s1.12-1.65,1.12-1.65ZM3.19,52.69l-1.85.77h0s1.85-.77,1.85-.77ZM2.49,48.61h2s0,0,0,0h-2ZM3.19,44.55l-1.84-.78h0s1.84.78,1.84.78ZM5.22,42l1.11,1.67h0s-1.11-1.67-1.11-1.67ZM11.5,42l-1.11,1.66h0s1.11-1.66,1.11-1.66ZM13.53,44.56l-1.84.78h0s1.84-.78,1.84-.78ZM14.24,48.61h-2s0,0,0,0h2ZM13.53,52.7l-1.85-.77h0s1.85.77,1.85.77ZM11.51,55.29l1.13,1.65h0l-1.13-1.65ZM10.36,52.38l1.72,1.02h0l-1.72-1.02ZM11.1,48.61h-2,0s2,0,2,0ZM10.76,45.85l-1.91.58h0s1.91-.58,1.91-.58ZM9.81,44.19l-1.34,1.48h0s1.34-1.48,1.34-1.48ZM6.37,44.88l-1.71-1.03h0l1.71,1.03ZM5.62,48.61h-2s0,0,0,0h2ZM5.96,51.4l-1.92.57h0s0,.01,0,.01l1.91-.58ZM6.91,53.08l-1.34,1.48h0s1.34-1.48,1.34-1.48ZM8.37,54.18c-.89,0-1.53-.22-2.04-.56l-2.24,3.31c1.26.85,2.71,1.24,4.27,1.25l.02-4ZM6.34,53.63c-.51-.35-.96-.88-1.3-1.71l-3.69,1.54c.6,1.43,1.5,2.63,2.74,3.47l2.25-3.31ZM5.03,51.92c-.34-.83-.55-1.91-.54-3.31H.49c0,1.77.25,3.41.85,4.84l3.7-1.53ZM4.49,48.61c0-1.4.21-2.47.55-3.28l-3.69-1.55c-.6,1.43-.86,3.06-.86,4.83h4ZM5.03,45.33c.34-.81.79-1.33,1.29-1.66l-2.21-3.33c-1.25.83-2.16,2.01-2.76,3.43l3.68,1.56ZM6.33,43.66c.5-.34,1.15-.54,2.04-.54v-4c-1.55,0-3,.38-4.26,1.22l2.22,3.33ZM8.36,43.12c.88,0,1.53.21,2.03.54l2.23-3.32c-1.25-.84-2.7-1.22-4.25-1.22v4ZM10.39,43.66c.51.34.96.86,1.3,1.67l3.68-1.56c-.6-1.42-1.51-2.61-2.76-3.44l-2.22,3.33ZM11.69,45.34c.34.8.55,1.86.54,3.26h4c0-1.76-.26-3.4-.86-4.83l-3.68,1.57ZM12.24,48.61c0,1.41-.21,2.49-.56,3.32l3.69,1.54c.6-1.44.87-3.08.87-4.86h-4ZM11.68,51.93c-.34.83-.79,1.36-1.3,1.7l2.25,3.31c1.25-.85,2.14-2.05,2.74-3.48l-3.7-1.53ZM10.38,53.64c-.5.34-1.14.55-2.02.55v4c1.56,0,3.02-.39,4.27-1.24l-2.25-3.31ZM8.36,55.63c1.67,0,2.93-.91,3.72-2.24l-3.44-2.04c-.12.21-.21.27-.22.27,0,0,0,0,0,0,0,0,0,0,0,0,0,0,0,0-.01,0,0,0-.02,0-.04,0v4ZM12.08,53.4c.77-1.3,1.02-2.99,1.02-4.8h-4c0,1.55-.23,2.38-.46,2.76l3.44,2.04ZM13.1,48.61c0-1.22-.12-2.36-.43-3.35l-3.82,1.18c.15.48.25,1.18.25,2.16h4ZM12.67,45.27c-.29-.95-.76-1.87-1.53-2.56l-2.67,2.98c.05.05.22.23.37.75l3.83-1.16ZM11.15,42.71c-.78-.71-1.74-1.07-2.79-1.07v4s.04,0,.05,0c0,0,0,0,0,0,0,0,0,0,0,0,0,0,0,0,0,0h0s0,0,0,0c0,0,0,0,0,0,0,0,.02.01.03.03l2.69-2.96ZM8.36,41.64c-1.66,0-2.92.9-3.7,2.21l3.43,2.06c.12-.21.21-.26.22-.27,0,0,0,0,0,0,0,0,0,0,0,0,0,0,.02,0,.06,0v-4ZM4.66,43.85c-.77,1.29-1.03,2.96-1.04,4.74h4c0-1.51.25-2.32.47-2.69l-3.43-2.06ZM3.62,48.61c0,1.23.12,2.37.42,3.37l3.83-1.14c-.15-.5-.25-1.23-.25-2.23H3.62ZM4.04,51.99c.29.96.76,1.88,1.53,2.57l2.69-2.96c-.06-.05-.23-.25-.39-.78l-3.83,1.17ZM5.58,54.57c.78.7,1.74,1.06,2.78,1.06v-4s-.04,0-.05,0c0,0-.01,0-.01,0,0,0,0,0-.01,0,0,0-.02-.01-.04-.03l-2.67,2.98ZM24.33,56.18v2s0,0,0,0v-2ZM21.18,55.28l-1.13,1.65h0s1.12-1.65,1.12-1.65ZM19.16,52.69l-1.85.77h0s1.85-.77,1.85-.77ZM18.46,48.61h2s0,0,0,0h-2ZM19.16,44.55l-1.84-.78h0s1.84.78,1.84.78ZM21.19,42l1.11,1.67h0s-1.11-1.67-1.11-1.67ZM27.47,42l-1.11,1.66h0s1.11-1.66,1.11-1.66ZM29.5,44.56l-1.84.78h0s1.84-.78,1.84-.78ZM30.21,48.61h-2s0,0,0,0h2ZM29.5,52.7l-1.84-.77h0s1.85.77,1.85.77ZM27.48,55.29l1.13,1.65-1.13-1.65ZM26.33,52.38l1.72,1.02-1.72-1.02ZM27.07,48.61h-2s2,0,2,0ZM26.73,45.85l-1.91.58h0s1.91-.58,1.91-.58ZM25.77,44.19l-1.34,1.48h0s1.34-1.48,1.34-1.48ZM22.34,44.88l-1.72-1.03h0l1.72,1.03ZM21.59,48.61h-2s0,0,0,0h2ZM21.93,51.4l-1.92.57h0s0,.01,0,.01l1.91-.58ZM22.88,53.08l-1.34,1.48h0s1.34-1.48,1.34-1.48ZM24.34,54.18c-.89,0-1.53-.22-2.04-.56l-2.24,3.31c1.26.85,2.71,1.24,4.27,1.25l.02-4ZM22.31,53.63c-.51-.35-.96-.88-1.31-1.71l-3.69,1.54c.6,1.43,1.5,2.63,2.74,3.47l2.25-3.31ZM21,51.92c-.34-.83-.55-1.91-.54-3.31h-4c0,1.77.25,3.41.85,4.84l3.7-1.53ZM20.46,48.61c0-1.4.21-2.47.55-3.28l-3.69-1.55c-.6,1.43-.86,3.06-.86,4.83h4ZM21,45.33c.34-.81.79-1.33,1.29-1.66l-2.21-3.33c-1.25.83-2.16,2.01-2.76,3.43l3.68,1.56ZM22.3,43.66c.51-.34,1.15-.54,2.04-.54v-4c-1.55,0-3,.38-4.26,1.22l2.22,3.33ZM24.33,43.12c.88,0,1.53.21,2.03.54l2.23-3.32c-1.25-.84-2.7-1.22-4.25-1.22v4ZM26.36,43.66c.51.34.96.86,1.3,1.67l3.68-1.56c-.6-1.42-1.51-2.61-2.76-3.44l-2.22,3.33ZM27.66,45.34c.34.8.55,1.86.54,3.26h4c0-1.76-.26-3.4-.86-4.83l-3.68,1.57ZM28.21,48.61c0,1.41-.21,2.49-.56,3.32l3.69,1.54c.6-1.44.87-3.08.87-4.86h-4ZM27.65,51.93c-.34.83-.79,1.36-1.3,1.7l2.25,3.31c1.25-.85,2.14-2.05,2.74-3.48l-3.7-1.53ZM26.35,53.64c-.5.34-1.14.55-2.02.55v4c1.56,0,3.02-.39,4.27-1.24l-2.25-3.31ZM24.33,55.63c1.67,0,2.93-.91,3.72-2.24l-3.44-2.04c-.12.21-.21.27-.22.27,0,0,0,0,0,0s0,0,0,0c0,0,0,0-.01,0,0,0-.02,0-.04,0v4ZM28.05,53.4c.77-1.3,1.02-2.99,1.02-4.8h-4c0,1.55-.24,2.38-.46,2.76l3.44,2.04ZM29.07,48.61c0-1.22-.12-2.36-.43-3.35l-3.82,1.18c.15.48.25,1.18.25,2.16h4ZM28.64,45.27c-.29-.95-.76-1.87-1.53-2.56l-2.67,2.98c.05.05.22.23.37.75l3.83-1.16ZM27.12,42.71c-.78-.71-1.74-1.07-2.79-1.07v4s.04,0,.05,0c0,0,0,0,0,0,0,0,0,0,0,0,0,0,0,0,0,0h0s0,0,0,0c0,0,0,0,0,0,0,0,.02.01.03.03l2.69-2.96ZM24.33,41.64c-1.66,0-2.92.9-3.7,2.21l3.43,2.06c.12-.21.21-.26.22-.27,0,0,0,0,0,0,0,0,0,0,0,0,0,0,.02,0,.06,0v-4ZM20.63,43.85c-.77,1.29-1.03,2.96-1.04,4.74h4c0-1.51.25-2.32.47-2.69l-3.43-2.06ZM19.59,48.61c0,1.23.12,2.37.42,3.37l3.83-1.14c-.15-.5-.25-1.23-.25-2.23h-4ZM20.01,51.99c.29.96.76,1.88,1.53,2.57l2.69-2.96c-.06-.05-.23-.25-.39-.78l-3.83,1.17ZM21.55,54.57c.78.7,1.74,1.06,2.78,1.06v-4s-.04,0-.05,0c0,0-.01,0-.01,0,0,0,0,0-.01,0,0,0-.02-.01-.04-.03l-2.67,2.98ZM40.96,40.64l1.93.52.68-2.52h-2.61v2ZM36.28,58.05v2h1.53l.4-1.48-1.93-.52ZM33.67,58.05l-1.93-.52-.68,2.52h2.61v-2ZM38.36,40.64v-2h-1.53l-.4,1.48,1.93.52ZM39.03,40.12l-4.69,17.41,3.86,1.04,4.69-17.41-3.86-1.04ZM36.28,56.05h-2.61v4h2.61v-4ZM35.6,58.57l4.69-17.41-3.86-1.04-4.69,17.41,3.86,1.04ZM38.36,42.64h2.61v-4h-2.61v4ZM50.3,56.18v2s0,0,0,0v-2ZM47.14,55.28l-1.13,1.65h0s1.12-1.65,1.12-1.65ZM45.12,52.69l-1.85.77h0s1.85-.77,1.85-.77ZM44.42,48.61h2s0,0,0,0h-2ZM45.13,44.55l-1.84-.78h0s1.84.78,1.84.78ZM47.15,42l1.11,1.67h0s-1.11-1.67-1.11-1.67ZM53.43,42l-1.11,1.66h0s1.11-1.66,1.11-1.66ZM55.47,44.56l-1.84.78h0s1.84-.78,1.84-.78ZM56.17,48.61h-2s0,0,0,0h2ZM55.46,52.7l-1.85-.77h0s1.85.77,1.85.77ZM53.44,55.29l1.13,1.65-1.13-1.65ZM52.29,52.38l1.72,1.02-1.72-1.02ZM53.03,48.61h-2s2,0,2,0ZM52.69,45.85l-1.91.58h0s1.91-.58,1.91-.58ZM51.74,44.19l-1.34,1.48h0s1.34-1.48,1.34-1.48ZM48.31,44.88l-1.72-1.03h0l1.72,1.03ZM47.55,48.61h-2s0,0,0,0h2ZM47.89,51.4l-1.92.57h0s0,.01,0,.01l1.91-.58ZM48.85,53.08l-1.34,1.48h0s1.34-1.48,1.34-1.48ZM50.3,54.18c-.88,0-1.53-.22-2.04-.56l-2.24,3.31c1.26.85,2.71,1.24,4.27,1.25l.02-4ZM48.27,53.63c-.51-.35-.96-.88-1.3-1.71l-3.69,1.54c.6,1.43,1.5,2.63,2.74,3.47l2.25-3.31ZM46.97,51.92c-.34-.83-.55-1.91-.54-3.31h-4c0,1.77.25,3.41.85,4.84l3.7-1.53ZM46.42,48.61c0-1.4.21-2.47.55-3.28l-3.69-1.55c-.6,1.43-.86,3.06-.86,4.83h4ZM46.97,45.33c.34-.81.79-1.33,1.29-1.66l-2.21-3.33c-1.25.83-2.16,2.01-2.76,3.43l3.68,1.56ZM48.26,43.66c.51-.34,1.15-.54,2.04-.54v-4c-1.55,0-3,.38-4.26,1.22l2.22,3.33ZM50.3,43.12c.88,0,1.53.21,2.03.54l2.23-3.32c-1.25-.84-2.7-1.22-4.25-1.22v4ZM52.33,43.66c.51.34.96.86,1.3,1.67l3.68-1.56c-.6-1.42-1.51-2.61-2.76-3.44l-2.22,3.33ZM53.63,45.34c.34.8.55,1.86.54,3.26h4c0-1.76-.26-3.4-.86-4.83l-3.68,1.57ZM54.17,48.61c0,1.41-.21,2.49-.56,3.32l3.69,1.54c.6-1.44.87-3.08.87-4.86h-4ZM53.61,51.93c-.34.83-.79,1.36-1.3,1.7l2.25,3.31c1.25-.85,2.14-2.05,2.74-3.48l-3.7-1.53ZM52.32,53.64c-.5.34-1.14.55-2.02.55v4c1.56,0,3.02-.39,4.27-1.24l-2.25-3.31ZM50.3,55.63c1.67,0,2.93-.91,3.72-2.24l-3.44-2.04c-.12.21-.21.27-.22.27,0,0,0,0,0,0,0,0,0,0,0,0,0,0,0,0-.01,0,0,0-.02,0-.04,0v4ZM54.01,53.4c.77-1.3,1.02-2.99,1.02-4.8h-4c0,1.55-.24,2.38-.46,2.76l3.44,2.04ZM55.03,48.61c0-1.22-.12-2.36-.43-3.35l-3.82,1.18c.15.48.25,1.18.25,2.16h4ZM54.6,45.27c-.29-.95-.76-1.87-1.53-2.56l-2.67,2.98c.05.05.22.23.37.75l3.83-1.16ZM53.08,42.71c-.78-.71-1.74-1.07-2.79-1.07v4s.04,0,.05,0c0,0,0,0,0,0,0,0,0,0,0,0,0,0,0,0,0,0h0s0,0,0,0c0,0,0,0,0,0,0,0,.02.01.03.03l2.69-2.96ZM50.3,41.64c-1.66,0-2.92.9-3.7,2.21l3.43,2.06c.12-.21.21-.26.22-.27,0,0,0,0,0,0,0,0,0,0,0,0,0,0,.02,0,.06,0v-4ZM46.59,43.85c-.77,1.29-1.03,2.96-1.04,4.74h4c0-1.51.25-2.32.47-2.69l-3.43-2.06ZM45.55,48.61c0,1.23.12,2.37.42,3.37l3.83-1.14c-.15-.5-.25-1.23-.25-2.23h-4ZM45.98,51.99c.29.96.76,1.88,1.53,2.57l2.69-2.96c-.06-.05-.23-.25-.39-.78l-3.83,1.17ZM47.51,54.57c.78.7,1.74,1.06,2.78,1.06v-4s-.04,0-.05,0c0,0-.01,0-.01,0,0,0,0,0-.01,0,0,0-.02-.01-.04-.03l-2.67,2.98ZM66.27,56.18v2s0,0,0,0v-2ZM63.11,55.28l-1.13,1.65h0s1.12-1.65,1.12-1.65ZM61.09,52.69l-1.85.77h0s1.84-.77,1.84-.77ZM60.39,48.61h2s0,0,0,0h-2ZM61.09,44.55l-1.84-.78h0s1.84.78,1.84.78ZM63.12,42l1.11,1.67h0s-1.11-1.67-1.11-1.67ZM69.4,42l-1.11,1.66h0s1.11-1.66,1.11-1.66ZM71.44,44.56l-1.84.78h0s1.84-.78,1.84-.78ZM72.14,48.61h-2s0,0,0,0h2ZM71.43,52.7l-1.85-.77h0s1.85.77,1.85.77ZM69.41,55.29l1.13,1.65-1.13-1.65ZM68.26,52.38l1.72,1.02-1.72-1.02ZM69,48.61h-2s2,0,2,0ZM68.66,45.85l-1.91.58h0s1.91-.58,1.91-.58ZM67.71,44.19l-1.34,1.48h0s1.34-1.48,1.34-1.48ZM64.28,44.88l-1.71-1.03h0l1.71,1.03ZM63.52,48.61h-2s0,0,0,0h2ZM63.86,51.4l-1.92.57h0s0,.01,0,.01l1.91-.58ZM64.82,53.08l-1.34,1.48h0s1.34-1.48,1.34-1.48ZM66.27,54.18c-.89,0-1.53-.22-2.04-.56l-2.24,3.31c1.26.85,2.71,1.24,4.27,1.25l.02-4ZM64.24,53.63c-.51-.35-.96-.88-1.31-1.71l-3.69,1.54c.6,1.43,1.5,2.63,2.74,3.47l2.25-3.31ZM62.94,51.92c-.34-.83-.55-1.91-.54-3.31h-4c0,1.77.25,3.41.85,4.84l3.7-1.53ZM62.39,48.61c0-1.4.21-2.47.55-3.28l-3.69-1.55c-.6,1.43-.86,3.06-.86,4.83h4ZM62.94,45.33c.34-.81.79-1.33,1.29-1.66l-2.21-3.33c-1.25.83-2.16,2.01-2.76,3.43l3.68,1.56ZM64.23,43.66c.5-.34,1.15-.54,2.04-.54v-4c-1.55,0-3,.38-4.26,1.22l2.22,3.33ZM66.27,43.12c.88,0,1.53.21,2.03.54l2.23-3.32c-1.25-.84-2.7-1.22-4.25-1.22v4ZM68.29,43.66c.51.34.96.86,1.3,1.67l3.68-1.56c-.6-1.42-1.51-2.61-2.76-3.44l-2.22,3.33ZM69.6,45.34c.34.8.55,1.86.54,3.26h4c0-1.76-.26-3.4-.86-4.83l-3.68,1.57ZM70.14,48.61c0,1.41-.21,2.49-.56,3.32l3.69,1.54c.6-1.44.87-3.08.87-4.86h-4ZM69.58,51.93c-.34.83-.79,1.36-1.3,1.7l2.25,3.31c1.25-.85,2.14-2.05,2.74-3.48l-3.7-1.53ZM68.29,53.64c-.5.34-1.14.55-2.02.55v4c1.56,0,3.02-.39,4.27-1.24l-2.25-3.31ZM66.27,55.63c1.67,0,2.93-.91,3.72-2.24l-3.44-2.04c-.12.21-.21.27-.22.27,0,0,0,0,0,0,0,0,0,0,0,0,0,0,0,0-.01,0,0,0-.02,0-.04,0v4ZM69.98,53.4c.77-1.3,1.02-2.99,1.02-4.8h-4c0,1.55-.23,2.38-.46,2.76l3.44,2.04ZM71,48.61c0-1.22-.12-2.36-.43-3.35l-3.82,1.18c.15.48.25,1.18.25,2.16h4ZM70.57,45.27c-.29-.95-.76-1.87-1.53-2.56l-2.67,2.98c.05.05.22.23.37.75l3.83-1.16ZM69.05,42.71c-.78-.71-1.74-1.07-2.79-1.07v4s.04,0,.05,0c0,0,0,0,0,0,0,0,0,0,0,0h0s0,0,0,0c0,0,0,0,0,0,0,0,0,0,0,0,0,0,.02.01.03.03l2.69-2.96ZM66.27,41.64c-1.66,0-2.92.9-3.7,2.21l3.43,2.06c.12-.21.21-.26.22-.27,0,0,0,0,0,0,0,0,0,0,0,0,0,0,.02,0,.06,0v-4ZM62.56,43.85c-.77,1.29-1.03,2.96-1.04,4.74h4c0-1.51.25-2.32.47-2.69l-3.43-2.06ZM61.52,48.61c0,1.23.12,2.37.42,3.37l3.83-1.14c-.15-.5-.25-1.23-.25-2.23h-4ZM61.94,51.99c.29.96.76,1.88,1.53,2.57l2.69-2.96c-.06-.05-.23-.25-.39-.78l-3.83,1.17ZM63.48,54.57c.78.7,1.74,1.06,2.78,1.06v-4s-.04,0-.05,0c0,0-.01,0-.01,0,0,0,0,0-.01,0,0,0-.02-.01-.04-.03l-2.67,2.98ZM82.9,40.64l1.93.52.68-2.52h-2.61v2ZM78.21,58.05v2h1.53l.4-1.48-1.93-.52ZM75.6,58.05l-1.93-.52-.68,2.52h2.61v-2ZM80.29,40.64v-2h-1.53l-.4,1.48,1.93.52ZM80.96,40.12l-4.69,17.41,3.86,1.04,4.69-17.41-3.86-1.04ZM78.21,56.05h-2.61v4h2.61v-4ZM77.53,58.57l4.69-17.41-3.86-1.04-4.69,17.41,3.86,1.04ZM80.29,42.64h2.61v-4h-2.61v4ZM92.23,56.18v2s0,0,0,0v-2ZM89.07,55.28l-1.13,1.65h0s1.12-1.65,1.12-1.65ZM87.05,52.69l-1.85.77h0s1.85-.77,1.85-.77ZM86.35,48.61h2s0,0,0,0h-2ZM87.06,44.55l-1.84-.78h0s1.84.78,1.84.78ZM89.08,42l1.11,1.67h0s-1.11-1.67-1.11-1.67ZM95.37,42l-1.11,1.66h0s1.11-1.66,1.11-1.66ZM97.4,44.56l-1.84.78h0s1.84-.78,1.84-.78ZM98.1,48.61h-2s0,0,0,0h2ZM97.39,52.7l-1.85-.77h0s1.85.77,1.85.77ZM95.37,55.29l1.13,1.65-1.13-1.65ZM94.22,52.38l1.72,1.02-1.72-1.02ZM94.96,48.61h-2s2,0,2,0ZM94.62,45.85l-1.91.58h0s1.91-.58,1.91-.58ZM93.67,44.19l-1.34,1.48h0s1.34-1.48,1.34-1.48ZM90.24,44.88l-1.71-1.03h0l1.71,1.03ZM89.49,48.61h-2s0,0,0,0h2ZM89.82,51.4l-1.92.57h0s0,.01,0,.01l1.91-.58ZM90.78,53.08l-1.34,1.48h0s1.34-1.48,1.34-1.48ZM92.24,54.18c-.89,0-1.53-.22-2.04-.56l-2.24,3.31c1.26.85,2.71,1.24,4.27,1.25l.02-4ZM90.2,53.63c-.51-.35-.96-.88-1.31-1.71l-3.69,1.54c.6,1.43,1.5,2.63,2.74,3.47l2.25-3.31ZM88.9,51.92c-.34-.83-.55-1.91-.54-3.31h-4c0,1.77.25,3.41.85,4.84l3.7-1.53ZM88.35,48.61c0-1.4.21-2.47.55-3.28l-3.69-1.55c-.6,1.43-.86,3.06-.86,4.83h4ZM88.9,45.33c.34-.81.79-1.33,1.29-1.66l-2.21-3.33c-1.25.83-2.16,2.01-2.76,3.43l3.68,1.56ZM90.19,43.66c.5-.34,1.15-.54,2.04-.54v-4c-1.55,0-3,.38-4.26,1.22l2.22,3.33ZM92.23,43.12c.88,0,1.53.21,2.03.54l2.23-3.32c-1.25-.84-2.7-1.22-4.25-1.22v4ZM94.26,43.66c.51.34.96.86,1.3,1.67l3.68-1.56c-.6-1.42-1.51-2.61-2.76-3.44l-2.22,3.33ZM95.56,45.34c.34.8.55,1.86.54,3.26h4c0-1.76-.26-3.4-.86-4.83l-3.68,1.57ZM96.1,48.61c0,1.41-.21,2.49-.56,3.32l3.69,1.54c.6-1.44.87-3.08.87-4.86h-4ZM95.54,51.93c-.34.83-.79,1.36-1.3,1.7l2.25,3.31c1.25-.85,2.14-2.05,2.74-3.48l-3.7-1.53ZM94.25,53.64c-.5.34-1.14.55-2.02.55v4c1.56,0,3.02-.39,4.27-1.24l-2.25-3.31ZM92.23,55.63c1.67,0,2.93-.91,3.72-2.24l-3.44-2.04c-.12.21-.21.27-.22.27,0,0,0,0,0,0,0,0,0,0,0,0,0,0,0,0-.01,0,0,0-.02,0-.04,0v4ZM95.94,53.4c.77-1.3,1.02-2.99,1.02-4.8h-4c0,1.55-.23,2.38-.46,2.76l3.44,2.04ZM96.96,48.61c0-1.22-.12-2.36-.43-3.35l-3.82,1.18c.15.48.25,1.18.25,2.16h4ZM96.53,45.27c-.29-.95-.76-1.87-1.53-2.56l-2.67,2.98c.05.05.22.23.37.75l3.83-1.16ZM95.01,42.71c-.78-.71-1.74-1.07-2.79-1.07v4s.04,0,.05,0c0,0,0,0,0,0,0,0,0,0,0,0h0s0,0,0,0c0,0,0,0,0,0,0,0,0,0,0,0,0,0,.02.01.03.03l2.69-2.96ZM92.23,41.64c-1.66,0-2.92.9-3.7,2.21l3.43,2.06c.12-.21.21-.26.22-.27,0,0,0,0,0,0,0,0,0,0,0,0,0,0,.02,0,.06,0v-4ZM88.52,43.85c-.77,1.29-1.03,2.96-1.04,4.74h4c0-1.51.25-2.32.47-2.69l-3.43-2.06ZM87.49,48.61c0,1.23.12,2.37.42,3.37l3.83-1.14c-.15-.5-.25-1.23-.25-2.23h-4ZM87.91,51.99c.29.96.76,1.88,1.53,2.57l2.69-2.96c-.06-.05-.23-.25-.39-.78l-3.83,1.17ZM89.44,54.57c.78.7,1.74,1.06,2.78,1.06v-4s-.04,0-.05,0c0,0-.01,0-.01,0,0,0,0,0-.01,0,0,0-.02-.01-.04-.03l-2.67,2.98ZM108.2,56.18v2s0,0,0,0v-2ZM105.04,55.28l-1.13,1.65h0s1.12-1.65,1.12-1.65ZM103.02,52.69l-1.85.77h0s1.84-.77,1.84-.77ZM102.32,48.61h2s0,0,0,0h-2ZM103.03,44.55l-1.84-.78h0s1.84.78,1.84.78ZM105.05,42l1.11,1.67h0s-1.11-1.67-1.11-1.67ZM111.34,42l-1.11,1.66h0s1.11-1.66,1.11-1.66ZM113.37,44.56l-1.84.78h0s1.84-.78,1.84-.78ZM114.07,48.61h-2s0,0,0,0h2ZM113.36,52.7l-1.85-.77h0s1.85.77,1.85.77ZM111.34,55.29l1.13,1.65-1.13-1.65ZM110.19,52.38l1.72,1.02-1.72-1.02ZM110.93,48.61h-2s2,0,2,0ZM110.59,45.85l-1.91.58h0s1.91-.58,1.91-.58ZM109.64,44.19l-1.34,1.48h0s1.33-1.48,1.33-1.48ZM106.21,44.88l-1.71-1.03h0l1.71,1.03ZM105.46,48.61h-2s0,0,0,0h2ZM105.79,51.4l-1.92.57h0s0,.01,0,.01l1.91-.58ZM106.75,53.08l-1.35,1.48h.01s1.33-1.48,1.33-1.48ZM108.2,54.18c-.89,0-1.53-.22-2.04-.56l-2.24,3.31c1.26.85,2.71,1.24,4.27,1.25v-4ZM106.17,53.63c-.51-.35-.96-.88-1.31-1.71l-3.69,1.54c.6,1.43,1.5,2.63,2.74,3.47l2.25-3.31ZM104.87,51.92c-.34-.83-.55-1.91-.54-3.31h-4c0,1.77.25,3.41.85,4.84l3.7-1.53ZM104.32,48.61c0-1.4.21-2.47.55-3.28l-3.69-1.55c-.6,1.43-.86,3.06-.86,4.83h4ZM104.87,45.33c.35-.81.79-1.33,1.29-1.66l-2.22-3.33c-1.25.83-2.16,2.01-2.76,3.43l3.68,1.56ZM106.16,43.66c.5-.34,1.15-.54,2.04-.54v-4c-1.55,0-3,.38-4.26,1.22l2.22,3.33ZM108.2,43.12c.88,0,1.53.21,2.02.54l2.23-3.32c-1.25-.84-2.7-1.22-4.25-1.22v4ZM110.23,43.66c.51.34.95.86,1.3,1.67l3.68-1.56c-.6-1.42-1.51-2.61-2.76-3.44l-2.22,3.33ZM111.53,45.34c.34.8.55,1.86.54,3.26h4c0-1.76-.25-3.4-.86-4.83l-3.68,1.57ZM112.07,48.61c0,1.41-.21,2.49-.56,3.32l3.69,1.54c.6-1.44.86-3.08.86-4.86h-4ZM111.51,51.93c-.34.83-.79,1.36-1.29,1.7l2.25,3.31c1.25-.85,2.15-2.05,2.74-3.48l-3.7-1.53ZM110.22,53.64c-.5.34-1.14.55-2.02.55v4c1.56,0,3.01-.39,4.27-1.24l-2.25-3.31ZM108.2,55.63c1.67,0,2.93-.91,3.72-2.24l-3.44-2.04c-.12.21-.21.27-.22.27,0,0,0,0,0,0,0,0,0,0,0,0,0,0,0,0-.01,0,0,0-.02,0-.04,0v4ZM111.91,53.4c.77-1.3,1.02-2.99,1.02-4.8h-4c0,1.55-.24,2.38-.46,2.76l3.44,2.04ZM112.93,48.61c0-1.22-.12-2.36-.43-3.35l-3.82,1.18c.15.48.25,1.18.25,2.16h4ZM112.5,45.27c-.29-.95-.76-1.87-1.53-2.56l-2.67,2.98c.05.05.22.23.37.75l3.83-1.16ZM110.98,42.71c-.78-.71-1.74-1.07-2.78-1.07v4s.04,0,.05,0c0,0,0,0,0,0,0,0,0,0,0,0h0s0,0,0,0c0,0,0,0,0,0,0,0,.02.01.03.03l2.69-2.96ZM108.2,41.64c-1.66,0-2.92.9-3.7,2.21l3.43,2.06c.12-.21.21-.26.21-.27,0,0,0,0,0,0t0,0s.02,0,.06,0v-4ZM104.49,43.85c-.77,1.29-1.03,2.96-1.04,4.74h4c0-1.51.25-2.32.47-2.69l-3.43-2.06ZM103.46,48.61c0,1.23.12,2.37.42,3.37l3.83-1.14c-.15-.5-.25-1.23-.25-2.23h-4ZM103.88,51.99c.29.96.76,1.88,1.53,2.57l2.69-2.96c-.06-.05-.23-.25-.39-.78l-3.83,1.17ZM105.41,54.57c.78.7,1.74,1.06,2.78,1.06v-4s-.04,0-.05,0c0,0-.01,0-.01,0,0,0,0,0-.01,0,0,0-.02-.01-.04-.03l-2.67,2.98ZM124.17,56.18v2s0,0,0,0v-2ZM121.01,55.28l-1.13,1.65h0s1.12-1.65,1.12-1.65ZM118.99,52.69l-1.85.77h0s1.85-.77,1.85-.77ZM118.29,48.61h2s0,0,0,0h-2ZM119,44.55l-1.84-.78h0s1.85.78,1.85.78ZM121.02,42l1.11,1.67h0s-1.11-1.67-1.11-1.67ZM127.31,42l-1.11,1.66h0s1.11-1.66,1.11-1.66ZM129.34,44.56l-1.84.78h0s1.84-.78,1.84-.78ZM130.04,48.61h-2s0,0,0,0h2ZM129.33,52.7l-1.85-.77h0s1.85.77,1.85.77ZM127.31,55.29l1.12,1.65-1.12-1.65ZM126.16,52.38l1.72,1.02-1.72-1.02ZM126.9,48.61h-2s2,0,2,0ZM126.56,45.85l-1.91.58h0s1.91-.58,1.91-.58ZM125.61,44.19l-1.34,1.48h0s1.33-1.48,1.33-1.48ZM122.18,44.88l-1.71-1.03h0l1.71,1.03ZM121.43,48.61h-2s0,0,0,0h2ZM121.76,51.4l-1.92.57h0s0,.01,0,.01l1.91-.58ZM122.72,53.08l-1.34,1.48h0s1.33-1.48,1.33-1.48ZM124.17,54.18c-.89,0-1.54-.22-2.04-.56l-2.24,3.31c1.26.85,2.71,1.24,4.27,1.25l.02-4ZM122.14,53.63c-.51-.35-.96-.88-1.31-1.71l-3.69,1.54c.6,1.43,1.5,2.63,2.74,3.47l2.25-3.31ZM120.84,51.92c-.34-.83-.55-1.91-.54-3.31h-4c0,1.77.25,3.41.85,4.84l3.69-1.53ZM120.29,48.61c0-1.4.21-2.47.55-3.28l-3.69-1.55c-.6,1.43-.86,3.06-.86,4.83h4ZM120.84,45.33c.34-.81.79-1.33,1.29-1.66l-2.21-3.33c-1.25.83-2.16,2.01-2.76,3.43l3.68,1.56ZM122.13,43.66c.5-.34,1.15-.54,2.04-.54v-4c-1.55,0-3,.38-4.25,1.22l2.22,3.33ZM124.17,43.12c.88,0,1.53.21,2.03.54l2.23-3.32c-1.25-.84-2.7-1.22-4.25-1.22v4ZM126.2,43.66c.51.34.96.86,1.3,1.67l3.68-1.56c-.6-1.42-1.51-2.61-2.76-3.44l-2.22,3.33ZM127.5,45.34c.34.8.55,1.86.54,3.26h4c0-1.76-.26-3.4-.86-4.83l-3.68,1.57ZM128.04,48.61c0,1.41-.21,2.49-.56,3.32l3.69,1.54c.6-1.44.87-3.08.87-4.86h-4ZM127.48,51.93c-.34.83-.79,1.36-1.29,1.7l2.25,3.31c1.25-.85,2.15-2.05,2.74-3.48l-3.69-1.53ZM126.19,53.64c-.5.34-1.14.55-2.02.55v4c1.56,0,3.02-.39,4.27-1.24l-2.25-3.31ZM124.17,55.63c1.67,0,2.93-.91,3.72-2.24l-3.44-2.04c-.12.21-.21.27-.22.27,0,0,0,0,0,0,0,0,0,0,0,0,0,0,0,0-.01,0,0,0-.02,0-.04,0v4ZM127.88,53.4c.77-1.3,1.02-2.99,1.02-4.8h-4c0,1.55-.24,2.38-.46,2.76l3.44,2.04ZM128.9,48.61c0-1.22-.12-2.36-.43-3.35l-3.82,1.18c.15.48.25,1.18.25,2.16h4ZM128.47,45.27c-.29-.95-.76-1.87-1.53-2.56l-2.67,2.98c.05.05.22.23.37.75l3.83-1.16ZM126.95,42.71c-.78-.71-1.74-1.07-2.79-1.07v4s.04,0,.05,0c0,0,0,0,0,0,0,0,0,0,0,0h0s0,0,0,0c0,0,.02.01.03.03l2.69-2.96ZM124.17,41.64c-1.66,0-2.92.9-3.7,2.21l3.43,2.06c.12-.21.21-.26.21-.27,0,0,0,0,0,0,0,0,0,0,0,0,0,0,.02,0,.06,0v-4ZM120.46,43.85c-.77,1.29-1.03,2.96-1.04,4.74h4c0-1.51.25-2.32.47-2.69l-3.43-2.06ZM119.43,48.61c0,1.23.12,2.37.42,3.37l3.83-1.14c-.15-.5-.25-1.23-.25-2.23h-4ZM119.85,51.99c.29.96.76,1.88,1.53,2.57l2.69-2.96c-.06-.05-.23-.25-.39-.78l-3.83,1.17ZM121.38,54.57c.78.7,1.74,1.06,2.78,1.06v-4s-.04,0-.05,0c0,0-.01,0-.01,0,0,0,0,0-.01,0,0,0-.02-.01-.04-.03l-2.67,2.98ZM140.14,56.18v2s0,0,0,0v-2ZM136.98,55.28l-1.12,1.65h0s1.12-1.65,1.12-1.65ZM134.96,52.69l-1.85.77h0s1.85-.77,1.85-.77ZM134.26,48.61h2s0,0,0,0h-2ZM134.97,44.55l-1.84-.78h0s1.84.78,1.84.78ZM136.99,42l1.11,1.67h0s-1.11-1.67-1.11-1.67ZM143.28,42l-1.11,1.66h0s1.11-1.66,1.11-1.66ZM145.31,44.56l-1.84.78h0s1.84-.78,1.84-.78ZM146.01,48.61h-2s0,0,0,0h2ZM145.3,52.7l-1.84-.77h0s1.85.77,1.85.77ZM143.28,55.29l1.13,1.65-1.13-1.65ZM142.13,52.38l1.72,1.02-1.72-1.02ZM142.87,48.61h-2s2,0,2,0ZM142.53,45.85l-1.91.58h0s1.91-.58,1.91-.58ZM141.58,44.19l-1.34,1.48h0s1.34-1.48,1.34-1.48ZM138.15,44.88l-1.71-1.03h0l1.71,1.03ZM137.39,48.61h-2s0,0,0,0h2ZM137.73,51.4l-1.92.57h0s0,.01,0,.01l1.91-.58ZM138.69,53.08l-1.35,1.48h.01s1.33-1.48,1.33-1.48ZM140.14,54.18c-.89,0-1.53-.22-2.04-.56l-2.24,3.31c1.26.85,2.71,1.24,4.27,1.25l.02-4ZM138.11,53.63c-.51-.35-.96-.88-1.3-1.71l-3.69,1.54c.6,1.43,1.5,2.63,2.74,3.47l2.25-3.31ZM136.81,51.92c-.34-.83-.55-1.91-.54-3.31h-4c0,1.77.25,3.41.85,4.84l3.7-1.53ZM136.26,48.61c0-1.4.21-2.47.55-3.28l-3.69-1.55c-.6,1.43-.86,3.06-.86,4.83h4ZM136.81,45.33c.35-.81.79-1.33,1.29-1.66l-2.21-3.33c-1.25.83-2.16,2.01-2.76,3.43l3.68,1.56ZM138.1,43.66c.51-.34,1.15-.54,2.04-.54v-4c-1.55,0-3,.38-4.26,1.22l2.22,3.33ZM140.14,43.12c.88,0,1.53.21,2.02.54l2.23-3.32c-1.25-.84-2.7-1.22-4.25-1.22v4ZM142.17,43.66c.51.34.96.86,1.3,1.67l3.68-1.56c-.6-1.42-1.51-2.61-2.76-3.44l-2.22,3.33ZM143.47,45.34c.34.8.55,1.86.54,3.26h4c0-1.76-.26-3.4-.86-4.83l-3.68,1.57ZM144.01,48.61c0,1.41-.21,2.49-.55,3.32l3.69,1.54c.6-1.44.87-3.08.87-4.86h-4ZM143.45,51.93c-.34.83-.79,1.36-1.29,1.7l2.25,3.31c1.25-.85,2.15-2.05,2.74-3.48l-3.7-1.53ZM142.16,53.64c-.5.34-1.14.55-2.02.55v4c1.56,0,3.01-.39,4.27-1.24l-2.25-3.31ZM140.14,55.63c1.67,0,2.93-.91,3.72-2.24l-3.44-2.04c-.12.21-.21.27-.22.27,0,0,0,0,0,0s0,0,0,0c0,0,0,0-.01,0,0,0-.02,0-.04,0v4ZM143.85,53.4c.77-1.3,1.02-2.99,1.02-4.8h-4c0,1.55-.24,2.38-.46,2.76l3.44,2.04ZM144.87,48.61c0-1.22-.12-2.36-.43-3.35l-3.82,1.18c.15.48.25,1.18.25,2.16h4ZM144.44,45.27c-.29-.95-.76-1.87-1.53-2.56l-2.67,2.98c.05.05.22.23.37.75l3.83-1.16ZM142.92,42.71c-.78-.71-1.74-1.07-2.79-1.07v4s.04,0,.05,0c0,0,0,0,0,0,0,0,0,0,0,0h0s0,0,0,0c0,0,0,0,0,0,0,0,.02.01.03.03l2.69-2.96ZM140.14,41.64c-1.66,0-2.92.9-3.7,2.21l3.43,2.06c.12-.21.21-.26.21-.27,0,0,0,0,0,0t0,0s.02,0,.05,0v-4ZM136.43,43.85c-.77,1.29-1.03,2.96-1.04,4.74h4c0-1.51.25-2.32.47-2.69l-3.43-2.06ZM135.39,48.61c0,1.23.12,2.37.42,3.37l3.83-1.14c-.15-.5-.25-1.23-.25-2.23h-4ZM135.82,51.99c.29.96.76,1.88,1.53,2.57l2.69-2.96c-.06-.05-.23-.25-.39-.78l-3.83,1.17ZM137.35,54.57c.78.7,1.74,1.06,2.78,1.06v-4s-.04,0-.05,0c0,0-.01,0-.01,0,0,0,0,0-.01,0,0,0-.02-.01-.04-.03l-2.67,2.98Z"/>
  </g>
  <path class="cls-2" d="M31.87,28.44c-2.2,0-4.09-.55-5.68-1.62-1.58-1.07-2.79-2.63-3.64-4.67-.84-2.04-1.26-4.49-1.25-7.35,0-2.86.42-5.29,1.27-7.3.85-2.01,2.07-3.54,3.64-4.59,1.59-1.06,3.47-1.59,5.66-1.59s4.07.53,5.65,1.59c1.59,1.06,2.8,2.59,3.66,4.6.85,2,1.27,4.43,1.27,7.29,0,2.87-.43,5.33-1.28,7.36-.84,2.04-2.05,3.59-3.63,4.67-1.58,1.07-3.46,1.61-5.66,1.61ZM31.87,23.85c1.5,0,2.7-.75,3.59-2.26.89-1.51,1.34-3.77,1.33-6.79,0-1.99-.2-3.64-.61-4.96-.4-1.32-.97-2.31-1.71-2.98-.73-.66-1.6-1-2.6-1-1.49,0-2.68.75-3.58,2.24-.89,1.49-1.35,3.72-1.36,6.7,0,2.01.2,3.69.6,5.04.41,1.34.98,2.34,1.73,3.02.74.66,1.61,1,2.61,1ZM56.65,28.44c-2.2,0-4.09-.55-5.68-1.62-1.58-1.07-2.79-2.63-3.64-4.67-.84-2.04-1.26-4.49-1.25-7.35,0-2.86.42-5.29,1.27-7.3.85-2.01,2.07-3.54,3.64-4.59,1.59-1.06,3.47-1.59,5.66-1.59s4.07.53,5.65,1.59c1.59,1.06,2.8,2.59,3.66,4.6.85,2,1.27,4.43,1.27,7.29,0,2.87-.43,5.33-1.28,7.36-.84,2.04-2.05,3.59-3.63,4.67s-3.46,1.61-5.66,1.61ZM56.65,23.85c1.5,0,2.7-.75,3.59-2.26.89-1.51,1.34-3.77,1.33-6.79,0-1.99-.2-3.64-.61-4.96-.4-1.32-.97-2.31-1.71-2.98-.73-.66-1.6-1-2.6-1-1.49,0-2.68.75-3.58,2.24-.89,1.49-1.35,3.72-1.36,6.7,0,2.01.2,3.69.6,5.04.41,1.34.98,2.34,1.73,3.02.74.66,1.61,1,2.61,1ZM74.41,24.82c-.84,0-1.57-.3-2.17-.89-.6-.6-.89-1.32-.89-2.17s.3-1.55.89-2.15c.61-.6,1.33-.89,2.17-.89s1.53.3,2.15.89c.61.6.92,1.31.92,2.15,0,.56-.14,1.08-.43,1.55-.28.46-.65.83-1.11,1.11-.46.27-.97.41-1.52.41ZM74.41,11.97c-.84,0-1.57-.3-2.17-.89-.6-.6-.89-1.32-.89-2.17s.3-1.55.89-2.13c.61-.6,1.33-.89,2.17-.89s1.53.3,2.15.89c.61.59.92,1.3.92,2.13,0,.57-.14,1.09-.43,1.56-.28.46-.65.83-1.11,1.1-.46.27-.97.41-1.52.41ZM92.16,28.44c-2.2,0-4.09-.55-5.68-1.62-1.58-1.07-2.79-2.63-3.64-4.67-.84-2.04-1.26-4.49-1.25-7.35,0-2.86.42-5.29,1.27-7.3.85-2.01,2.07-3.54,3.64-4.59,1.59-1.06,3.47-1.59,5.66-1.59s4.07.53,5.65,1.59c1.59,1.06,2.8,2.59,3.66,4.6.85,2,1.27,4.43,1.27,7.29,0,2.87-.43,5.33-1.28,7.36-.84,2.04-2.05,3.59-3.63,4.67s-3.46,1.61-5.66,1.61ZM92.16,23.85c1.5,0,2.7-.75,3.59-2.26.89-1.51,1.34-3.77,1.33-6.79,0-1.99-.2-3.64-.61-4.96-.4-1.32-.97-2.31-1.71-2.98-.73-.66-1.6-1-2.6-1-1.49,0-2.68.75-3.58,2.24-.89,1.49-1.35,3.72-1.36,6.7,0,2.01.2,3.69.6,5.04.41,1.34.98,2.34,1.73,3.02.74.66,1.61,1,2.61,1ZM116.95,28.44c-2.2,0-4.09-.55-5.68-1.62-1.58-1.07-2.79-2.63-3.64-4.67-.84-2.04-1.26-4.49-1.25-7.35,0-2.86.42-5.29,1.27-7.3.85-2.01,2.07-3.54,3.64-4.59,1.58-1.06,3.47-1.59,5.66-1.59s4.07.53,5.65,1.59c1.59,1.06,2.8,2.59,3.66,4.6.85,2,1.27,4.43,1.26,7.29,0,2.87-.43,5.33-1.28,7.36-.84,2.04-2.05,3.59-3.63,4.67-1.58,1.07-3.46,1.61-5.66,1.61ZM116.95,23.85c1.5,0,2.7-.75,3.59-2.26.9-1.51,1.34-3.77,1.33-6.79,0-1.99-.21-3.64-.61-4.96-.4-1.32-.97-2.31-1.71-2.98-.73-.66-1.6-1-2.59-1-1.49,0-2.69.75-3.58,2.24-.9,1.49-1.35,3.72-1.36,6.7,0,2.01.2,3.69.6,5.04.41,1.34.98,2.34,1.73,3.02.74.66,1.61,1,2.61,1Z"/>
  <path class="cls-4" d="M31.87,28.44v1s0,0,0,0v-1ZM26.19,26.82l-.56.83h0s.56-.83.56-.83ZM22.55,22.15l-.92.38h0s.92-.38.92-.38ZM21.3,14.8h1s0,0,0,0h-1ZM22.56,7.5l-.92-.39h0s.92.39.92.39ZM26.21,2.91l.55.83h0s-.55-.83-.55-.83ZM37.52,2.91l-.56.83h0s.55-.83.55-.83ZM41.18,7.51l-.92.39h0s.92-.39.92-.39ZM42.44,14.8h-1s0,0,0,0h1ZM41.16,22.16l-.92-.39h0s.92.39.92.39ZM37.53,26.83l.56.83-.56-.83ZM35.46,21.59l.86.51-.86-.51ZM36.79,14.8h-1s1,0,1,0ZM36.18,9.84l-.96.29h0s.96-.29.96-.29ZM34.46,6.86l-.67.74h0s.67-.74.67-.74ZM28.29,8.1l-.86-.51h0l.86.51ZM26.93,14.8h-1s0,0,0,0h1ZM27.54,19.84l-.96.29h0s.96-.29.96-.29ZM29.26,22.85l-.67.74h0s.67-.74.67-.74ZM31.87,27.44c-2.03,0-3.72-.5-5.12-1.45l-1.12,1.66c1.77,1.2,3.87,1.79,6.23,1.8v-2ZM26.76,25.99c-1.39-.95-2.49-2.34-3.28-4.23l-1.84.77c.91,2.19,2.24,3.91,4,5.11l1.13-1.65ZM23.47,21.77c-.78-1.88-1.18-4.2-1.18-6.97h-2c0,2.95.42,5.54,1.33,7.73l1.85-.77ZM22.3,14.8c0-2.76.41-5.06,1.19-6.91l-1.84-.77c-.91,2.17-1.34,4.74-1.34,7.69h2ZM23.48,7.89c.79-1.86,1.89-3.22,3.28-4.15l-1.11-1.67c-1.76,1.17-3.09,2.87-4.01,5.03l1.84.78ZM26.76,3.74c1.4-.93,3.09-1.42,5.11-1.42V.32c-2.36,0-4.44.57-6.22,1.75l1.11,1.66ZM31.87,2.32c2.02,0,3.71.49,5.09,1.42l1.11-1.66c-1.77-1.18-3.85-1.75-6.21-1.75v2ZM36.97,3.74c1.4.93,2.5,2.3,3.29,4.16l1.84-.78c-.92-2.16-2.25-3.86-4.02-5.04l-1.11,1.66ZM40.26,7.9c.79,1.85,1.19,4.13,1.19,6.89h2c0-2.94-.43-5.52-1.35-7.68l-1.84.78ZM41.44,14.8c0,2.78-.41,5.09-1.2,6.98l1.85.77c.92-2.19,1.36-4.78,1.36-7.75h-2ZM40.24,21.78c-.78,1.89-1.88,3.27-3.27,4.22l1.13,1.65c1.76-1.2,3.09-2.92,3.99-5.11l-1.85-.77ZM36.97,26c-1.39.94-3.07,1.44-5.1,1.44v2c2.37,0,4.46-.58,6.23-1.78l-1.13-1.65ZM31.87,24.85c1.92,0,3.41-1,4.45-2.75l-1.72-1.02c-.75,1.27-1.65,1.77-2.73,1.77v2ZM36.32,22.1c1.03-1.74,1.48-4.22,1.47-7.3h-2c0,2.96-.43,5-1.19,6.28l1.72,1.02ZM37.79,14.8c0-2.05-.21-3.81-.66-5.26l-1.91.59c.37,1.19.57,2.74.57,4.66h2ZM37.13,9.55c-.43-1.43-1.08-2.61-2-3.43l-1.34,1.49c.56.5,1.06,1.31,1.42,2.52l1.91-.58ZM35.14,6.12c-.92-.83-2.02-1.26-3.27-1.26v2c.75,0,1.38.24,1.92.74l1.34-1.48ZM31.87,4.86c-1.91,0-3.4.99-4.44,2.72l1.72,1.03c.75-1.25,1.65-1.75,2.72-1.75v-2ZM27.43,7.58c-1.03,1.72-1.49,4.17-1.5,7.21h2c0-2.9.45-4.92,1.21-6.18l-1.72-1.03ZM25.93,14.8c0,2.07.21,3.85.64,5.32l1.92-.57c-.36-1.22-.56-2.8-.56-4.75h-2ZM26.58,20.13c.44,1.44,1.09,2.63,2.01,3.47l1.34-1.48c-.57-.51-1.07-1.34-1.44-2.57l-1.91.58ZM28.59,23.6c.93.83,2.03,1.25,3.28,1.25v-2c-.75,0-1.38-.24-1.94-.74l-1.34,1.49ZM56.65,28.44v1s0,0,0,0v-1ZM50.98,26.82l-.56.83h0s.56-.83.56-.83ZM47.33,22.15l-.92.38h0s.92-.38.92-.38ZM46.08,14.8h1s0,0,0,0h-1ZM47.35,7.5l-.92-.39h0s.92.39.92.39ZM50.99,2.91l.55.83h0s-.55-.83-.55-.83ZM62.3,2.91l-.56.83h0s.55-.83.55-.83ZM65.96,7.51l-.92.39h0s.92-.39.92-.39ZM67.23,14.8h-1s0,0,0,0h1ZM65.95,22.16l-.92-.39h0s.92.39.92.39ZM62.32,26.83l.56.83-.56-.83ZM60.25,21.59l.86.51-.86-.51ZM61.58,14.8h-1s1,0,1,0ZM60.96,9.84l-.96.29h0s.96-.29.96-.29ZM59.25,6.86l-.67.74h0s.67-.74.67-.74ZM53.07,8.1l-.86-.51.86.51ZM51.72,14.8h-1s0,0,0,0h1ZM52.32,19.84l-.96.29h0s.96-.29.96-.29ZM54.05,22.85l-.67.74h0s.67-.74.67-.74ZM56.66,27.44c-2.03,0-3.72-.5-5.12-1.45l-1.12,1.66c1.77,1.2,3.87,1.79,6.23,1.8v-2ZM51.54,25.99c-1.39-.95-2.49-2.34-3.28-4.23l-1.84.77c.91,2.19,2.24,3.91,4,5.11l1.13-1.65ZM48.26,21.77c-.78-1.88-1.18-4.2-1.18-6.97h-2c0,2.95.42,5.54,1.33,7.73l1.85-.77ZM47.08,14.8c0-2.76.41-5.06,1.19-6.91l-1.84-.77c-.91,2.17-1.34,4.74-1.34,7.69h2ZM48.27,7.89c.79-1.86,1.89-3.22,3.28-4.15l-1.11-1.67c-1.76,1.17-3.09,2.87-4.01,5.03l1.84.78ZM51.55,3.74c1.4-.93,3.09-1.42,5.11-1.42V.32c-2.36,0-4.44.57-6.22,1.75l1.11,1.66ZM56.65,2.32c2.02,0,3.71.49,5.09,1.42l1.11-1.66c-1.77-1.18-3.85-1.75-6.21-1.75v2ZM61.75,3.74c1.4.93,2.5,2.3,3.29,4.16l1.84-.78c-.92-2.16-2.25-3.86-4.02-5.04l-1.11,1.66ZM65.04,7.9c.79,1.85,1.19,4.13,1.19,6.89h2c0-2.94-.43-5.52-1.35-7.68l-1.84.78ZM66.23,14.8c0,2.78-.41,5.09-1.2,6.98l1.85.77c.92-2.19,1.36-4.78,1.36-7.75h-2ZM65.02,21.78c-.78,1.89-1.88,3.27-3.27,4.22l1.13,1.65c1.76-1.2,3.09-2.92,3.99-5.11l-1.85-.77ZM61.75,26c-1.39.94-3.07,1.44-5.1,1.44v2c2.37,0,4.46-.58,6.23-1.78l-1.13-1.65ZM56.65,24.85c1.92,0,3.41-1,4.45-2.75l-1.72-1.02c-.75,1.27-1.65,1.77-2.73,1.77v2ZM61.11,22.1c1.03-1.74,1.48-4.22,1.47-7.3h-2c0,2.96-.43,5-1.19,6.28l1.72,1.02ZM62.58,14.8c0-2.05-.21-3.81-.66-5.26l-1.91.59c.37,1.19.57,2.74.57,4.66h2ZM61.92,9.55c-.43-1.43-1.08-2.61-2-3.43l-1.34,1.49c.56.5,1.06,1.31,1.42,2.52l1.91-.58ZM59.92,6.12c-.92-.83-2.02-1.26-3.27-1.26v2c.75,0,1.38.24,1.92.74l1.34-1.48ZM56.65,4.86c-1.91,0-3.4.99-4.44,2.72l1.72,1.03c.75-1.25,1.65-1.75,2.72-1.75v-2ZM52.22,7.58c-1.03,1.72-1.49,4.17-1.5,7.21h2c0-2.9.45-4.92,1.21-6.18l-1.72-1.03ZM50.72,14.8c0,2.07.21,3.85.64,5.32l1.92-.57c-.36-1.22-.56-2.8-.56-4.75h-2ZM51.36,20.13c.44,1.44,1.09,2.63,2.01,3.47l1.34-1.48c-.57-.51-1.07-1.34-1.44-2.57l-1.91.58ZM53.38,23.6c.93.83,2.03,1.25,3.28,1.25v-2c-.75,0-1.38-.24-1.94-.74l-1.34,1.49ZM72.23,23.93l-.71.71h0s.7-.71.7-.71ZM72.23,19.61l-.7-.71h0s.71.71.71.71ZM76.56,19.61l.7-.72-.7.72ZM77.04,23.3l-.85-.53h0s.85.53.85.53ZM75.93,24.41l.51.86h.01s-.52-.86-.52-.86ZM72.23,11.08l-.71.71h0s.7-.71.7-.71ZM72.23,6.77l.7.71h0s-.7-.71-.7-.71ZM76.56,6.77l-.7.72h0s.69-.72.69-.72ZM77.04,10.46l-.85-.53h0s.85.53.85.53ZM75.93,11.56l-.51-.86.51.86ZM74.41,23.82c-.58,0-1.05-.19-1.47-.61l-1.4,1.42c.79.78,1.77,1.18,2.88,1.18v-2ZM72.94,23.22c-.41-.41-.6-.88-.6-1.47h-2c0,1.11.4,2.09,1.19,2.88l1.41-1.41ZM72.34,21.75c0-.57.19-1.03.6-1.44l-1.41-1.41c-.78.78-1.19,1.75-1.19,2.85h2ZM72.94,20.32c.42-.41.89-.61,1.47-.61v-2c-1.11,0-2.08.4-2.88,1.18l1.4,1.42ZM74.41,19.71c.54,0,1.01.19,1.45.61l1.39-1.43c-.79-.77-1.75-1.18-2.84-1.18v2ZM75.86,20.32c.43.41.62.87.62,1.43h2c0-1.11-.42-2.09-1.22-2.86l-1.39,1.43ZM76.48,21.75c0,.38-.1.71-.29,1.02l1.7,1.05c.39-.63.58-1.33.58-2.07h-2ZM76.19,22.78c-.2.32-.46.58-.78.78l1.04,1.71c.6-.36,1.08-.85,1.44-1.44l-1.71-1.04ZM75.42,23.55c-.3.18-.63.27-1.01.27v2c.73,0,1.41-.18,2.03-.55l-1.02-1.72ZM74.41,10.97c-.58,0-1.05-.19-1.47-.61l-1.4,1.42c.79.78,1.77,1.18,2.88,1.18v-2ZM72.94,10.37c-.41-.41-.6-.88-.6-1.47h-2c0,1.11.4,2.09,1.19,2.88l1.41-1.41ZM72.34,8.9c0-.57.19-1.02.6-1.42l-1.4-1.42c-.79.78-1.19,1.74-1.19,2.85h2ZM72.94,7.48c.42-.41.89-.61,1.47-.61v-2c-1.11,0-2.08.4-2.88,1.18l1.4,1.42ZM74.41,6.87c.54,0,1.01.19,1.45.61l1.39-1.43c-.79-.77-1.75-1.18-2.84-1.18v2ZM75.86,7.49c.42.4.61.86.61,1.41h2c0-1.11-.42-2.08-1.23-2.86l-1.38,1.44ZM76.48,8.9c0,.39-.1.73-.29,1.03l1.7,1.05c.39-.63.58-1.34.58-2.09h-2ZM76.19,9.94c-.2.32-.45.57-.77.76l1.02,1.72c.6-.36,1.09-.84,1.46-1.44l-1.71-1.04ZM75.42,10.7c-.3.18-.63.27-1.01.27v2c.73,0,1.41-.18,2.03-.55l-1.02-1.72ZM92.16,28.44v1s0,0,0,0v-1ZM86.49,26.82l-.56.83h0s.56-.83.56-.83ZM82.84,22.15l-.92.38h0s.92-.38.92-.38ZM81.59,14.8h1s0,0,0,0h-1ZM82.86,7.5l-.92-.39h0s.92.39.92.39ZM86.5,2.91l.55.83h0s-.55-.83-.55-.83ZM97.81,2.91l-.56.83h0s.55-.83.55-.83ZM101.47,7.51l-.92.39h0s.92-.39.92-.39ZM102.73,14.8h-1s0,0,0,0h1ZM101.46,22.16l-.92-.39h0s.92.39.92.39ZM97.83,26.83l.56.83-.56-.83ZM95.75,21.59l.86.51-.86-.51ZM97.08,14.8h-1s1,0,1,0ZM96.47,9.84l-.96.29h0s.96-.29.96-.29ZM94.76,6.86l-.67.74h0s.67-.74.67-.74ZM88.58,8.1l-.86-.51.86.51ZM87.23,14.8h-1s0,0,0,0h1ZM87.83,19.84l-.96.29h0s.96-.29.96-.29ZM89.55,22.85l-.67.74h0s.67-.74.67-.74ZM92.17,27.44c-2.03,0-3.72-.5-5.12-1.45l-1.12,1.66c1.77,1.2,3.87,1.79,6.23,1.8v-2ZM87.05,25.99c-1.39-.95-2.49-2.34-3.28-4.23l-1.85.77c.92,2.19,2.24,3.91,4,5.11l1.13-1.65ZM83.77,21.77c-.78-1.88-1.18-4.2-1.18-6.97h-2c0,2.95.42,5.54,1.33,7.73l1.85-.77ZM82.59,14.8c0-2.76.41-5.06,1.19-6.91l-1.84-.77c-.91,2.17-1.34,4.74-1.34,7.69h2ZM83.78,7.89c.79-1.86,1.89-3.22,3.28-4.15l-1.11-1.67c-1.76,1.17-3.09,2.87-4.01,5.03l1.84.78ZM87.05,3.74c1.4-.93,3.09-1.42,5.11-1.42V.32c-2.36,0-4.44.57-6.22,1.75l1.11,1.66ZM92.16,2.32c2.02,0,3.71.49,5.09,1.42l1.11-1.66c-1.77-1.18-3.85-1.75-6.21-1.75v2ZM97.26,3.74c1.4.93,2.5,2.3,3.29,4.16l1.84-.78c-.92-2.16-2.25-3.86-4.02-5.04l-1.11,1.66ZM100.55,7.9c.79,1.85,1.19,4.13,1.19,6.89h2c0-2.94-.43-5.52-1.35-7.68l-1.84.78ZM101.73,14.8c0,2.78-.41,5.09-1.2,6.98l1.85.77c.92-2.19,1.36-4.78,1.36-7.75h-2ZM100.53,21.78c-.78,1.89-1.88,3.27-3.27,4.22l1.13,1.65c1.76-1.2,3.09-2.92,3.99-5.11l-1.85-.77ZM97.26,26c-1.39.94-3.07,1.44-5.1,1.44v2c2.37,0,4.46-.58,6.23-1.78l-1.13-1.65ZM92.16,24.85c1.92,0,3.41-1,4.45-2.75l-1.72-1.02c-.75,1.27-1.65,1.77-2.73,1.77v2ZM96.61,22.1c1.03-1.74,1.48-4.22,1.47-7.3h-2c0,2.96-.43,5-1.19,6.28l1.72,1.02ZM98.08,14.8c0-2.05-.21-3.81-.66-5.26l-1.91.59c.37,1.19.57,2.74.57,4.66h2ZM97.43,9.55c-.43-1.43-1.08-2.61-2-3.43l-1.34,1.49c.56.5,1.06,1.31,1.42,2.52l1.91-.58ZM95.43,6.12c-.92-.83-2.02-1.26-3.27-1.26v2c.75,0,1.38.24,1.92.74l1.34-1.48ZM92.16,4.86c-1.91,0-3.4.99-4.44,2.72l1.72,1.03c.75-1.25,1.65-1.75,2.72-1.75v-2ZM87.73,7.58c-1.03,1.72-1.49,4.17-1.5,7.21h2c0-2.9.46-4.92,1.21-6.18l-1.72-1.03ZM86.23,14.8c0,2.07.21,3.85.64,5.32l1.92-.57c-.36-1.22-.56-2.8-.56-4.75h-2ZM86.87,20.13c.44,1.44,1.09,2.63,2.01,3.47l1.34-1.48c-.57-.51-1.07-1.34-1.44-2.57l-1.91.58ZM88.89,23.6c.93.83,2.03,1.25,3.28,1.25v-2c-.75,0-1.38-.24-1.94-.74l-1.34,1.49ZM116.95,28.44v1s0,0,0,0v-1ZM111.27,26.82l-.56.83h0s.56-.83.56-.83ZM107.63,22.15l-.92.38h0s.92-.38.92-.38ZM106.37,14.8h1s0,0,0,0h-1ZM107.64,7.5l-.92-.39h0s.92.39.92.39ZM111.28,2.91l.55.83h0s-.55-.83-.55-.83ZM122.6,2.91l-.56.83h0s.55-.83.55-.83ZM126.25,7.51l-.92.39h0s.92-.39.92-.39ZM127.52,14.8h-1s0,0,0,0h1ZM126.24,22.16l-.92-.39h0s.92.39.92.39ZM122.61,26.83l.56.83-.56-.83ZM120.54,21.59l.86.51-.86-.51ZM121.87,14.8h-1s1,0,1,0ZM121.26,9.84l-.96.29h0s.96-.29.96-.29ZM119.54,6.86l-.67.74h0s.67-.74.67-.74ZM113.37,8.1l-.86-.51.86.51ZM112.01,14.8h-1s0,0,0,0h1ZM112.61,19.84l-.96.29h0s.96-.29.96-.29ZM114.34,22.85l-.67.74h0s.67-.74.67-.74ZM116.95,27.44c-2.03,0-3.72-.5-5.12-1.45l-1.12,1.66c1.77,1.2,3.87,1.79,6.23,1.8v-2ZM111.83,25.99c-1.39-.95-2.49-2.34-3.28-4.23l-1.85.77c.92,2.19,2.24,3.91,4,5.11l1.13-1.65ZM108.55,21.77c-.78-1.88-1.18-4.2-1.18-6.97h-2c0,2.95.42,5.54,1.33,7.73l1.85-.77ZM107.37,14.8c0-2.76.41-5.06,1.19-6.91l-1.84-.77c-.91,2.17-1.34,4.74-1.34,7.69h2ZM108.56,7.89c.79-1.86,1.89-3.22,3.28-4.15l-1.11-1.67c-1.76,1.17-3.09,2.87-4.01,5.03l1.84.78ZM111.84,3.74c1.4-.93,3.09-1.42,5.11-1.42V.32c-2.36,0-4.44.57-6.22,1.75l1.11,1.66ZM116.95,2.32c2.02,0,3.71.49,5.09,1.42l1.11-1.66c-1.76-1.18-3.85-1.75-6.21-1.75v2ZM122.04,3.74c1.4.93,2.5,2.3,3.29,4.16l1.84-.78c-.92-2.16-2.25-3.86-4.02-5.04l-1.11,1.66ZM125.33,7.9c.79,1.85,1.19,4.13,1.19,6.89h2c0-2.94-.43-5.52-1.35-7.68l-1.84.78ZM126.52,14.8c0,2.78-.41,5.09-1.2,6.98l1.85.77c.92-2.19,1.36-4.78,1.36-7.75h-2ZM125.32,21.78c-.78,1.89-1.88,3.27-3.27,4.22l1.13,1.65c1.76-1.2,3.08-2.92,3.99-5.11l-1.85-.77ZM122.05,26c-1.39.94-3.07,1.44-5.1,1.44v2c2.37,0,4.46-.58,6.23-1.78l-1.13-1.65ZM116.95,24.85c1.92,0,3.41-1,4.45-2.75l-1.72-1.02c-.75,1.27-1.65,1.77-2.73,1.77v2ZM121.4,22.1c1.03-1.74,1.48-4.22,1.47-7.3h-2c0,2.96-.43,5-1.19,6.28l1.72,1.02ZM122.87,14.8c0-2.05-.21-3.81-.66-5.26l-1.91.59c.37,1.19.57,2.74.57,4.66h2ZM122.21,9.55c-.43-1.43-1.08-2.61-2-3.43l-1.33,1.49c.56.5,1.06,1.31,1.42,2.52l1.91-.58ZM120.21,6.12c-.92-.83-2.02-1.26-3.27-1.26v2c.75,0,1.38.24,1.92.74l1.34-1.48ZM116.95,4.86c-1.91,0-3.4.99-4.44,2.72l1.72,1.03c.75-1.25,1.65-1.75,2.72-1.75v-2ZM112.51,7.58c-1.03,1.72-1.49,4.17-1.5,7.21h2c0-2.9.46-4.92,1.21-6.18l-1.72-1.03ZM111.01,14.8c0,2.07.21,3.85.64,5.32l1.92-.57c-.36-1.22-.56-2.8-.56-4.75h-2ZM111.66,20.13c.44,1.44,1.09,2.63,2.01,3.47l1.34-1.48c-.57-.51-1.07-1.34-1.44-2.57l-1.91.58ZM113.67,23.6c.93.83,2.03,1.25,3.28,1.25v-2c-.75,0-1.38-.24-1.94-.74l-1.33,1.49Z"/>
</svg>