<?xml version="1.0" encoding="UTF-8"?>
<svg id="Layer_1" data-name="Layer 1" xmlns="http://www.w3.org/2000/svg" xmlns:xlink="http://www.w3.org/1999/xlink" viewBox="0 0 223 378">
  <defs>
    <style>
      .cls-1 {
        fill: rgba(135, 206, 235, .75);
      }

      .cls-1, .cls-2, .cls-3, .cls-4, .cls-5, .cls-6, .cls-7 {
        stroke-width: 0px;
      }

      .cls-2 {
        fill: rgba(37, 69, 96, .8);
      }

      .cls-2, .cls-4, .cls-6 {
        fill-rule: evenodd;
      }

      .cls-8 {
        mask: url(#mask-2);
      }

      .cls-4 {
        fill: rgba(89, 135, 154, .75);
      }

      .cls-5, .cls-6 {
        fill: #fff;
      }

      .cls-7 {
        fill: #cb8b35;
      }

      .cls-9 {
        mask: url(#mask-1);
      }

      .cls-10 {
        mask: url(#mask);
      }
    </style>
    <mask id="mask" x="-3.44" y="-3.48" width="229" height="87" maskUnits="userSpaceOnUse">
      <g id="path-1-inside-1_12_1010" data-name="path-1-inside-1 12 1010">
        <path class="cls-6" d="M222.56,32.07v1.19h-11.62v-.25L202.26-.48H19.86l-8.68,33.5v.25H-.44v47.25h14.54l-.03-.1,8.71-33.6v-.05h176.55v.05l8.71,33.6-.03.1h14.55v-48.44h0Z"/>
      </g>
    </mask>
    <mask id="mask-1" x="-3.44" y="296.3" width="229" height="84.22" maskUnits="userSpaceOnUse">
      <g id="path-3-inside-2_12_1010" data-name="path-3-inside-2 12 1010">
        <path class="cls-6" d="M222.56,344.96v-.03h-11.62v.24l-8.68,32.35H19.86l-8.68-32.35v-.24H-.44v-45.63h14.54l-.03.1,8.71,32.45v.05h176.55v-.05l8.71-32.45-.03-.1h14.55v45.66h0Z"/>
      </g>
    </mask>
    <mask id="mask-2" x="60.56" y="12.52" width="103" height="21" maskUnits="userSpaceOnUse">
      <g id="path-6-outside-3_12_1010" data-name="path-6-outside-3 12 1010">
        <rect class="cls-5" x="60.56" y="12.52" width="103" height="21"/>
        <path class="cls-3" d="M67.27,31.52l-4.99-17.45h4.03l2.89,12.13h.14l3.19-12.13h3.45l3.18,12.15h.15l2.89-12.15h4.03l-4.99,17.45h-3.6l-3.32-11.41h-.14l-3.32,11.41h-3.6ZM92.7,31.77c-1.35,0-2.51-.27-3.48-.82-.97-.55-1.71-1.33-2.23-2.34-.52-1.01-.78-2.21-.78-3.59s.26-2.53.78-3.55c.52-1.02,1.26-1.81,2.21-2.38.95-.57,2.07-.85,3.36-.85.86,0,1.67.14,2.41.42.75.27,1.4.68,1.96,1.24.56.55,1,1.24,1.31,2.08.31.83.47,1.8.47,2.91v1h-11.05v-2.25h7.64c0-.52-.11-.99-.34-1.39-.23-.4-.54-.72-.95-.95-.4-.23-.86-.35-1.39-.35s-1.04.13-1.47.38c-.42.25-.75.59-.99,1.01-.24.42-.36.89-.37,1.41v2.14c0,.65.12,1.21.36,1.68.24.47.59.84,1.03,1.09.44.26.97.38,1.58.38.4,0,.77-.06,1.11-.17.34-.11.62-.28.86-.51.24-.23.42-.51.55-.84l3.36.22c-.17.81-.52,1.51-1.05,2.11-.52.6-1.2,1.06-2.03,1.4-.82.33-1.78.49-2.86.49ZM104.81,31.76c-.83,0-1.58-.14-2.23-.43-.65-.3-1.17-.73-1.55-1.3-.38-.58-.56-1.3-.56-2.16,0-.73.13-1.34.4-1.83.27-.49.63-.89,1.09-1.19.46-.3.98-.53,1.57-.68.59-.15,1.21-.26,1.86-.32.76-.08,1.38-.15,1.84-.22.47-.07.8-.18,1.01-.32.21-.14.32-.35.32-.63v-.05c0-.54-.17-.96-.51-1.25-.33-.3-.81-.44-1.43-.44-.65,0-1.17.14-1.56.43-.39.28-.64.64-.77,1.07l-3.36-.27c.17-.8.51-1.48,1.01-2.06.5-.59,1.14-1.03,1.93-1.35.8-.32,1.72-.48,2.76-.48.73,0,1.42.09,2.09.26.67.17,1.26.43,1.78.79.52.36.93.82,1.24,1.38.3.56.45,1.22.45,2v8.83h-3.44v-1.82h-.1c-.21.41-.49.77-.84,1.08-.35.31-.78.55-1.27.72-.49.17-1.06.26-1.71.26ZM105.85,29.26c.53,0,1.01-.11,1.42-.32.41-.22.73-.51.96-.87.23-.36.35-.78.35-1.24v-1.39c-.11.07-.27.14-.47.2-.19.06-.41.11-.66.16-.24.05-.49.09-.73.13-.24.03-.47.07-.66.09-.43.06-.8.16-1.12.3-.32.14-.57.32-.74.55-.18.23-.26.51-.26.85,0,.49.18.87.54,1.13.36.26.82.38,1.38.38ZM121.96,18.42v2.73h-7.88v-2.73h7.88ZM115.87,15.29h3.63v12.2c0,.34.05.6.15.78.1.18.24.31.43.38.19.07.4.11.65.11.17,0,.34-.01.51-.04.17-.03.3-.06.39-.08l.57,2.7c-.18.06-.44.12-.77.2-.33.08-.73.13-1.2.14-.88.03-1.64-.08-2.3-.35-.65-.27-1.16-.68-1.53-1.24-.36-.56-.54-1.27-.54-2.13v-12.68ZM128.24,23.95v7.57h-3.63V14.06h3.53v6.67h.15c.3-.77.77-1.38,1.43-1.82.66-.44,1.49-.66,2.48-.66.91,0,1.7.2,2.38.6.68.39,1.21.96,1.58,1.7.38.73.57,1.61.56,2.63v8.34h-3.63v-7.69c0-.81-.2-1.43-.61-1.88-.41-.45-.98-.67-1.72-.67-.49,0-.93.11-1.31.32-.38.21-.67.52-.89.92-.21.4-.32.88-.32,1.44ZM145.55,31.77c-1.35,0-2.51-.27-3.48-.82-.97-.55-1.71-1.33-2.23-2.34-.52-1.01-.78-2.21-.78-3.59s.26-2.53.78-3.55c.52-1.02,1.26-1.81,2.21-2.38.96-.57,2.07-.85,3.36-.85.86,0,1.67.14,2.41.42.75.27,1.4.68,1.96,1.24.56.55,1,1.24,1.31,2.08.31.83.47,1.8.47,2.91v1h-11.05v-2.25h7.64c0-.52-.11-.99-.34-1.39-.23-.4-.54-.72-.95-.95-.4-.23-.86-.35-1.39-.35s-1.04.13-1.47.38c-.42.25-.75.59-.99,1.01-.24.42-.36.89-.37,1.41v2.14c0,.65.12,1.21.36,1.68.24.47.59.84,1.03,1.09.44.26.97.38,1.58.38.4,0,.77-.06,1.11-.17.34-.11.62-.28.86-.51.24-.23.42-.51.55-.84l3.36.22c-.17.81-.52,1.51-1.05,2.11-.52.6-1.2,1.06-2.03,1.4-.82.33-1.77.49-2.85.49ZM153.93,31.52v-13.09h3.52v2.28h.14c.24-.81.64-1.43,1.2-1.84.56-.42,1.21-.63,1.94-.63.18,0,.38.01.59.03.21.02.4.05.55.09v3.22c-.17-.05-.41-.1-.71-.14-.3-.04-.58-.06-.83-.06-.53,0-1.01.12-1.43.35-.41.23-.74.55-.99.95-.24.41-.36.88-.36,1.41v7.41h-3.63Z"/>
      </g>
    </mask>
  </defs>
  <path class="cls-4" d="M222.56,32.07v1.19h-11.62v-.25L202.26-.48H19.86l-8.68,33.5v.25H-.44v47.25h14.54l-.03-.1,8.71-33.6v-.05h176.55v.05l8.71,33.6-.03.1h14.55v-48.44h0Z"/>
  <g class="cls-10">
    <path class="cls-1" d="M222.56,33.27v3c1.66,0,3-1.34,3-3h-3ZM222.56,32.07v-3c-1.66,0-3,1.34-3,3h3ZM210.94,33.27h-3c0,1.66,1.34,3,3,3v-3ZM210.94,33.01h3c0-.25-.03-.51-.1-.75l-2.9.75ZM202.26-.48l2.9-.75c-.34-1.32-1.54-2.25-2.9-2.25V-.48ZM19.86-.48v-3c-1.37,0-2.56.92-2.9,2.25l2.9.75ZM11.18,33.01l-2.9-.75c-.06.25-.1.5-.1.75h3ZM11.18,33.27v3c1.66,0,3-1.34,3-3h-3ZM-.44,33.27v-3c-1.66,0-3,1.34-3,3H-.44ZM-.44,80.52h-3c0,1.66,1.34,3,3,3v-3ZM14.11,80.52v3c.93,0,1.8-.43,2.37-1.16.57-.73.76-1.69.53-2.59l-2.9.75ZM14.08,80.41l-2.9-.75c-.13.49-.13,1.01,0,1.5l2.9-.75ZM22.79,46.82l2.9.75c.06-.25.1-.5.1-.75h-3ZM22.79,46.77v-3c-1.66,0-3,1.34-3,3h3ZM199.33,46.77h3c0-1.66-1.34-3-3-3v3ZM199.33,46.82h-3c0,.25.03.51.1.75l2.9-.75ZM208.04,80.41l2.9.75c.13-.49.13-1.01,0-1.51l-2.9.75ZM208.01,80.52l-2.9-.75c-.23.9-.04,1.85.53,2.59.57.73,1.44,1.16,2.37,1.16v-3ZM222.56,80.52v3c1.66,0,3-1.34,3-3h-3ZM222.56,32.07h3c0-1.66-1.34-3-3-3v3ZM225.56,33.27v-1.19h-6v1.19h6ZM210.94,36.27h11.62v-6h-11.62v6ZM207.94,33.01v.25h6v-.25h-6ZM199.36.27l8.68,33.5,5.81-1.51L205.17-1.24l-5.81,1.5ZM19.86,2.52h182.41V-3.48H19.86V2.52ZM14.08,33.77L22.76.27l-5.81-1.5-8.68,33.5,5.81,1.5ZM14.18,33.27v-.25h-6v.25h6ZM-.44,36.27h11.62v-6H-.44v6ZM2.56,80.52v-47.25H-3.44v47.25H2.56ZM14.11,77.52H-.44v6h14.54v-6ZM11.18,81.17l.03.1,5.81-1.51-.03-.1-5.81,1.5ZM19.88,46.06l-8.71,33.6,5.81,1.5,8.71-33.6-5.81-1.5ZM19.79,46.77v.05h6v-.05h-6ZM32.08,43.77h-9.3v6h9.3v-6ZM34.4,43.77h-2.32v6h2.32v-6ZM187.72,43.77H34.4v6h153.32v-6ZM190.62,43.77h-2.9v6h2.9v-6ZM199.33,43.77h-8.71v6h8.71v-6ZM202.33,46.82v-.05h-6v.05h6ZM210.94,79.66l-8.71-33.6-5.81,1.5,8.71,33.6,5.81-1.5ZM210.92,81.27l.03-.1-5.81-1.51-.03.1,5.81,1.51ZM222.56,77.52h-14.55v6h14.55v-6ZM219.56,32.07v48.44h6v-48.44h-6ZM222.56,29.07h0v6h0v-6Z"/>
  </g>
  <path class="cls-4" d="M222.56,344.96v-.03h-11.62v.24l-8.68,32.35H19.86l-8.68-32.35v-.24H-.44v-45.63h14.54l-.03.1,8.71,32.45v.05h176.55v-.05l8.71-32.45-.03-.1h14.55v45.66h0Z"/>
  <g class="cls-9">
    <path class="cls-1" d="M222.56,344.92v-3c1.66,0,3,1.34,3,3h-3ZM222.56,344.96v3c-1.66,0-3-1.34-3-3h3ZM210.94,344.92h-3c0-1.66,1.34-3,3-3v3ZM210.94,345.17h3c0,.26-.03.52-.1.78l-2.9-.78ZM202.26,377.52l2.9.78c-.35,1.31-1.54,2.22-2.9,2.22v-3ZM19.86,377.52v3c-1.36,0-2.55-.91-2.9-2.22l2.9-.78ZM11.18,345.17l-2.9.78c-.07-.25-.1-.51-.1-.78h3ZM11.18,344.92v-3c1.66,0,3,1.34,3,3h-3ZM-.44,344.92v3c-1.66,0-3-1.34-3-3H-.44ZM-.44,299.3h-3c0-1.66,1.34-3,3-3v3ZM14.11,299.3v-3c.93,0,1.81.43,2.38,1.17.57.74.76,1.7.52,2.6l-2.9-.78ZM14.08,299.39l-2.9.78c-.14-.51-.14-1.05,0-1.55l2.9.78ZM22.79,331.84l2.9-.78c.07.25.1.52.1.78h-3ZM22.79,331.89v3c-1.66,0-3-1.34-3-3h3ZM199.33,331.89h3c0,1.66-1.34,3-3,3v-3ZM199.33,331.84h-3c0-.26.04-.52.1-.78l2.9.78ZM208.04,299.39l2.9-.78c.14.51.14,1.05,0,1.55l-2.9-.78ZM208.01,299.3l-2.9.78c-.24-.9-.05-1.86.52-2.6.57-.74,1.45-1.17,2.38-1.17v3ZM222.56,299.3v-3c1.66,0,3,1.34,3,3h-3ZM222.56,344.96h3c0,1.66-1.34,3-3,3v-3ZM225.56,344.92v.03h-6v-.03h6ZM210.94,341.92h11.62v6h-11.62v-6ZM207.94,345.17v-.24h6v.24h-6ZM199.37,376.74l8.68-32.35,5.79,1.55-8.68,32.35-5.8-1.55ZM19.86,374.52h182.41v6H19.86v-6ZM14.08,344.39l8.68,32.35-5.8,1.55-8.68-32.35,5.8-1.55ZM14.18,344.92v.24h-6v-.24h6ZM-.44,341.92h11.62v6H-.44v-6ZM2.56,299.3v45.63H-3.44v-45.63H2.56ZM14.11,302.3H-.44v-6h14.54v6ZM11.18,298.62l.03-.1,5.8,1.56-.03.1-5.8-1.55ZM19.89,332.62l-8.71-32.45,5.8-1.55,8.71,32.45-5.8,1.56ZM19.79,331.89v-.05h6v.05h-6ZM32.08,334.89h-9.3v-6h9.3v6ZM34.4,334.89h-2.32v-6h2.32v6ZM187.72,334.89H34.4v-6h153.32v6ZM190.62,334.89h-2.9v-6h2.9v6ZM199.33,334.89h-8.71v-6h8.71v6ZM202.33,331.84v.05h-6v-.05h6ZM210.94,300.17l-8.71,32.45-5.79-1.56,8.71-32.45,5.79,1.55ZM210.91,298.52l.03.1-5.79,1.55-.03-.1,5.79-1.56ZM222.56,302.3h-14.55v-6h14.55v6ZM219.56,344.96v-45.66h6v45.66h-6ZM222.56,347.96h0v-6h0v6Z"/>
  </g>
  <path class="cls-2" d="M15.46,295.01H2.27V82.95h13.19l8.88-33.75h172.72l8.88,32.88h13.45v213.8h-13.45l-8.88,32.88H24.34l-8.88-33.75Z"/>
  <path class="cls-7" d="M67.27,31.52l-4.99-17.45h4.03l2.89,12.13h.14l3.19-12.13h3.45l3.18,12.15h.15l2.89-12.15h4.03l-4.99,17.45h-3.6l-3.32-11.41h-.14l-3.32,11.41h-3.6ZM92.7,31.77c-1.35,0-2.51-.27-3.48-.82-.97-.55-1.71-1.33-2.23-2.34-.52-1.01-.78-2.21-.78-3.59s.26-2.53.78-3.55c.52-1.02,1.26-1.81,2.21-2.38.95-.57,2.07-.85,3.36-.85.86,0,1.67.14,2.41.42.75.27,1.4.68,1.96,1.24.56.55,1,1.24,1.31,2.08.31.83.47,1.8.47,2.91v1h-11.05v-2.25h7.64c0-.52-.11-.99-.34-1.39-.23-.4-.54-.72-.95-.95-.4-.23-.86-.35-1.39-.35s-1.04.13-1.47.38c-.42.25-.75.59-.99,1.01-.24.42-.36.89-.37,1.41v2.14c0,.65.12,1.21.36,1.68.24.47.59.84,1.03,1.09.44.26.97.38,1.58.38.4,0,.77-.06,1.11-.17.34-.11.62-.28.86-.51.24-.23.42-.51.55-.84l3.36.22c-.17.81-.52,1.51-1.05,2.11-.52.6-1.2,1.06-2.03,1.4-.82.33-1.78.49-2.86.49ZM104.81,31.76c-.83,0-1.58-.14-2.23-.43-.65-.3-1.17-.73-1.55-1.3-.38-.58-.56-1.3-.56-2.16,0-.73.13-1.34.4-1.83.27-.49.63-.89,1.09-1.19.46-.3.98-.53,1.57-.68.59-.15,1.21-.26,1.86-.32.76-.08,1.38-.15,1.84-.22.47-.07.8-.18,1.01-.32.21-.14.32-.35.32-.63v-.05c0-.54-.17-.96-.51-1.25-.33-.3-.81-.44-1.43-.44-.65,0-1.17.14-1.56.43-.39.28-.64.64-.77,1.07l-3.36-.27c.17-.8.51-1.48,1.01-2.06.5-.59,1.14-1.03,1.93-1.35.8-.32,1.72-.48,2.76-.48.73,0,1.42.09,2.09.26.67.17,1.26.43,1.78.79.52.36.93.82,1.24,1.38.3.56.45,1.22.45,2v8.83h-3.44v-1.82h-.1c-.21.41-.49.77-.84,1.08-.35.31-.78.55-1.27.72-.49.17-1.06.26-1.71.26ZM105.85,29.26c.53,0,1.01-.11,1.42-.32.41-.22.73-.51.96-.87.23-.36.35-.78.35-1.24v-1.39c-.11.07-.27.14-.47.2-.19.06-.41.11-.66.16-.24.05-.49.09-.73.13-.24.03-.47.07-.66.09-.43.06-.8.16-1.12.3-.32.14-.57.32-.74.55-.18.23-.26.51-.26.85,0,.49.18.87.54,1.13.36.26.82.38,1.38.38ZM121.96,18.42v2.73h-7.88v-2.73h7.88ZM115.87,15.29h3.63v12.2c0,.34.05.6.15.78.1.18.24.31.43.38.19.07.4.11.65.11.17,0,.34-.01.51-.04.17-.03.3-.06.39-.08l.57,2.7c-.18.06-.44.12-.77.2-.33.08-.73.13-1.2.14-.88.03-1.64-.08-2.3-.35-.65-.27-1.16-.68-1.53-1.24-.36-.56-.54-1.27-.54-2.13v-12.68ZM128.24,23.95v7.57h-3.63V14.06h3.53v6.67h.15c.3-.77.77-1.38,1.43-1.82.66-.44,1.49-.66,2.48-.66.91,0,1.7.2,2.38.6.68.39,1.21.96,1.58,1.7.38.73.57,1.61.56,2.63v8.34h-3.63v-7.69c0-.81-.2-1.43-.61-1.88-.41-.45-.98-.67-1.72-.67-.49,0-.93.11-1.31.32-.38.21-.67.52-.89.92-.21.4-.32.88-.32,1.44ZM145.55,31.77c-1.35,0-2.51-.27-3.48-.82-.97-.55-1.71-1.33-2.23-2.34-.52-1.01-.78-2.21-.78-3.59s.26-2.53.78-3.55c.52-1.02,1.26-1.81,2.21-2.38.96-.57,2.07-.85,3.36-.85.86,0,1.67.14,2.41.42.75.27,1.4.68,1.96,1.24.56.55,1,1.24,1.31,2.08.31.83.47,1.8.47,2.91v1h-11.05v-2.25h7.64c0-.52-.11-.99-.34-1.39-.23-.4-.54-.72-.95-.95-.4-.23-.86-.35-1.39-.35s-1.04.13-1.47.38c-.42.25-.75.59-.99,1.01-.24.42-.36.89-.37,1.41v2.14c0,.65.12,1.21.36,1.68.24.47.59.84,1.03,1.09.44.26.97.38,1.58.38.4,0,.77-.06,1.11-.17.34-.11.62-.28.86-.51.24-.23.42-.51.55-.84l3.36.22c-.17.81-.52,1.51-1.05,2.11-.52.6-1.2,1.06-2.03,1.4-.82.33-1.77.49-2.85.49ZM153.93,31.52v-13.09h3.52v2.28h.14c.24-.81.64-1.43,1.2-1.84.56-.42,1.21-.63,1.94-.63.18,0,.38.01.59.03.21.02.4.05.55.09v3.22c-.17-.05-.41-.1-.71-.14-.3-.04-.58-.06-.83-.06-.53,0-1.01.12-1.43.35-.41.23-.74.55-.99.95-.24.41-.36.88-.36,1.41v7.41h-3.63Z"/>
  <g class="cls-8">
    <path class="cls-3" d="M67.27,31.52l-.96.28.21.72h.75v-1ZM62.28,14.06v-1h-1.33l.36,1.28.96-.28ZM66.31,14.06l.97-.23-.18-.77h-.79v1ZM69.2,26.19l-.97.23.18.77h.79v-1ZM69.34,26.19v1h.77l.2-.75-.97-.25ZM72.53,14.06v-1h-.77l-.2.75.97.25ZM75.98,14.06l.97-.25-.2-.75h-.77v1ZM79.16,26.21l-.97.25.2.75h.77v-1ZM79.31,26.21v1h.79l.18-.77-.97-.23ZM82.2,14.06v-1h-.79l-.18.77.97.23ZM86.23,14.06l.96.28.36-1.28h-1.33v1ZM81.24,31.52v1h.75l.21-.72-.96-.28ZM77.64,31.52l-.96.28.21.72h.75v-1ZM74.32,20.1l.96-.28-.21-.72h-.75v1ZM74.18,20.1v-1h-.75l-.21.72.96.28ZM70.87,31.52v1h.75l.21-.72-.96-.28ZM68.23,31.24l-4.99-17.45-1.92.55,4.99,17.45,1.92-.55ZM62.28,15.06h4.03v-2h-4.03v2ZM65.33,14.29l2.89,12.13,1.95-.46-2.89-12.13-1.95.46ZM69.2,27.19h.14v-2h-.14v2ZM70.31,26.44l3.19-12.13-1.93-.51-3.19,12.13,1.93.51ZM72.53,15.06h3.45v-2h-3.45v2ZM75.01,14.31l3.18,12.15,1.93-.51-3.18-12.15-1.93.51ZM79.16,27.21h.15v-2h-.15v2ZM80.29,26.45l2.89-12.15-1.95-.46-2.89,12.15,1.95.46ZM82.2,15.06h4.03v-2h-4.03v2ZM85.27,13.79l-4.99,17.45,1.92.55,4.99-17.45-1.92-.55ZM81.24,30.52h-3.6v2h3.6v-2ZM78.6,31.24l-3.32-11.41-1.92.56,3.32,11.41,1.92-.56ZM74.32,19.1h-.14v2h.14v-2ZM73.22,19.82l-3.32,11.41,1.92.56,3.32-11.41-1.92-.56ZM70.87,30.52h-3.6v2h3.6v-2ZM89.22,30.95l-.5.87h0s.49-.87.49-.87ZM86.99,28.62l-.89.46h0s.89-.46.89-.46ZM86.99,21.48l-.89-.46.89.46ZM89.2,19.11l-.51-.86h0s.51.86.51.86ZM94.97,18.67l-.35.94h0s.34-.94.34-.94ZM96.93,19.91l-.7.71h0s.7-.71.7-.71ZM98.24,21.99l-.94.35h0s.94-.35.94-.35ZM98.71,25.9v1h1v-1h-1ZM87.65,25.9h-1v1h1v-1ZM87.65,23.65v-1h-1v1h1ZM95.29,23.65v1h1v-1h-1ZM94.95,22.26l-.87.49h0l.87-.49ZM94,21.31l-.51.86h0s0,0,0,0l.49-.87ZM91.15,21.35l.51.86h0s-.51-.86-.51-.86ZM90.16,22.36l.87.49h0s-.87-.49-.87-.49ZM89.79,23.77h-1s0,0,0,0h1ZM90.15,27.59l-.89.45h0s.89-.45.89-.45ZM93.87,28.89l-.32-.95.32.95ZM94.73,28.38l-.69-.72h0l.69.72ZM95.27,27.54l.07-1-.74-.05-.26.69.94.35ZM98.63,27.77l.98.21.24-1.13-1.15-.08-.07,1ZM97.58,29.88l-.75-.66h0s.75.66.75.66ZM95.56,31.28l.37.93h0s-.37-.93-.37-.93ZM92.7,30.77c-1.21,0-2.19-.24-2.99-.69l-.98,1.74c1.15.65,2.48.95,3.97.95v-2ZM89.72,30.08c-.8-.45-1.41-1.09-1.84-1.93l-1.77.92c.61,1.17,1.49,2.09,2.62,2.74l.99-1.74ZM87.88,28.16c-.44-.84-.67-1.87-.67-3.13h-2c0,1.51.29,2.87.9,4.05l1.78-.92ZM87.21,25.03c0-1.22.24-2.24.67-3.09l-1.78-.91c-.61,1.18-.89,2.53-.89,4h2ZM87.88,21.94c.44-.86,1.05-1.51,1.83-1.98l-1.03-1.72c-1.11.67-1.98,1.6-2.58,2.78l1.78.91ZM89.71,19.97c.78-.46,1.71-.71,2.85-.71v-2c-1.44,0-2.74.32-3.87.99l1.02,1.72ZM92.56,19.25c.75,0,1.44.12,2.06.35l.7-1.87c-.87-.32-1.79-.48-2.76-.48v2ZM94.63,19.61c.62.22,1.15.56,1.6,1.01l1.41-1.42c-.66-.65-1.44-1.14-2.32-1.46l-.68,1.88ZM96.23,20.62c.44.44.81,1,1.08,1.72l1.87-.7c-.36-.95-.87-1.78-1.55-2.44l-1.4,1.43ZM97.3,22.34c.26.69.4,1.54.4,2.56h2c0-1.2-.17-2.3-.53-3.27l-1.87.7ZM97.71,24.9v1h2v-1h-2ZM98.71,24.9h-11.05v2h11.05v-2ZM88.65,25.9v-2.25h-2v2.25h2ZM87.65,24.65h7.64v-2h-7.64v2ZM96.29,23.65c0-.67-.15-1.31-.47-1.88l-1.74.98c.13.23.21.52.21.9h2ZM95.82,21.77c-.32-.56-.76-1.01-1.33-1.33l-.98,1.74c.24.14.43.32.57.57l1.74-.98ZM94.51,20.45c-.57-.34-1.22-.49-1.89-.49v2c.38,0,.66.08.88.21l1.01-1.73ZM92.61,19.96c-.71,0-1.38.17-1.98.53l1.03,1.72c.25-.15.56-.24.95-.24v-2ZM90.64,20.49c-.57.34-1.03.81-1.35,1.39l1.75.98c.15-.27.36-.48.63-.64l-1.02-1.72ZM89.29,21.87c-.33.58-.49,1.21-.5,1.89l2,.02c0-.36.09-.66.24-.92l-1.74-.99ZM88.79,23.77v2.14h2v-2.14h-2ZM88.79,25.91c0,.77.14,1.49.47,2.13l1.78-.9c-.15-.3-.25-.7-.25-1.23h-2ZM89.26,28.05c.33.63.8,1.14,1.42,1.5l1-1.73c-.27-.16-.48-.38-.64-.68l-1.78.92ZM90.68,29.54c.62.36,1.33.52,2.08.52v-2c-.47,0-.81-.1-1.08-.25l-1,1.73ZM92.76,30.06c.5,0,.98-.07,1.43-.22l-.64-1.89c-.22.07-.48.12-.79.12v2ZM94.19,29.84c.46-.16.88-.4,1.23-.73l-1.38-1.45c-.13.12-.28.22-.49.29l.64,1.89ZM95.42,29.1c.35-.34.62-.75.79-1.2l-1.87-.71c-.08.2-.18.35-.3.47l1.38,1.45ZM95.21,28.54l3.36.22.13-2-3.36-.22-.13,2ZM97.65,27.56c-.14.64-.41,1.19-.82,1.66l1.5,1.32c.65-.74,1.07-1.6,1.28-2.57l-1.96-.41ZM96.83,29.22c-.41.46-.95.85-1.65,1.13l.75,1.85c.96-.39,1.77-.94,2.41-1.67l-1.5-1.32ZM95.18,30.35c-.68.27-1.5.42-2.48.42v2c1.18,0,2.26-.18,3.23-.57l-.74-1.86ZM102.58,31.33l-.41.91h0s.4-.91.4-.91ZM101.03,30.02l-.84.54h0s.83-.54.83-.54ZM100.86,26.03l-.88-.48.88.48ZM101.96,24.83l-.55-.84h0l.55.84ZM103.52,24.15l-.25-.97h0s.25.97.25.97ZM105.38,23.83l.1,1h0s-.1-1-.1-1ZM107.22,23.61l.14.99h.01s-.16-.99-.16-.99ZM108.24,23.28l-.56-.83.56.83ZM108.04,21.35l-.66.75h0s.65-.75.65-.75ZM105.05,21.34l.59.81h0s-.6-.81-.6-.81ZM104.28,22.41l-.08,1,.81.07.23-.78-.96-.28ZM100.92,22.14l-.98-.21-.24,1.11,1.14.09.08-1ZM101.93,20.08l.76.65h0s-.76-.65-.76-.65ZM103.86,18.73l.37.93h0s-.37-.93-.37-.93ZM108.71,18.51l-.25.97h0s.25-.97.25-.97ZM110.5,19.3l-.57.82h0s.57-.82.57-.82ZM111.73,20.68l-.88.47h0s.88-.47.88-.47ZM112.18,31.52v1h1v-1h-1ZM108.74,31.52h-1v1h1v-1ZM108.74,29.7h1v-1h-1v1ZM108.64,29.7v-1h-.61l-.28.54.89.46ZM107.79,30.78l.66.75h0s-.66-.75-.66-.75ZM106.52,31.51l.33.95h0s-.34-.95-.34-.95ZM107.27,28.94l.46.89h0s-.47-.89-.47-.89ZM108.23,28.07l-.84-.54.84.54ZM108.58,25.45h1v-1.84l-1.54,1,.54.84ZM108.11,25.65l.28.96h0s0,0,0,0l-.3-.95ZM107.45,25.81l.18.98h.01s.01,0,.01,0l-.21-.98ZM106.72,25.94l.14.99h.01s.01,0,.01,0l-.16-.99ZM106.06,26.04l-.14-.99h0s.15.99.15.99ZM104.94,26.33l.39.92-.39-.92ZM104.2,26.89l.79.61h0s-.8-.61-.8-.61ZM104.47,28.87l-.59.81h0s0,.01,0,.01l.57-.82ZM104.81,30.76c-.72,0-1.32-.12-1.83-.35l-.81,1.83c.8.36,1.69.52,2.64.52v-2ZM102.99,30.42c-.49-.22-.86-.54-1.13-.95l-1.67,1.11c.49.74,1.16,1.29,1.97,1.66l.82-1.82ZM101.87,29.48c-.25-.38-.4-.9-.4-1.62h-2c0,1.01.22,1.93.72,2.71l1.68-1.09ZM101.46,27.86c0-.61.11-1.05.28-1.36l-1.76-.95c-.36.68-.52,1.46-.52,2.31h2ZM101.74,26.5c.19-.35.44-.62.76-.83l-1.1-1.67c-.6.39-1.08.92-1.42,1.55l1.76.95ZM102.5,25.67c.36-.24.78-.42,1.27-.55l-.51-1.93c-.68.18-1.3.45-1.86.81l1.1,1.67ZM103.78,25.12c.54-.14,1.1-.24,1.7-.3l-.19-1.99c-.7.07-1.37.18-2.01.35l.5,1.94ZM105.49,24.82c.77-.08,1.4-.16,1.88-.23l-.29-1.98c-.45.07-1.04.14-1.8.22l.21,1.99ZM107.38,24.59c.51-.08,1.02-.22,1.42-.48l-1.12-1.66s0,0-.04.02c-.03.01-.07.03-.12.04-.11.03-.26.07-.46.1l.31,1.98ZM108.8,24.11c.52-.35.76-.89.76-1.46h-2s0-.02.03-.08c.03-.06.07-.1.1-.12l1.12,1.66ZM109.55,22.65v-.05h-2v.05h2ZM109.55,22.6c0-.77-.25-1.49-.86-2.01l-1.31,1.51c.08.07.17.18.17.5h2ZM108.7,20.6c-.58-.51-1.32-.69-2.09-.69v2c.47,0,.68.11.77.19l1.32-1.5ZM106.61,19.9c-.79,0-1.55.18-2.16.63l1.2,1.6c.16-.12.45-.23.96-.23v-2ZM104.46,20.53c-.55.41-.94.94-1.13,1.6l1.92.56c.06-.21.18-.38.4-.55l-1.19-1.61ZM104.36,21.42l-3.36-.27-.16,1.99,3.36.27.16-1.99ZM101.9,22.35c.14-.64.4-1.17.79-1.62l-1.51-1.31c-.62.71-1.02,1.56-1.23,2.51l1.96.42ZM102.69,20.73c.38-.45.89-.81,1.54-1.07l-.74-1.86c-.92.37-1.71.91-2.33,1.63l1.52,1.3ZM104.24,19.66c.65-.26,1.44-.41,2.39-.41v-2c-1.15,0-2.2.17-3.13.55l.74,1.86ZM106.63,19.25c.65,0,1.26.08,1.84.22l.5-1.94c-.75-.19-1.53-.29-2.34-.29v2ZM108.47,19.48c.57.14,1.05.36,1.46.65l1.14-1.64c-.62-.43-1.33-.74-2.1-.94l-.49,1.94ZM109.93,20.13c.39.27.69.61.92,1.03l1.76-.94c-.38-.7-.9-1.28-1.55-1.73l-1.13,1.65ZM110.85,21.16c.21.38.33.88.33,1.53h2c0-.91-.18-1.75-.57-2.48l-1.76.95ZM111.18,22.69v8.83h2v-8.83h-2ZM112.18,30.52h-3.44v2h3.44v-2ZM109.74,31.52v-1.82h-2v1.82h2ZM108.74,28.7h-.1v2h.1v-2ZM107.75,29.24c-.15.3-.36.56-.62.79l1.33,1.5c.44-.39.8-.85,1.07-1.37l-1.78-.91ZM107.14,30.03c-.25.22-.56.4-.95.54l.67,1.88c.6-.21,1.13-.51,1.59-.91l-1.31-1.51ZM106.2,30.56c-.37.13-.83.2-1.39.2v2c.73,0,1.42-.1,2.04-.31l-.65-1.89ZM105.85,30.26c.67,0,1.3-.13,1.87-.43l-.91-1.78c-.25.13-.56.2-.96.2v2ZM107.73,29.83c.55-.29,1.01-.69,1.34-1.21l-1.68-1.08c-.13.21-.32.38-.59.52l.93,1.77ZM109.07,28.61c.34-.54.51-1.14.51-1.78h-2c0,.28-.07.5-.19.7l1.68,1.08ZM109.58,26.84v-1.39h-2v1.39h2ZM108.03,24.61s0,0-.01,0-.02.01-.04.02c-.04.02-.09.04-.17.06l.6,1.91c.25-.08.5-.18.71-.32l-1.09-1.68ZM107.83,24.69c-.16.05-.35.1-.58.14l.41,1.96c.26-.06.51-.12.73-.18l-.57-1.92ZM107.27,24.83c-.24.04-.47.09-.71.12l.32,1.97c.25-.04.5-.08.75-.13l-.37-1.97ZM106.58,24.95c-.24.03-.47.07-.67.09l.28,1.98c.2-.03.42-.06.66-.09l-.28-1.98ZM105.91,25.05c-.49.07-.95.19-1.36.37l.79,1.84c.22-.1.51-.18.87-.23l-.29-1.98ZM104.54,25.41c-.45.19-.85.47-1.15.87l1.6,1.21c.05-.07.15-.16.34-.24l-.79-1.84ZM103.41,26.28c-.34.43-.47.94-.47,1.46h2c0-.16.04-.22.06-.24l-1.58-1.23ZM102.93,27.74c0,.77.3,1.47.95,1.94l1.18-1.62c-.07-.05-.13-.11-.13-.33h-2ZM103.89,29.69c.57.4,1.25.57,1.96.57v-2c-.4,0-.65-.09-.81-.2l-1.15,1.64ZM121.96,18.42h1v-1h-1v1ZM121.96,21.15v1h1v-1h-1ZM114.08,21.15h-1v1h1v-1ZM114.08,18.42v-1h-1v1h1ZM115.87,15.29v-1h-1v1h1ZM119.5,15.29h1v-1h-1v1ZM119.65,28.28l-.88.48h0s.87-.48.87-.48ZM120.08,28.66l-.38.93h.01s.37-.93.37-.93ZM121.24,28.73l.16.99h.02s.02,0,.02,0l-.2-.98ZM121.63,28.65l.98-.21-.2-.96-.96.18.18.98ZM122.2,31.35l.3.95.87-.27-.19-.89-.98.21ZM121.43,31.55l-.22-.98h0s0,0,0,0l.24.97ZM120.23,31.69l-.04-1h0s.04,1,.04,1ZM117.93,31.35l-.38.93h0s.38-.93.38-.93ZM116.41,30.1l.84-.54-.84.54ZM115.87,27.97h1s0,0,0,0h-1ZM120.96,18.42v2.73h2v-2.73h-2ZM121.96,20.15h-7.88v2h7.88v-2ZM115.08,21.15v-2.73h-2v2.73h2ZM114.08,19.42h7.88v-2h-7.88v2ZM115.87,16.29h3.63v-2h-3.63v2ZM118.5,15.29v12.2h2v-12.2h-2ZM118.5,27.49c0,.42.06.87.28,1.26l1.76-.96s0,0-.01-.05c-.01-.05-.02-.14-.02-.26h-2ZM118.78,28.77c.21.37.52.66.92.82l.75-1.85s.03.02.05.03c.02.02.02.03.02.02l-1.74.98ZM119.71,29.59c.33.13.67.18,1.01.18v-2c-.14,0-.23-.02-.28-.04l-.73,1.86ZM120.73,29.77c.23,0,.45-.02.68-.06l-.33-1.97c-.12.02-.23.03-.35.03v2ZM121.43,29.71c.17-.03.29-.06.38-.07l-.37-1.97c-.1.02-.23.04-.4.08l.39,1.96ZM120.65,28.86l.57,2.7,1.96-.41-.57-2.7-1.96.41ZM121.9,30.4c-.14.04-.37.1-.69.17l.44,1.95c.34-.08.62-.15.85-.22l-.6-1.91ZM121.2,30.58c-.25.06-.57.1-1,.12l.07,2c.51-.02.99-.07,1.4-.17l-.47-1.94ZM120.19,30.7c-.76.03-1.39-.07-1.89-.28l-.75,1.85c.82.33,1.73.46,2.72.42l-.08-2ZM118.31,30.42c-.47-.19-.82-.48-1.06-.86l-1.68,1.09c.48.74,1.15,1.29,1.99,1.63l.76-1.85ZM117.25,29.56c-.23-.36-.38-.86-.38-1.58h-2c0,.99.2,1.9.7,2.67l1.68-1.09ZM116.87,27.97v-12.68h-2v12.68h2ZM128.24,23.95h-1s0,0,0,0h1ZM128.24,31.52v1h1v-1h-1ZM124.61,31.52h-1v1h1v-1ZM124.61,14.06v-1h-1v1h1ZM128.14,14.06h1v-1h-1v1ZM128.14,20.73h-1v1h1v-1ZM128.29,20.73v1h.69l.24-.64-.93-.36ZM129.72,18.92l.55.83h0s-.56-.83-.56-.83ZM134.58,18.85l-.51.86h0s.5-.86.5-.86ZM136.17,20.55l-.89.45h0s.89-.45.89-.45ZM136.73,23.18h-1s0,0,0,0h1ZM136.73,31.52v1h1v-1h-1ZM133.1,31.52h-1v1h1v-1ZM133.1,23.83h-1s0,0,0,0h1ZM132.48,21.94l-.74.67h0s.74-.67.74-.67ZM129.45,21.59l-.48-.88h0s.49.88.49.88ZM128.56,22.51l-.88-.47h0s.88.47.88.47ZM127.24,23.95v7.57h2v-7.57h-2ZM128.24,30.52h-3.63v2h3.63v-2ZM125.61,31.52V14.06h-2v17.45h2ZM124.61,15.06h3.53v-2h-3.53v2ZM127.14,14.06v6.67h2v-6.67h-2ZM128.14,21.73h.15v-2h-.15v2ZM129.22,21.09c.22-.59.57-1.02,1.05-1.34l-1.11-1.67c-.84.56-1.45,1.33-1.81,2.29l1.87.71ZM130.28,19.75c.46-.31,1.08-.49,1.92-.49v-2c-1.14,0-2.18.26-3.04.84l1.12,1.66ZM132.2,19.25c.76,0,1.37.16,1.87.46l1.01-1.72c-.85-.5-1.83-.73-2.88-.73v2ZM134.08,19.72c.5.29.9.71,1.19,1.28l1.78-.91c-.46-.9-1.12-1.62-1.98-2.11l-1,1.73ZM135.28,21.01c.29.56.46,1.27.45,2.17h2c0-1.14-.2-2.18-.68-3.09l-1.77.92ZM135.73,23.18v8.34h2v-8.34h-2ZM136.73,30.52h-3.63v2h3.63v-2ZM134.1,31.52v-7.69h-2v7.69h2ZM134.1,23.84c0-.98-.24-1.88-.88-2.57l-1.47,1.36c.19.21.35.56.35,1.2h2ZM133.22,21.27c-.64-.7-1.51-1-2.46-1v2c.52,0,.8.15.98.35l1.48-1.35ZM130.76,20.27c-.64,0-1.25.14-1.8.44l.97,1.75c.21-.12.48-.19.83-.19v-2ZM128.96,20.71c-.55.31-.98.76-1.28,1.32l1.76.94c.13-.25.3-.41.49-.52l-.98-1.74ZM127.68,22.04c-.3.57-.43,1.21-.44,1.9l2,.02c0-.44.09-.76.21-.98l-1.77-.93ZM142.07,30.95l-.5.87h0s.49-.87.49-.87ZM139.84,28.62l-.89.46h0s.89-.46.89-.46ZM139.84,21.48l-.89-.46.89.46ZM142.05,19.11l-.51-.86h0s.51.86.51.86ZM147.82,18.67l-.35.94h0s.34-.94.34-.94ZM149.78,19.91l-.7.71h0s.7-.71.7-.71ZM151.09,21.99l-.94.35h0s.94-.35.94-.35ZM151.56,25.9v1h1v-1h-1ZM140.51,25.9h-1v1h1v-1ZM140.51,23.65v-1h-1v1h1ZM148.14,23.65v1h1v-1h-1ZM147.8,22.26l-.87.49h0l.87-.49ZM146.86,21.31l-.51.86h0s0,0,0,0l.49-.87ZM144,21.35l.51.86h0s-.51-.86-.51-.86ZM143.01,22.36l.87.49h0s-.87-.49-.87-.49ZM142.65,23.77h-1s0,0,0,0h1ZM143,27.59l-.89.45h0s.89-.45.89-.45ZM146.72,28.89l-.32-.95.32.95ZM147.58,28.38l-.69-.72h0l.69.72ZM148.13,27.54l.07-1-.74-.05-.26.69.93.35ZM151.48,27.77l.98.21.24-1.13-1.15-.08-.07,1ZM150.44,29.88l-.75-.66h0s.75.66.75.66ZM148.41,31.28l.37.93h0s-.38-.93-.38-.93ZM145.55,30.77c-1.21,0-2.19-.24-2.99-.69l-.98,1.74c1.15.65,2.49.95,3.97.95v-2ZM142.57,30.08c-.79-.45-1.4-1.09-1.84-1.93l-1.77.92c.61,1.17,1.49,2.09,2.62,2.74l.99-1.74ZM140.73,28.16c-.44-.84-.67-1.87-.67-3.13h-2c0,1.51.29,2.87.9,4.05l1.78-.92ZM140.06,25.03c0-1.22.24-2.24.67-3.09l-1.78-.91c-.61,1.18-.89,2.53-.89,4h2ZM140.73,21.94c.44-.86,1.05-1.51,1.83-1.98l-1.03-1.72c-1.11.67-1.98,1.6-2.58,2.78l1.78.91ZM142.56,19.97c.78-.46,1.71-.71,2.85-.71v-2c-1.44,0-2.74.32-3.87.99l1.02,1.72ZM145.41,19.25c.76,0,1.44.12,2.06.35l.7-1.87c-.87-.32-1.79-.48-2.76-.48v2ZM147.48,19.61c.62.22,1.15.56,1.6,1.01l1.41-1.42c-.66-.65-1.44-1.14-2.32-1.46l-.68,1.88ZM149.08,20.62c.44.44.81,1,1.08,1.72l1.87-.7c-.36-.95-.87-1.78-1.55-2.44l-1.4,1.43ZM150.16,22.34c.26.69.4,1.54.4,2.56h2c0-1.2-.17-2.3-.53-3.27l-1.87.7ZM150.56,24.9v1h2v-1h-2ZM151.56,24.9h-11.05v2h11.05v-2ZM141.51,25.9v-2.25h-2v2.25h2ZM140.51,24.65h7.64v-2h-7.64v2ZM149.14,23.65c0-.67-.15-1.31-.47-1.88l-1.74.98c.13.23.21.52.21.9h2ZM148.67,21.77c-.32-.56-.76-1.01-1.33-1.33l-.98,1.74c.24.14.43.32.57.57l1.74-.98ZM147.36,20.45c-.57-.34-1.22-.49-1.89-.49v2c.38,0,.66.08.88.21l1.01-1.73ZM145.47,19.96c-.71,0-1.38.17-1.98.53l1.03,1.72c.26-.15.56-.24.95-.24v-2ZM143.49,20.49c-.57.34-1.03.81-1.35,1.39l1.75.98c.15-.27.36-.48.63-.64l-1.02-1.72ZM142.14,21.87c-.33.58-.49,1.21-.5,1.89l2,.02c0-.36.09-.66.24-.92l-1.74-.99ZM141.65,23.77v2.14h2v-2.14h-2ZM141.65,25.91c0,.77.14,1.49.47,2.13l1.78-.9c-.15-.3-.25-.7-.25-1.23h-2ZM142.12,28.05c.33.63.8,1.14,1.42,1.5l1-1.73c-.27-.16-.48-.38-.64-.68l-1.78.92ZM143.53,29.54c.62.36,1.33.52,2.08.52v-2c-.47,0-.81-.1-1.08-.25l-1,1.73ZM145.61,30.06c.5,0,.98-.07,1.43-.22l-.64-1.89c-.22.07-.48.12-.79.12v2ZM147.04,29.84c.46-.16.88-.4,1.23-.73l-1.38-1.45c-.13.12-.28.22-.49.29l.64,1.89ZM148.27,29.1c.35-.34.62-.75.79-1.2l-1.87-.71c-.08.2-.18.35-.3.47l1.38,1.45ZM148.06,28.54l3.36.22.13-2-3.36-.22-.13,2ZM150.5,27.56c-.14.64-.41,1.19-.82,1.66l1.5,1.32c.65-.74,1.07-1.6,1.28-2.57l-1.96-.41ZM149.68,29.22c-.41.46-.95.85-1.65,1.13l.75,1.85c.96-.39,1.77-.94,2.41-1.67l-1.51-1.32ZM148.04,30.35c-.68.27-1.51.42-2.48.42v2c1.18,0,2.26-.18,3.23-.57l-.74-1.86ZM153.93,31.52h-1v1h1v-1ZM153.93,18.42v-1h-1v1h1ZM157.45,18.42h1v-1h-1v1ZM157.45,20.71h-1v1h1v-1ZM157.59,20.71v1h.75l.21-.72-.96-.28ZM158.79,18.87l.59.8h0s-.6-.8-.6-.8ZM161.32,18.27l.11-.99h0l-.11.99ZM161.87,18.37h1v-.78l-.76-.19-.24.97ZM161.87,21.59l-.29.96,1.29.39v-1.34h-1ZM158.91,21.74l.48.88h0s-.49-.88-.49-.88ZM157.92,22.69l-.86-.51h0s.86.51.86.51ZM157.56,31.52v1h1v-1h-1ZM154.93,31.52v-13.09h-2v13.09h2ZM153.93,19.42h3.52v-2h-3.52v2ZM156.45,18.42v2.28h2v-2.28h-2ZM157.45,21.71h.14v-2h-.14v2ZM158.55,20.99c.19-.65.48-1.06.83-1.32l-1.19-1.61c-.77.57-1.28,1.39-1.57,2.36l1.92.56ZM159.39,19.67c.38-.29.82-.43,1.35-.43v-2c-.94,0-1.8.27-2.54.83l1.2,1.6ZM160.73,19.24c.14,0,.3,0,.48.03l.21-1.99c-.24-.03-.47-.04-.7-.04v2ZM161.21,19.27c.18.02.31.04.42.07l.49-1.94c-.21-.05-.45-.09-.69-.12l-.21,1.99ZM160.87,18.37v3.22h2v-3.22h-2ZM162.16,20.63c-.24-.07-.54-.13-.86-.17l-.26,1.98c.28.04.46.07.55.1l.57-1.92ZM161.3,20.46c-.34-.04-.66-.07-.96-.07v2c.2,0,.43.02.7.05l.26-1.98ZM160.34,20.39c-.68,0-1.33.15-1.92.47l.97,1.75c.26-.14.56-.22.95-.22v-2ZM158.43,20.86c-.57.31-1.03.76-1.37,1.32l1.72,1.03c.15-.26.35-.45.61-.59l-.96-1.75ZM157.05,22.19c-.34.58-.49,1.23-.49,1.92h2c0-.38.08-.67.22-.91l-1.73-1.01ZM156.56,24.11v7.41h2v-7.41h-2ZM157.56,30.52h-3.63v2h3.63v-2Z"/>
  </g>
</svg>